<?xml version="1.0" encoding="utf-8"?>
<!-- Generator: Adobe Illustrator 27.5.0, SVG Export Plug-In . SVG Version: 6.00 Build 0)  -->
<svg version="1.1" xmlns="http://www.w3.org/2000/svg" xmlns:xlink="http://www.w3.org/1999/xlink" x="0px" y="0px"
	 viewBox="0 0 500 500" style="enable-background:new 0 0 500 500;" xml:space="preserve">
<g id="BACKGROUND">
</g>
<g id="OBJECTS">
	<g>
		<defs>
			<rect id="SVGID_1_" width="500" height="500"/>
		</defs>
		<clipPath id="SVGID_00000126290277741947097370000011863945022321965998_">
			<use xlink:href="#SVGID_1_"  style="overflow:visible;"/>
		</clipPath>
		<g style="clip-path:url(#SVGID_00000126290277741947097370000011863945022321965998_);">
			<rect x="95.5" y="215" style="fill:none;" width="309" height="47"/>
			<text transform="matrix(1 0 0 1 177.1787 252.6294)" style="fill:#3F3F3F; font-family:'Matiz'; font-size:53px;">BLACK</text>
		</g>
		<g style="clip-path:url(#SVGID_00000126290277741947097370000011863945022321965998_);">
			<rect x="95.5" y="265" style="fill:none;" width="309" height="47"/>
			<text transform="matrix(1 0 0 1 168.3018 302.6294)" style="fill:#FF4739; font-family:'Matiz'; font-size:53px;">FRIDAY</text>
		</g>
		<g style="clip-path:url(#SVGID_00000126290277741947097370000011863945022321965998_);">
			<path style="fill:#FF4739;" d="M150.485,235.129h-16.339c-3.976,0-3.976,6.166,0,6.166h16.339
				C154.461,241.295,154.461,235.129,150.485,235.129z"/>
			<path style="fill:#FF4739;" d="M152.665,225.242l-4.624-4.624c-1.188-1.188-3.172-1.188-4.36,0c-1.188,1.188-1.188,3.172,0,4.36
				l4.624,4.624c1.188,1.188,3.172,1.188,4.36,0C153.852,228.415,153.852,226.43,152.665,225.242z"/>
			<path style="fill:#FF4739;" d="M153.59,245.281c-1.188-1.188-3.172-1.188-4.36,0c-1.747,1.747-3.494,3.494-5.241,5.241
				c-1.188,1.187-1.188,3.172,0,4.36c1.188,1.189,3.172,1.189,4.36,0c1.747-1.747,3.494-3.494,5.241-5.241
				C154.777,248.453,154.777,246.469,153.59,245.281z"/>
		</g>
		<g style="clip-path:url(#SVGID_00000126290277741947097370000011863945022321965998_);">
			<path style="fill:#FF4739;" d="M348.659,240.371h16.339c3.976,0,3.976-6.166,0-6.166h-16.339
				C344.683,234.205,344.683,240.371,348.659,240.371z"/>
			<path style="fill:#FF4739;" d="M346.478,250.258l4.624,4.624c1.188,1.189,3.173,1.189,4.36,0c1.189-1.188,1.189-3.173,0-4.36
				l-4.624-4.624c-1.188-1.188-3.172-1.188-4.36,0C345.291,247.085,345.291,249.07,346.478,250.258z"/>
			<path style="fill:#FF4739;" d="M345.554,230.219c1.188,1.188,3.172,1.188,4.36,0c1.747-1.747,3.493-3.494,5.241-5.241
				c1.188-1.187,1.188-3.172,0-4.36c-1.188-1.188-3.173-1.188-4.36,0c-1.747,1.747-3.494,3.494-5.241,5.241
				C344.366,227.047,344.366,229.031,345.554,230.219z"/>
		</g>
		<g style="clip-path:url(#SVGID_00000126290277741947097370000011863945022321965998_);">
			<path style="fill:#FF4739;" d="M267.5,141.5c-6.449,0-6.449,10,0,10C273.949,151.5,273.949,141.5,267.5,141.5z"/>
			<path style="fill:#FF4739;" d="M280.5,131.5c-6.449,0-6.449,10,0,10C286.948,141.5,286.948,131.5,280.5,131.5z"/>
			<path style="fill:#FF4739;" d="M282,149c-6.449,0-6.449,10,0,10C288.448,159,288.448,149,282,149z"/>
		</g>
		<g style="clip-path:url(#SVGID_00000126290277741947097370000011863945022321965998_);">
			<path style="fill:#FF4739;" d="M159.6,378.067c-4.581,0-4.581,7.104,0,7.104C164.181,385.172,164.181,378.067,159.6,378.067z"/>
			<path style="fill:#FF4739;" d="M168.835,370.964c-4.582,0-4.582,7.104,0,7.104C173.415,378.067,173.415,370.964,168.835,370.964z
				"/>
			<path style="fill:#FF4739;" d="M169.9,383.396c-4.581,0-4.581,7.104,0,7.104C174.481,390.5,174.481,383.396,169.9,383.396z"/>
		</g>
		<g style="clip-path:url(#SVGID_00000126290277741947097370000011863945022321965998_);">
			<path style="fill:#FF4739;" d="M448.765,314.103c-4.581,0-4.581,7.105,0,7.105C453.346,321.208,453.346,314.103,448.765,314.103z
				"/>
			<path style="fill:#FF4739;" d="M458,307c-4.582,0-4.582,7.103,0,7.103C462.58,314.103,462.58,307,458,307z"/>
			<path style="fill:#FF4739;" d="M459.065,319.432c-4.581,0-4.581,7.104,0,7.104C463.646,326.536,463.646,319.432,459.065,319.432z
				"/>
		</g>
		<g style="clip-path:url(#SVGID_00000126290277741947097370000011863945022321965998_);">
			<path style="fill:#FF4739;" d="M19.953,55.813c-4.294-2.429-8.061,4.23-3.767,6.659C20.481,64.9,24.248,58.241,19.953,55.813z"/>
			<path style="fill:#FF4739;" d="M32.376,54.049c-4.294-2.429-8.061,4.23-3.766,6.66C32.904,63.137,36.67,56.478,32.376,54.049z"/>
			<path style="fill:#FF4739;" d="M26.784,66.268c-4.295-2.429-8.061,4.23-3.766,6.659C27.312,75.355,31.078,68.697,26.784,66.268z"
				/>
		</g>
		<g style="clip-path:url(#SVGID_00000126290277741947097370000011863945022321965998_);">
			<path style="fill:#FF4739;" d="M451,19.25c-13.75,3-31,5.5-45.5,9.5c2,1,21.5,8.25,26.75,9.75C429.5,41.75,420.5,49.25,417.5,52
				c4,4,19,17.5,22,20c-0.5-2.5-2.75-14.75-5.25-20.75c2.75-2,13-10,17-13.25c-5-3.25-8.75-3.5-12.25-6
				C442,29.25,444.75,26.25,451,19.25"/>
		</g>
		<g style="clip-path:url(#SVGID_00000126290277741947097370000011863945022321965998_);">
			<g>
				<path style="fill:#3F3F3F;" d="M270.051,331.027c-15.15,3.256-30.524,5.452-45.5,9.5c-0.588,0.158-0.785,1.086-0.18,1.37
					c8.517,4,17.913,7.168,26.93,9.825c-0.11-0.418-0.221-0.835-0.331-1.253c-4.415,4.976-9.829,9.048-14.75,13.5
					c-0.302,0.273-0.28,0.784,0,1.061c7.021,6.945,14.448,13.636,22,20c0.582,0.491,1.402,0.027,1.254-0.729
					c-0.554-2.811-1.113-5.617-1.73-8.415c-0.225-1.023-3.46-11.786-3.398-11.832c5.677-4.177,11.205-8.592,16.685-13.023
					c0.387-0.313,0.228-0.948-0.151-1.178c-2.004-1.21-4.034-2.206-6.193-3.093c-1.651-0.678-3.297-1.317-4.88-2.15
					c-0.772-0.406,0.267-0.796,0.774-1.289c3.589-3.489,6.868-7.311,10.2-11.04c0.643-0.719-0.415-1.783-1.061-1.061
					c-3.886,4.349-7.72,8.779-12,12.75c-0.368,0.341-0.24,0.926,0.151,1.178c2.037,1.31,4.172,2.18,6.416,3.06
					c-0.279-0.109,4.857,2.431,5.037,2.284c-1.097,0.888-2.205,1.763-3.311,2.639c-4.257,3.371-8.517,6.754-12.892,9.973
					c-0.251,0.185-0.475,0.515-0.345,0.847c2.613,6.639,3.876,13.775,5.25,20.75c0.418-0.243,0.836-0.486,1.254-0.729
					c-6.121-5.159-12.004-10.632-17.872-16.073c-1.248-1.157-2.487-2.324-3.707-3.511c0.291,0.282,3.654-2.944,4.125-3.355
					c3.488-3.04,7.127-6.032,10.204-9.5c0.373-0.421,0.232-1.087-0.331-1.253c-8.889-2.621-18.176-5.732-26.57-9.675
					c-0.061,0.457-0.12,0.913-0.18,1.37c14.977-4.047,30.35-6.243,45.5-9.5C271.395,332.27,270.994,330.824,270.051,331.027
					L270.051,331.027z"/>
			</g>
		</g>
		<g style="clip-path:url(#SVGID_00000126290277741947097370000011863945022321965998_);">
			<g>
				<path style="fill:#3F3F3F;" d="M70.051,205.027c-15.15,3.256-30.524,5.452-45.5,9.5c-0.588,0.158-0.785,1.086-0.18,1.37
					c8.517,4,17.913,7.168,26.93,9.825c-0.11-0.418-0.221-0.835-0.331-1.253c-4.415,4.976-9.829,9.048-14.75,13.5
					c-0.302,0.273-0.28,0.784,0,1.061c7.021,6.945,14.448,13.636,22,20c0.582,0.491,1.402,0.027,1.254-0.729
					c-0.554-2.811-1.113-5.617-1.729-8.415c-0.225-1.023-3.46-11.786-3.398-11.832c5.677-4.177,11.205-8.592,16.685-13.023
					c0.387-0.313,0.229-0.948-0.151-1.178c-2.004-1.21-4.034-2.206-6.193-3.093c-1.651-0.678-3.297-1.317-4.88-2.15
					c-0.772-0.406,0.268-0.796,0.774-1.289c3.589-3.489,6.868-7.311,10.2-11.04c0.643-0.719-0.415-1.783-1.061-1.061
					c-3.886,4.349-7.72,8.779-12,12.75c-0.368,0.341-0.24,0.926,0.151,1.178c2.037,1.309,4.172,2.18,6.416,3.059
					c-0.279-0.109,4.856,2.431,5.037,2.284c-1.097,0.888-2.205,1.763-3.312,2.639c-4.257,3.371-8.517,6.754-12.892,9.973
					c-0.251,0.185-0.475,0.515-0.345,0.847c2.613,6.639,3.876,13.775,5.25,20.75c0.418-0.243,0.836-0.486,1.254-0.729
					c-6.121-5.159-12.004-10.632-17.872-16.073c-1.248-1.157-2.487-2.324-3.707-3.511c0.291,0.282,3.654-2.944,4.125-3.355
					c3.488-3.04,7.127-6.032,10.204-9.5c0.373-0.421,0.232-1.087-0.331-1.253c-8.889-2.621-18.176-5.732-26.57-9.675
					c-0.061,0.457-0.12,0.913-0.18,1.37c14.977-4.047,30.35-6.243,45.5-9.5C71.395,206.27,70.994,204.824,70.051,205.027
					L70.051,205.027z"/>
			</g>
		</g>
		<g style="clip-path:url(#SVGID_00000126290277741947097370000011863945022321965998_);">
			<g>
				<path style="fill:#FF4739;" d="M50.5,84c5.5,13,19.75,49.5,24,58.25c2.185,4.498,7.25,1.5,11.25-0.75c5.25-2.75,61-28.5,63-30
					c2.5-2.25,2-2.5,0.5-6c-5.25-12.5-18-38.25-24.75-55.25"/>
			</g>
			<g>
				<g>
					<path style="fill:#3F3F3F;" d="M41.128,75.397c19.422-9.022,39.038-17.62,58.49-26.577c4.802-2.211,9.589-4.455,14.363-6.727
						c2.052-0.977,4.097-1.967,6.141-2.96c1.915-0.93,4.642,5.841,5.156,6.905c0.885,1.834,1.342,1.933-0.399,2.749
						c-1.28,0.6-2.561,1.196-3.843,1.792c-2.765,1.286-5.534,2.564-8.304,3.84c-13.719,6.32-27.477,12.559-41.287,18.68
						c-6.228,2.761-12.469,5.495-18.75,8.133c-2.101,0.882-4.209,1.746-6.331,2.577c0.366-0.143-4.338-8.66-5.084-9.589
						c-0.605-0.754-1.66,0.314-1.061,1.061c2.363,2.945,3.465,6.515,5.133,9.848c0.138,0.277,0.552,0.458,0.847,0.345
						c27.66-10.682,54.607-23.716,81.429-36.326c0.395-0.185,0.429-0.683,0.269-1.026c-1.774-3.818-3.533-7.558-6.117-10.902
						c-0.213-0.276-0.633-0.252-0.909-0.117c-26.539,12.966-53.717,24.559-80.5,37C39.495,74.51,40.257,75.802,41.128,75.397
						L41.128,75.397z"/>
				</g>
			</g>
			<g>
				<g>
					<path style="fill:#3F3F3F;" d="M53.75,91.75c3.839,0.438,6.935,3.212,10.837,1.701c2.318-0.898,3.663-3.653,4.789-5.661
						c1.272-2.269,2.462-4.377,5.074-5.316c2.978-1.071,6.847,0.285,9.883,0.707c2.491,0.346,5.683,0.121,7.571-1.791
						c2.386-2.417,3.386-5.709,5.561-8.284c3.82-4.523,11.616-0.293,16.658-0.91c7.358-0.901,5.777-12.664,13.929-11.222
						c0.945,0.167,1.35-1.278,0.398-1.446c-6.29-1.113-7.545,3.34-10.269,7.974c-3.442,5.855-10.855,2.196-16.167,2.075
						c-3.05-0.07-5.304,1.862-6.95,4.206c-3.498,4.981-4.386,8.778-11.795,7.749c-3.123-0.434-7.354-1.808-10.355-0.084
						c-2.608,1.498-3.922,3.959-5.353,6.511c-1.651,2.944-3.526,5.114-7.318,4.232c-2.247-0.522-4.165-1.674-6.493-1.94
						C52.79,90.14,52.8,91.642,53.75,91.75L53.75,91.75z"/>
				</g>
			</g>
			<g>
				<g>
					<path style="fill:#3F3F3F;" d="M59.449,105.223c5.399-1.463,10.261-4.072,15.223-6.595c7.063-3.591,14.661-6.087,21.984-9.088
						c12.613-5.168,24.506-11.888,36.722-17.892c0.868-0.427,0.108-1.72-0.757-1.295c-12.688,6.236-25.045,13.102-38.145,18.471
						c-5.847,2.396-11.824,4.479-17.592,7.066c-5.97,2.677-11.462,6.161-17.834,7.888C58.118,104.03,58.514,105.477,59.449,105.223
						L59.449,105.223z"/>
				</g>
			</g>
		</g>
		<g style="clip-path:url(#SVGID_00000126290277741947097370000011863945022321965998_);">
			<g>
				<g>
					<path style="fill:#3F3F3F;" d="M104.801,323.526c-6.069,0.888-12.068,2.151-18.045,3.518c-2.439,0.558-7.054,0.476-8.063,3.109
						c-3.812,9.942-6.917,20.2-10.23,30.315c-1.056,3.225,0.246,7.476,0.657,10.803c0.64,5.169,1.31,10.334,2.002,15.497
						c1.246,9.281,2.53,18.572,4.237,27.781c1.177,6.354,2.142,11.378,9.352,12.828c4.278,0.861,8.889,0.126,13.173-0.329
						c7.106-0.756,13.974-1.93,20.946-3.495c5.249-1.178,17.947-1.856,19.107-8.805c1-5.983-0.324-12.633-1.125-18.561
						c-1.852-13.711-4.596-27.306-7.364-40.855c-0.289-1.412-0.316-3.708-1.05-4.962c-2.462-4.203-6.628-8.026-9.788-11.75
						c-4.277-5.041-8.683-9.965-13.08-14.901c-0.645-0.724-1.702,0.341-1.061,1.061c5.747,6.453,11.452,12.93,17.003,19.555
						c1.629,1.944,5.215,4.938,5.719,7.432c0.223,1.101,0.449,2.201,0.674,3.302c0.725,3.544,1.441,7.09,2.142,10.639
						c1.749,8.864,3.387,17.754,4.752,26.687c1.073,7.021,2.455,14.543,1.766,21.676c-0.436,4.52-7.01,5.465-10.614,6.391
						c-7.413,1.903-15.025,3.537-22.615,4.49c-5.292,0.664-10.712,1.408-16.057,1.209c-5.596-0.209-8.465-2.952-9.635-8.07
						c-4.133-18.081-5.844-36.923-8.013-55.318c-0.262-2.218,1.472-5.423,2.158-7.502c0.951-2.887,1.909-5.771,2.871-8.654
						c1.566-4.695,3.141-9.388,4.79-14.054c0.249-0.704,0.521-2.332,1.239-2.512c2.164-0.539,4.334-1.053,6.507-1.558
						c5.97-1.388,11.979-2.632,18.044-3.518C106.154,324.834,105.747,323.389,104.801,323.526L104.801,323.526z"/>
				</g>
			</g>
			<g>
				<g>
					<path style="fill:#3F3F3F;" d="M92.301,333.276c-6.49,2.657-6.665,14.139,1.091,14.993c4.807,0.53,8.628-4.425,8.429-8.841
						C101.584,334.194,96.762,332.191,92.301,333.276c-0.94,0.229-0.541,1.676,0.398,1.447c4.111-1,7.453,0.968,7.654,5.421
						c0.186,4.108-4.409,7.5-8.221,6.359c-5.156-1.543-3.534-10.102,0.567-11.78C93.582,334.362,93.196,332.91,92.301,333.276
						L92.301,333.276z"/>
				</g>
			</g>
			<g>
				<g>
					<path style="fill:#3F3F3F;" d="M97.897,346.121c-5.756-8.944-8.724-18.952-6.623-29.56c0.897-4.534,3.392-8.328,6.509-11.645
						c1.757-1.869,3.887-3.257,6.252-4.214c1.116-0.4,2.271-0.592,3.467-0.573c5.666-0.22,5.457,4.679,3.85,7.991
						c-4.536,9.35-19.979,6.896-27.081,2.959c-7.685-4.259-12.427-12.516-14.548-20.779c-0.24-0.937-1.687-0.539-1.446,0.398
						c2.86,11.145,10.128,20.771,21.37,24.312c8.558,2.696,24.217,0.304,24.299-11.19c0.03-4.103-4.453-5.268-7.68-5.143
						c-5.139,0.2-9.44,4.704-12.327,8.472c-8.973,11.711-4.603,28.438,2.663,39.729C97.124,347.689,98.423,346.938,97.897,346.121
						L97.897,346.121z"/>
				</g>
			</g>
			<g>
				<g>
					<g>
						<path style="fill:#3F3F3F;" d="M92.887,377.311c-3.949,1.616-3.996,8.447,0.693,8.964c2.837,0.313,5.123-2.619,5.005-5.232
							C98.444,377.925,95.576,376.657,92.887,377.311c-0.94,0.229-0.541,1.676,0.398,1.447c2.06-0.502,3.716,0.429,3.818,2.681
							c0.093,2.061-2.221,3.772-4.132,3.201c-2.505-0.75-1.668-5.071,0.314-5.882C94.169,378.397,93.783,376.945,92.887,377.311
							L92.887,377.311z"/>
					</g>
				</g>
				<g>
					<g>
						<path style="fill:#3F3F3F;" d="M108.387,386.811c-3.949,1.616-3.996,8.447,0.693,8.964c2.837,0.313,5.122-2.619,5.005-5.232
							C113.944,387.425,111.076,386.157,108.387,386.811c-0.94,0.229-0.541,1.676,0.398,1.447c2.06-0.502,3.716,0.429,3.818,2.681
							c0.093,2.061-2.221,3.772-4.132,3.201c-2.505-0.75-1.668-5.071,0.314-5.882C109.668,387.897,109.283,386.445,108.387,386.811
							L108.387,386.811z"/>
					</g>
				</g>
				<g>
					<g>
						<path style="fill:#3F3F3F;" d="M93.647,403.379c5.877-11.912,12.463-23.443,19-35c0.477-0.844-0.819-1.6-1.295-0.758
							c-6.537,11.558-13.124,23.089-19,35C91.926,403.485,93.22,404.246,93.647,403.379L93.647,403.379z"/>
					</g>
				</g>
			</g>
		</g>
		<g style="clip-path:url(#SVGID_00000126290277741947097370000011863945022321965998_);">
			<g>
				<g>
					<path style="fill:#3F3F3F;" d="M186.699,431.974c12.622-2.664,25.031-6.264,37.643-9.022
						c12.799-2.798,25.611-5.543,38.443-8.185c2.732-0.563,5.468-1.108,8.204-1.65c1.78-0.352,3.561-0.694,5.343-1.037
						c1.917-0.369,0.966,2.45,0.858,3.126c-0.739,4.637-2.647,9.118-4.164,13.537c-1.916,5.587-3.444,11.298-4.719,17.063
						c-1.221,5.525-1.274,11.724-6.797,14.761c-5.262,2.893-12.178,3.806-17.914,5.342c-7.511,2.013-14.955,4.103-22.607,5.528
						c-2.908,0.541-5.845,0.875-8.774,1.273c-4.138,0.561-6.548-3.669-8.499-6.736c-3.686-5.794-6.632-12.298-9.525-18.514
						c-2.823-6.065-5.402-12.243-8.145-18.346c-1.5-3.34-3.06-6.655-4.773-9.891c-1.053-1.987-5.82-8.679-3.809-10.895
						c1.923-2.119,2.133,0.712,3.04,2.575c1.134,2.333,2.304,4.649,3.477,6.963c2.134,4.207,4.3,8.405,6.622,12.514
						c0.476,0.842,1.771,0.086,1.295-0.758c-4.41-7.804-8.505-15.857-12.25-24c-0.216-0.471-0.843-0.436-1.178-0.151
						c-1.516,1.291-3.101,2.294-3.328,4.349c-0.318,2.878,3.592,7.711,4.836,10.16c4.966,9.779,9.061,19.95,13.688,29.89
						c3.709,7.969,7.528,16.627,13.647,23.048c1.203,1.262,2.543,1.612,4.245,1.382c5.19-0.704,10.325-1.448,15.452-2.539
						c10.415-2.215,20.787-5.26,30.999-8.269c5.258-1.549,8.567-4.113,10.152-9.456c2.53-8.528,3.718-17.333,6.628-25.815
						c1.783-5.198,5.15-11.78,3.934-17.418c-0.092-0.423-0.54-0.597-0.923-0.524c-14.779,2.816-29.507,5.934-44.214,9.1
						c-15.841,3.409-31.451,7.809-47.286,11.15C185.354,430.727,185.756,432.172,186.699,431.974L186.699,431.974z"/>
				</g>
			</g>
			<g>
				<g>
					<path style="fill:#3F3F3F;" d="M212.144,472.525c-3.406,0.889-6.009,3.398-5.52,7.12c0.378,2.878,2.623,5.3,5.555,5.524
						c7.719,0.589,8.184-12.555,0.165-12.671c-0.968-0.014-0.966,1.486,0,1.5c6.033,0.088,5.723,9.631-0.165,9.671
						c-2.262,0.015-3.837-2.37-4.101-4.378c-0.382-2.903,1.93-4.658,4.465-5.319C213.478,473.728,213.081,472.281,212.144,472.525
						L212.144,472.525z"/>
				</g>
			</g>
			<g>
				<g>
					<path style="fill:#3F3F3F;" d="M261.145,461.275c-3.406,0.889-6.01,3.398-5.521,7.12c0.378,2.878,2.623,5.3,5.555,5.524
						c7.72,0.589,8.185-12.555,0.165-12.671c-0.969-0.014-0.967,1.486,0,1.5c6.032,0.088,5.723,9.631-0.165,9.671
						c-2.263,0.015-3.837-2.37-4.101-4.378c-0.383-2.903,1.93-4.658,4.465-5.319C262.478,462.478,262.08,461.031,261.145,461.275
						L261.145,461.275z"/>
				</g>
			</g>
			<g>
				<g>
					<path style="fill:#3F3F3F;" d="M190.949,441.724c12.877-2.18,25.702-6.096,38.41-9.156c15.775-3.8,31.538-7.657,47.34-11.344
						c0.942-0.22,0.543-1.666-0.398-1.447c-15.378,3.588-30.718,7.338-46.069,11.038c-13.125,3.164-26.38,7.212-39.681,9.462
						C189.599,440.438,190.003,441.883,190.949,441.724L190.949,441.724z"/>
				</g>
			</g>
			<g>
				<g>
					<path style="fill:#3F3F3F;" d="M196.75,453.25c5.726-0.282,10.961-2.591,16.449-4.026c6.673-1.746,13.389-3.404,20.13-4.865
						c6.557-1.422,13.162-2.614,19.746-3.903c6.204-1.216,12.173-3.355,18.374-4.482c0.951-0.173,0.547-1.619-0.398-1.447
						c-5.6,1.018-10.978,2.98-16.562,4.12c-6.554,1.339-13.142,2.5-19.688,3.88c-6.164,1.3-12.265,2.826-18.374,4.358
						c-6.459,1.62-12.99,4.536-19.677,4.865C195.787,451.798,195.783,453.298,196.75,453.25L196.75,453.25z"/>
				</g>
			</g>
			<g>
				<g>
					<path style="fill:#3F3F3F;" d="M202.949,465.724c12.142-1.686,23.755-5.643,35.5-9c6.219-1.777,12.466-3.468,18.75-5
						c3.873-0.945,7.982-0.851,11.43-3.076c0.81-0.522,0.058-1.821-0.758-1.295c-3.716,2.398-8.729,2.354-12.945,3.382
						c-6.24,1.521-12.431,3.272-18.605,5.037c-11.18,3.194-22.211,6.901-33.77,8.505
						C201.596,464.409,202.004,465.854,202.949,465.724L202.949,465.724z"/>
				</g>
			</g>
			<g>
				<g>
					<path style="fill:#3F3F3F;" d="M222.223,471.551c-1.389-9.68-6.724-17.6-9.819-26.687c-1.991-5.844-3.256-13.247-7.624-17.895
						c-0.664-0.706-1.722,0.357-1.061,1.061c4.351,4.63,5.561,12.31,7.557,18.169c2.985,8.763,8.159,16.401,9.5,25.75
						C220.914,472.903,222.359,472.496,222.223,471.551L222.223,471.551z"/>
				</g>
			</g>
			<g>
				<g>
					<path style="fill:#3F3F3F;" d="M238.473,467.551c-4.465-15.034-6.32-30.741-11.75-45.5c-0.331-0.9-1.781-0.512-1.446,0.398
						c5.43,14.76,7.285,30.466,11.75,45.5C237.302,468.874,238.749,468.48,238.473,467.551L238.473,467.551z"/>
				</g>
			</g>
			<g>
				<g>
					<path style="fill:#3F3F3F;" d="M256.25,463c-0.371-9.395-2.172-18.532-3.324-27.836c-0.749-6.05-0.304-12.596-2.778-18.293
						c-0.384-0.885-1.676-0.12-1.295,0.758c2.552,5.875,1.791,12.727,2.751,18.945c1.354,8.774,2.795,17.54,3.146,26.426
						C254.788,463.964,256.288,463.968,256.25,463L256.25,463z"/>
				</g>
			</g>
		</g>
		<g style="clip-path:url(#SVGID_00000126290277741947097370000011863945022321965998_);">
			<g>
				<g>
					<path style="fill:#3F3F3F;" d="M421.468,249.609c-4.933,1.105-9.706,4.064-14.051,6.513
						c-6.522,3.675-12.827,7.851-18.523,12.719c-3.647,3.117-8.192,7.317-8.701,12.398c-0.52,5.178,6.007,6.972,9.77,7.963
						c10.702,2.818,22.641,2.547,33.599,1.951c9.362-0.508,18.736,0.178,28.093-0.719c6.75-0.647,15.897-3.273,15.617-11.659
						c-0.266-7.933-11.783-13.747-17.559-17.256c-5.406-3.284-11.035-6.237-16.835-8.763c-3.472-1.511-7.353-3.181-11.21-3.174
						c-0.967,0.002-0.968,1.502,0,1.5c8.152-0.016,17.109,5.915,23.95,9.777c6.814,3.848,26.338,13.749,18.096,23.505
						c-5.815,6.884-20.219,5.152-28.183,5.164c-9.027,0.013-18.053,0.547-27.077,0.284c-5.663-0.165-11.344-0.647-16.898-1.781
						c-3.18-0.649-7.508-1.552-9.373-4.511c-2.904-4.611,4.913-11.11,7.773-13.62c5.526-4.85,11.852-8.845,18.22-12.484
						c4.216-2.41,8.898-5.286,13.692-6.36C422.81,250.845,422.41,249.398,421.468,249.609L421.468,249.609z"/>
				</g>
			</g>
			<g>
				<g>
					<path style="fill:#3F3F3F;" d="M422.026,254.607c-5.094,1.157-10.08,4.155-14.621,6.605c-6.254,3.374-12.578,7.16-17.73,12.106
						c-2.426,2.327-5.419,6.153-2.648,9.304c4.059,4.615,15.399,3.776,20.722,3.968c8.486,0.305,16.951-0.181,25.432-0.324
						c4.71-0.079,9.418-0.221,14.116-0.567c3.26-0.241,7.255-0.358,10.253-1.81c15.498-7.509-25.932-27.005-31.763-28.733
						c-1.158-0.343-2.353-0.562-3.561-0.574c-0.968-0.01-0.967,1.49,0,1.5c7.19,0.073,15.189,5.363,21.251,8.767
						c3.35,1.881,6.682,3.912,9.66,6.35c2.282,1.867,4.532,3.83,6.138,6.331c2.532,3.946-3.05,5.342-5.083,5.796
						c-7.435,1.659-15.506,1.357-23.082,1.477c-6.478,0.103-12.936,0.454-19.419,0.381c-7.046-0.079-16.054,0.474-22.515-2.82
						c-5.215-2.658,2.197-8.688,4.474-10.548c4.907-4.008,10.541-7.2,16.118-10.165c3.945-2.098,8.26-4.596,12.657-5.594
						C423.368,255.84,422.968,254.394,422.026,254.607L422.026,254.607z"/>
				</g>
			</g>
			<g>
				<g>
					<path style="fill:#3F3F3F;" d="M421.084,250c0.046-4.066,1.177-10.241-2.772-12.939c-3.33-2.275-6.967,0.597-7.683,3.789
						c-0.314,1.4-2.082,2.656-2.719,0.679c-0.416-1.293,0.326-2.985,0.861-4.122c1.363-2.898,4.132-5.354,7.37-5.734
						c9.038-1.062,8.91,13.078,8.774,18.661c-0.023,0.968,1.477,0.966,1.5,0c0.154-6.352,0.335-15.696-6.1-19.286
						c-5.1-2.846-10.454,1.218-12.841,5.602c-1.534,2.819-1.829,8.391,2.86,7.668c2.089-0.321,1.711-4.704,3.188-5.828
						c3.618-2.756,5.879,2.05,6.093,4.781c0.175,2.232-0.008,4.495-0.033,6.73C419.573,250.968,421.073,250.967,421.084,250
						L421.084,250z"/>
				</g>
			</g>
		</g>
		<g style="clip-path:url(#SVGID_00000126290277741947097370000011863945022321965998_);">
			<g>
				<g>
					<path style="fill:#3F3F3F;" d="M397.288,356.353c-10.836,6.439-21.446,13.252-32.301,19.659
						c-1.069,0.631-18.615,9.212-13.536,12.188c3.226,1.89,9.102-1.412,11.97-2.761c5.702-2.682,11.049-6.311,16.564-9.371
						c9.744-5.407,19.096-11.415,28.714-17.028c8.384-4.894,16.976-9.513,25.005-14.984c0.735-0.5,8.567-5.92,4.629-6.87
						c-4.498-1.085-11.078,3.17-14.898,5.011c-7.363,3.55-14.521,7.536-21.627,11.571
						C400.298,354.623,398.795,355.49,397.288,356.353c-0.839,0.48-0.083,1.776,0.758,1.295
						c10.243-5.863,20.523-11.807,31.342-16.56c2.282-1.002,4.647-1.962,7.102-2.449c1.132-0.226,1.762-0.46,0.772,0.669
						c-1.01,1.152-2.356,2.057-3.586,2.942c-6.499,4.681-13.652,8.52-20.581,12.514c-16.354,9.425-32.297,19.533-48.872,28.583
						c-3.289,1.796-6.875,3.349-10.641,3.703c-3.578,0.337,2.528-4.241,2.797-4.402c4.673-2.805,9.485-5.383,14.156-8.199
						c9.202-5.548,18.271-11.311,27.511-16.801C398.876,357.154,398.122,355.857,397.288,356.353L397.288,356.353z"/>
				</g>
			</g>
			<g>
				<g>
					<path style="fill:#3F3F3F;" d="M357.47,387.863c8.418,8.613,15.944,18.487,25.153,26.285
						c10.221,8.654,24.628-0.673,33.491-7.041c6.889-4.949,13.842-9.802,20.932-14.46c3.905-2.565,6.618-6.551,7.038-11.272
						c0.522-5.887-0.854-11.731-2.322-17.396c-1.883-7.263-4.078-14.483-6.704-21.513c-0.336-0.897-1.786-0.51-1.447,0.398
						c3.962,10.604,7.834,22.054,9.008,33.363c0.856,8.255-2.91,12.847-9.507,17.221c-6.011,3.985-11.893,8.161-17.754,12.363
						c-5.493,3.938-10.814,7.18-17.331,9.22c-7.85,2.458-12.735,0.045-18.195-5.571c-7.224-7.432-14.06-15.248-21.301-22.658
						C357.853,386.11,356.793,387.172,357.47,387.863L357.47,387.863z"/>
				</g>
			</g>
			<g>
				<g>
					<path style="fill:#3F3F3F;" d="M372.417,372.666c0.089-10.436,0.009-21.385,1.569-31.747c0.228-1.514,0.512-3.11,1.221-4.481
						c0.978-1.891,1.587,5.887,1.465,3.17c0.087,1.939,0.014,3.885-0.047,5.823c-0.262,8.435-1.607,16.787-1.708,25.235
						c-0.012,0.968,1.488,0.967,1.5,0c0.132-11.032,2.165-21.951,1.667-33c-0.072-1.596-2.506-4.323-3.93-2.326
						c-2.315,3.251-2.144,8.892-2.395,12.688c-0.539,8.168-0.772,16.456-0.843,24.639
						C370.909,373.634,372.409,373.633,372.417,372.666L372.417,372.666z"/>
				</g>
			</g>
			<g>
				<g>
					<path style="fill:#3F3F3F;" d="M411.046,348.353c-3.96-2.159-7.878-4.389-11.725-6.744c-2.295-1.405-4.542-2.885-6.723-4.461
						c-0.549-0.395-6.517-5.463-3.203-4.879c5.085,0.896,10.265,4.835,14.549,7.51c3.851,2.403,7.624,4.937,11.344,7.535
						c0.796,0.556,1.544-0.745,0.758-1.295c-5.493-3.838-11.101-7.528-16.9-10.886c-2.437-1.41-9.325-6.347-12.259-3.778
						c-4.053,3.548,20.743,16.844,23.401,18.293C411.138,350.11,411.895,348.815,411.046,348.353L411.046,348.353z"/>
				</g>
			</g>
			<g>
				<g>
					<path style="fill:#3F3F3F;" d="M366.199,395.724c5.238-1.865,9.663-5.128,14.225-8.228c6.07-4.126,12.797-7.466,19.163-11.115
						c12.832-7.356,25.111-15.711,38.126-22.733c0.852-0.459,0.094-1.754-0.758-1.295c-11.921,6.433-23.161,14.08-34.883,20.866
						c-5.953,3.446-11.942,6.83-17.9,10.267c-6.137,3.539-11.635,8.393-18.371,10.791
						C364.896,394.599,365.286,396.049,366.199,395.724L366.199,395.724z"/>
				</g>
			</g>
			<g>
				<g>
					<path style="fill:#3F3F3F;" d="M380.533,410.724c23.048-8.767,40.294-28.556,61.846-40.076
						c0.853-0.456,0.096-1.751-0.758-1.295c-10.497,5.611-19.779,13.283-29.517,20.072c-10.279,7.166-20.133,15.35-31.97,19.852
						C379.24,409.617,379.628,411.067,380.533,410.724L380.533,410.724z"/>
				</g>
			</g>
			<g>
				<g>
					<path style="fill:#3F3F3F;" d="M420.647,402.621c-5.954-13.327-14.377-25.278-22-37.667c-0.506-0.821-1.804-0.069-1.295,0.758
						c7.622,12.388,16.045,24.34,22,37.667C419.746,404.261,421.039,403.497,420.647,402.621L420.647,402.621z"/>
				</g>
			</g>
			<g>
				<g>
					<path style="fill:#3F3F3F;" d="M403.864,412.803c-5.509-5.7-11.445-10.962-16.979-16.637
						c-5.215-5.347-9.718-11.426-15.839-15.813c-0.788-0.564-1.536,0.737-0.758,1.295c5.981,4.287,10.513,10.278,15.536,15.58
						c5.451,5.752,11.472,10.937,16.979,16.636C403.477,414.56,404.536,413.498,403.864,412.803L403.864,412.803z"/>
				</g>
			</g>
			<g>
				<g>
					<path style="fill:#3F3F3F;" d="M434.391,393.467c-4.442-14.015-8.838-28.142-15.743-41.18
						c-0.453-0.855-1.747-0.097-1.295,0.758c6.845,12.923,11.189,26.93,15.591,40.82
						C433.235,394.784,434.684,394.392,434.391,393.467L434.391,393.467z"/>
				</g>
			</g>
		</g>
		<g style="clip-path:url(#SVGID_00000126290277741947097370000011863945022321965998_);">
			<g>
				<g>
					<path style="fill:#3F3F3F;" d="M177.186,107.132c-1.65-0.84-3.376-0.497-4.403,1.085c-0.884,1.361-0.787,3.413,0.495,4.486
						c1.521,1.273,3.796,0.854,4.866-0.743C179.213,110.363,178.626,108.24,177.186,107.132c-0.767-0.59-1.512,0.714-0.757,1.295
						c1.903,1.464-0.197,4.801-2.213,3.112c-0.705-0.589-0.594-1.693-0.217-2.428c0.504-0.982,1.492-1.163,2.431-0.685
						C177.289,108.865,178.048,107.571,177.186,107.132L177.186,107.132z"/>
				</g>
			</g>
			<g>
				<g>
					<path style="fill:#3F3F3F;" d="M184.517,108.726c-1.65-0.84-3.376-0.497-4.403,1.085c-0.884,1.362-0.787,3.413,0.494,4.486
						c1.521,1.274,3.796,0.854,4.866-0.743C186.544,111.957,185.957,109.834,184.517,108.726c-0.767-0.59-1.512,0.714-0.757,1.295
						c1.902,1.464-0.198,4.802-2.214,3.113c-0.704-0.59-0.594-1.693-0.217-2.428c0.504-0.982,1.492-1.163,2.431-0.685
						C184.62,110.459,185.379,109.165,184.517,108.726L184.517,108.726z"/>
				</g>
			</g>
			<g>
				<g>
					<path style="fill:#3F3F3F;" d="M178.78,115.1c-1.65-0.84-3.376-0.497-4.403,1.085c-0.884,1.361-0.787,3.412,0.495,4.486
						c1.499,1.255,3.705,0.861,4.812-0.66C180.837,118.426,180.234,116.221,178.78,115.1c-0.766-0.591-1.512,0.713-0.757,1.295
						c1.996,1.539-0.379,4.904-2.326,3.003c-0.603-0.588-0.449-1.647-0.104-2.318c0.503-0.982,1.492-1.163,2.431-0.685
						C178.883,116.833,179.642,115.539,178.78,115.1L178.78,115.1z"/>
				</g>
			</g>
		</g>
		<g style="clip-path:url(#SVGID_00000126290277741947097370000011863945022321965998_);">
			<g>
				<g>
					<path style="fill:#3F3F3F;" d="M472.279,386.978c-1.65-0.841-3.377-0.498-4.404,1.084c-0.884,1.361-0.787,3.413,0.495,4.486
						c1.522,1.273,3.796,0.854,4.866-0.742C474.307,390.209,473.719,388.086,472.279,386.978c-0.768-0.59-1.513,0.713-0.758,1.295
						c1.903,1.464-0.197,4.801-2.213,3.111c-0.705-0.589-0.594-1.692-0.217-2.428c0.503-0.982,1.491-1.162,2.43-0.684
						C472.382,388.711,473.141,387.417,472.279,386.978L472.279,386.978z"/>
				</g>
			</g>
			<g>
				<g>
					<path style="fill:#3F3F3F;" d="M479.609,388.571c-1.65-0.841-3.375-0.497-4.402,1.085c-0.885,1.361-0.787,3.412,0.494,4.486
						c1.52,1.273,3.796,0.853,4.865-0.742C481.637,391.803,481.051,389.68,479.609,388.571c-0.766-0.591-1.512,0.714-0.756,1.295
						c1.902,1.464-0.198,4.802-2.215,3.112c-0.703-0.59-0.594-1.693-0.217-2.428c0.504-0.982,1.492-1.162,2.432-0.685
						C479.713,390.305,480.473,389.01,479.609,388.571L479.609,388.571z"/>
				</g>
			</g>
			<g>
				<g>
					<path style="fill:#3F3F3F;" d="M473.873,394.945c-1.65-0.84-3.377-0.496-4.404,1.086c-0.884,1.361-0.787,3.412,0.495,4.486
						c1.499,1.254,3.704,0.86,4.811-0.66C475.93,398.272,475.326,396.066,473.873,394.945c-0.767-0.59-1.512,0.714-0.758,1.295
						c1.996,1.539-0.379,4.904-2.326,3.004c-0.602-0.589-0.448-1.647-0.104-2.318c0.503-0.982,1.491-1.163,2.43-0.686
						C473.976,396.679,474.734,395.385,473.873,394.945L473.873,394.945z"/>
				</g>
			</g>
		</g>
		<g style="clip-path:url(#SVGID_00000126290277741947097370000011863945022321965998_);">
			<g>
				<g>
					<path style="fill:#3F3F3F;" d="M324.279,164.979c-1.65-0.841-3.377-0.498-4.404,1.084c-0.884,1.361-0.787,3.413,0.495,4.486
						c1.522,1.273,3.796,0.854,4.866-0.742C326.307,168.209,325.719,166.086,324.279,164.979c-0.768-0.59-1.513,0.713-0.758,1.295
						c1.903,1.464-0.197,4.801-2.213,3.111c-0.705-0.589-0.594-1.692-0.217-2.428c0.503-0.982,1.491-1.162,2.43-0.684
						C324.382,166.711,325.141,165.417,324.279,164.979L324.279,164.979z"/>
				</g>
			</g>
			<g>
				<g>
					<path style="fill:#3F3F3F;" d="M331.609,166.571c-1.65-0.841-3.375-0.497-4.402,1.085c-0.885,1.361-0.787,3.412,0.494,4.486
						c1.52,1.273,3.796,0.854,4.865-0.742C333.637,169.803,333.051,167.68,331.609,166.571c-0.766-0.591-1.512,0.714-0.756,1.295
						c1.902,1.464-0.198,4.802-2.215,3.112c-0.703-0.59-0.594-1.693-0.217-2.428c0.504-0.982,1.492-1.162,2.432-0.685
						C331.713,168.305,332.473,167.01,331.609,166.571L331.609,166.571z"/>
				</g>
			</g>
			<g>
				<g>
					<path style="fill:#3F3F3F;" d="M325.873,172.945c-1.65-0.84-3.377-0.496-4.404,1.086c-0.884,1.361-0.787,3.412,0.495,4.486
						c1.499,1.254,3.704,0.86,4.811-0.66C327.93,176.271,327.326,174.066,325.873,172.945c-0.767-0.59-1.512,0.714-0.758,1.295
						c1.996,1.539-0.379,4.904-2.326,3.004c-0.602-0.589-0.448-1.647-0.104-2.318c0.503-0.982,1.491-1.163,2.43-0.686
						C325.976,174.679,326.734,173.385,325.873,172.945L325.873,172.945z"/>
				</g>
			</g>
		</g>
		<g style="clip-path:url(#SVGID_00000126290277741947097370000011863945022321965998_);">
			<g>
				<g>
					<path style="fill:#3F3F3F;" d="M165.381,330.093c-1.65-0.841-3.377-0.498-4.404,1.084c-0.884,1.361-0.787,3.413,0.495,4.486
						c1.521,1.273,3.796,0.854,4.866-0.742C167.409,333.323,166.821,331.2,165.381,330.093c-0.768-0.59-1.513,0.713-0.758,1.295
						c1.903,1.464-0.197,4.801-2.213,3.111c-0.705-0.589-0.594-1.692-0.217-2.428c0.503-0.982,1.491-1.162,2.43-0.684
						C165.484,331.825,166.243,330.531,165.381,330.093L165.381,330.093z"/>
				</g>
			</g>
			<g>
				<g>
					<path style="fill:#3F3F3F;" d="M172.711,331.685c-1.65-0.841-3.375-0.497-4.402,1.085c-0.885,1.361-0.787,3.412,0.494,4.486
						c1.521,1.273,3.796,0.854,4.865-0.742C174.739,334.917,174.153,332.794,172.711,331.685c-0.766-0.591-1.512,0.714-0.756,1.295
						c1.902,1.464-0.198,4.802-2.215,3.112c-0.703-0.59-0.594-1.693-0.217-2.428c0.504-0.982,1.492-1.162,2.432-0.685
						C172.815,333.419,173.575,332.124,172.711,331.685L172.711,331.685z"/>
				</g>
			</g>
			<g>
				<g>
					<path style="fill:#3F3F3F;" d="M166.975,338.06c-1.65-0.84-3.377-0.496-4.404,1.086c-0.884,1.361-0.787,3.412,0.495,4.486
						c1.499,1.254,3.704,0.86,4.811-0.66C169.032,341.386,168.428,339.181,166.975,338.06c-0.767-0.59-1.512,0.714-0.758,1.295
						c1.996,1.539-0.379,4.904-2.326,3.004c-0.602-0.589-0.448-1.647-0.104-2.318c0.503-0.982,1.491-1.163,2.43-0.686
						C167.078,339.793,167.836,338.499,166.975,338.06L166.975,338.06z"/>
				</g>
			</g>
		</g>
		<g style="clip-path:url(#SVGID_00000126290277741947097370000011863945022321965998_);">
			<g>
				<g>
					<path style="fill:#3F3F3F;" d="M27.779,281.478c-1.65-0.841-3.377-0.498-4.404,1.084c-0.884,1.361-0.787,3.413,0.495,4.486
						c1.521,1.273,3.796,0.854,4.866-0.742C29.807,284.709,29.219,282.586,27.779,281.478c-0.768-0.59-1.513,0.713-0.758,1.295
						c1.903,1.464-0.197,4.801-2.213,3.111c-0.705-0.589-0.594-1.692-0.217-2.428c0.503-0.982,1.491-1.162,2.43-0.684
						C27.882,283.211,28.641,281.917,27.779,281.478L27.779,281.478z"/>
				</g>
			</g>
			<g>
				<g>
					<path style="fill:#3F3F3F;" d="M35.109,283.071c-1.65-0.841-3.375-0.497-4.402,1.085c-0.885,1.361-0.787,3.412,0.494,4.486
						c1.52,1.273,3.796,0.853,4.865-0.742C37.137,286.303,36.551,284.18,35.109,283.071c-0.766-0.591-1.512,0.714-0.756,1.295
						c1.902,1.464-0.198,4.802-2.215,3.112c-0.703-0.59-0.594-1.693-0.217-2.428c0.504-0.982,1.492-1.162,2.432-0.685
						C35.213,284.805,35.973,283.51,35.109,283.071L35.109,283.071z"/>
				</g>
			</g>
			<g>
				<g>
					<path style="fill:#3F3F3F;" d="M29.373,289.445c-1.65-0.84-3.377-0.496-4.404,1.086c-0.884,1.361-0.787,3.412,0.495,4.486
						c1.499,1.254,3.704,0.86,4.812-0.66C31.43,292.772,30.826,290.566,29.373,289.445c-0.767-0.59-1.512,0.714-0.758,1.295
						c1.996,1.539-0.379,4.904-2.326,3.004c-0.602-0.589-0.448-1.647-0.104-2.318c0.503-0.982,1.491-1.163,2.43-0.686
						C29.476,291.179,30.234,289.885,29.373,289.445L29.373,289.445z"/>
				</g>
			</g>
		</g>
		<path style="clip-path:url(#SVGID_00000126290277741947097370000011863945022321965998_);fill:#3F3F3F;" d="M57.809,32.078
			c-1.001-1.758-2.451-3.179-3.911-4.567c0.665-0.992,1.346-1.973,2.029-2.949c0.78-1.115-0.737-2.544-1.839-1.839
			c-1.013,0.648-2.038,1.276-3.072,1.885c-1.209-1.309-2.409-2.616-3.906-3.633c-1.023-0.694-2.242,0.443-1.975,1.518
			c0.405,1.634,0.561,3.294,0.629,4.964c-1.022,0.506-2.056,0.991-3.103,1.449c-1.139,0.499-0.68,2.145,0.321,2.458
			c0.947,0.295,1.905,0.537,2.871,0.749c0.035,1.506,0.115,3.009,0.358,4.497c0.2,1.225,1.588,1.197,2.256,0.459
			c0.204-0.149,0.372-0.346,0.471-0.593c0.483-1.2,1.037-2.364,1.64-3.501c1.915,0.312,3.83,0.622,5.714,1.079
			C57.434,34.33,58.404,33.123,57.809,32.078z"/>
		<path style="clip-path:url(#SVGID_00000126290277741947097370000011863945022321965998_);fill:#3F3F3F;" d="M473.344,225.167
			c0.212-2.818-0.36-5.596-0.97-8.343c1.544-0.63,3.1-1.236,4.653-1.835c1.772-0.684,1.129-3.523-0.697-3.566
			c-1.681-0.039-3.355-0.111-5.031-0.211c-0.38-2.46-0.75-4.91-1.692-7.257c-0.642-1.601-2.942-1.235-3.472,0.219
			c-0.805,2.21-1.919,4.255-3.145,6.243c-1.578-0.21-3.153-0.454-4.725-0.741c-1.709-0.311-2.461,1.956-1.546,3.099
			c0.868,1.081,1.788,2.107,2.742,3.106c-1.135,1.772-2.213,3.577-3.091,5.49c-0.725,1.574,0.905,2.625,2.256,2.291
			c0.35-0.015,0.699-0.112,1.008-0.321c1.495-1.014,3.045-1.929,4.631-2.777c1.976,1.854,3.952,3.707,5.778,5.707
			C471.152,227.483,473.219,226.842,473.344,225.167z"/>
		<path style="clip-path:url(#SVGID_00000126290277741947097370000011863945022321965998_);fill:#3F3F3F;" d="M329.344,373.167
			c0.212-2.818-0.36-5.597-0.97-8.343c1.544-0.631,3.1-1.236,4.653-1.834c1.772-0.684,1.129-3.523-0.697-3.566
			c-1.681-0.039-3.355-0.111-5.031-0.212c-0.38-2.46-0.75-4.91-1.692-7.257c-0.642-1.602-2.942-1.235-3.472,0.219
			c-0.805,2.21-1.919,4.256-3.145,6.242c-1.578-0.209-3.153-0.453-4.725-0.74c-1.709-0.311-2.461,1.955-1.546,3.099
			c0.868,1.081,1.788,2.107,2.742,3.106c-1.135,1.771-2.213,3.576-3.091,5.489c-0.725,1.574,0.905,2.625,2.256,2.291
			c0.35-0.015,0.699-0.112,1.008-0.321c1.495-1.014,3.045-1.929,4.631-2.777c1.976,1.855,3.952,3.707,5.778,5.708
			C327.152,375.483,329.219,374.842,329.344,373.167z"/>
		<path style="clip-path:url(#SVGID_00000126290277741947097370000011863945022321965998_);fill:#3F3F3F;" d="M115.344,198.667
			c0.212-2.818-0.36-5.596-0.97-8.343c1.544-0.63,3.1-1.236,4.653-1.835c1.771-0.684,1.129-3.523-0.697-3.566
			c-1.681-0.039-3.355-0.111-5.031-0.211c-0.38-2.46-0.75-4.91-1.692-7.257c-0.643-1.601-2.942-1.235-3.472,0.219
			c-0.805,2.21-1.919,4.255-3.145,6.243c-1.578-0.21-3.153-0.454-4.725-0.741c-1.709-0.311-2.461,1.956-1.546,3.099
			c0.868,1.081,1.788,2.107,2.742,3.106c-1.135,1.772-2.213,3.577-3.091,5.49c-0.725,1.574,0.905,2.625,2.256,2.291
			c0.351-0.015,0.699-0.112,1.008-0.321c1.495-1.014,3.045-1.929,4.631-2.777c1.976,1.854,3.952,3.707,5.778,5.707
			C113.152,200.983,115.219,200.342,115.344,198.667z"/>
		<path style="clip-path:url(#SVGID_00000126290277741947097370000011863945022321965998_);fill:#FF4739;" d="M62.336,467.826
			c-1.48-2.408-3.572-4.322-5.675-6.19c0.881-1.416,1.787-2.818,2.695-4.214c1.034-1.593-1.151-3.517-2.656-2.48
			c-1.384,0.953-2.783,1.877-4.2,2.777c-1.75-1.771-3.486-3.539-5.625-4.888c-1.459-0.92-3.108,0.724-2.684,2.213
			c0.643,2.262,0.94,4.572,1.111,6.9c-1.401,0.755-2.821,1.48-4.262,2.17c-1.567,0.749-0.848,3.026,0.563,3.416
			c1.337,0.368,2.684,0.659,4.042,0.909c0.12,2.101,0.304,4.195,0.713,6.26c0.336,1.699,2.272,1.596,3.171,0.533
			c0.276-0.217,0.501-0.5,0.628-0.851c0.617-1.697,1.336-3.348,2.124-4.964c2.688,0.344,5.375,0.686,8.027,1.236
			C61.918,470.987,63.217,469.257,62.336,467.826z"/>
		<g style="clip-path:url(#SVGID_00000126290277741947097370000011863945022321965998_);">
			<g>
				<g>
					<path style="fill:#3F3F3F;" d="M328.637,76.562c-3.949,1.616-3.995,8.447,0.693,8.964c2.838,0.313,5.123-2.619,5.006-5.232
						C334.195,77.175,331.325,75.907,328.637,76.562c-0.939,0.229-0.541,1.676,0.398,1.447c2.06-0.502,3.717,0.428,3.818,2.681
						c0.093,2.062-2.221,3.772-4.132,3.201c-2.506-0.749-1.669-5.071,0.314-5.882C329.918,77.647,329.532,76.195,328.637,76.562
						L328.637,76.562z"/>
				</g>
			</g>
			<g>
				<g>
					<path style="fill:#3F3F3F;" d="M344.137,86.062c-3.949,1.616-3.995,8.447,0.693,8.964c2.838,0.313,5.123-2.619,5.006-5.232
						C349.695,86.675,346.825,85.407,344.137,86.062c-0.939,0.229-0.541,1.676,0.398,1.447c2.06-0.502,3.717,0.428,3.818,2.681
						c0.093,2.062-2.221,3.772-4.132,3.201c-2.506-0.749-1.669-5.071,0.314-5.882C345.418,87.147,345.032,85.695,344.137,86.062
						L344.137,86.062z"/>
				</g>
			</g>
			<g>
				<g>
					<path style="fill:#3F3F3F;" d="M329.397,102.629c5.877-11.912,12.464-23.443,19-35c0.477-0.844-0.819-1.6-1.295-0.758
						c-6.537,11.558-13.123,23.089-19,35C327.676,102.735,328.97,103.496,329.397,102.629L329.397,102.629z"/>
				</g>
			</g>
		</g>
		<g style="clip-path:url(#SVGID_00000126290277741947097370000011863945022321965998_);">
			<g>
				<g>
					<path style="fill:#3F3F3F;" d="M168.729,157.561c-3.949,1.616-3.995,8.447,0.693,8.964c2.838,0.313,5.123-2.619,5.006-5.232
						C174.287,158.174,171.417,156.906,168.729,157.561c-0.939,0.229-0.541,1.676,0.398,1.447c2.059-0.502,3.717,0.428,3.818,2.681
						c0.093,2.061-2.221,3.772-4.132,3.201c-2.506-0.749-1.669-5.071,0.314-5.882C170.01,158.646,169.624,157.194,168.729,157.561
						L168.729,157.561z"/>
				</g>
			</g>
			<g>
				<g>
					<path style="fill:#3F3F3F;" d="M184.229,167.061c-3.949,1.616-3.995,8.447,0.693,8.964c2.838,0.313,5.123-2.619,5.006-5.232
						C189.787,167.674,186.917,166.406,184.229,167.061c-0.939,0.229-0.541,1.676,0.398,1.447c2.059-0.502,3.717,0.428,3.818,2.681
						c0.093,2.061-2.221,3.772-4.132,3.201c-2.506-0.749-1.669-5.071,0.314-5.882C185.51,168.146,185.124,166.694,184.229,167.061
						L184.229,167.061z"/>
				</g>
			</g>
			<g>
				<g>
					<path style="fill:#3F3F3F;" d="M169.489,183.628c5.877-11.912,12.464-23.443,19-35c0.477-0.844-0.819-1.6-1.295-0.758
						c-6.537,11.558-13.123,23.089-19,35C167.768,183.734,169.061,184.495,169.489,183.628L169.489,183.628z"/>
				</g>
			</g>
		</g>
		<g style="clip-path:url(#SVGID_00000126290277741947097370000011863945022321965998_);">
			<g>
				<g>
					<path style="fill:#3F3F3F;" d="M155.637,28.562c-3.949,1.616-3.995,8.447,0.693,8.964c2.838,0.313,5.123-2.619,5.006-5.232
						C161.195,29.175,158.325,27.907,155.637,28.562c-0.939,0.229-0.541,1.676,0.398,1.447c2.059-0.502,3.717,0.428,3.818,2.681
						c0.093,2.062-2.221,3.772-4.132,3.201c-2.506-0.749-1.669-5.071,0.314-5.882C156.918,29.647,156.532,28.195,155.637,28.562
						L155.637,28.562z"/>
				</g>
			</g>
			<g>
				<g>
					<path style="fill:#3F3F3F;" d="M171.137,38.062c-3.949,1.616-3.995,8.447,0.693,8.964c2.838,0.313,5.123-2.619,5.006-5.232
						C176.695,38.675,173.825,37.407,171.137,38.062c-0.939,0.229-0.541,1.676,0.399,1.447c2.059-0.502,3.717,0.428,3.818,2.681
						c0.093,2.062-2.221,3.772-4.132,3.201c-2.506-0.749-1.669-5.071,0.314-5.882C172.418,39.147,172.032,37.695,171.137,38.062
						L171.137,38.062z"/>
				</g>
			</g>
			<g>
				<g>
					<path style="fill:#3F3F3F;" d="M156.397,54.629c5.877-11.912,12.464-23.443,19-35c0.477-0.844-0.819-1.6-1.295-0.758
						c-6.537,11.558-13.123,23.089-19,35C154.676,54.735,155.97,55.496,156.397,54.629L156.397,54.629z"/>
				</g>
			</g>
		</g>
		<g style="clip-path:url(#SVGID_00000126290277741947097370000011863945022321965998_);">
			<g>
				<g>
					<path style="fill:#3F3F3F;" d="M324.637,445.561c-3.949,1.616-3.995,8.447,0.693,8.964c2.838,0.313,5.123-2.619,5.006-5.232
						C330.195,446.175,327.325,444.907,324.637,445.561c-0.939,0.229-0.541,1.676,0.398,1.447c2.06-0.502,3.717,0.428,3.818,2.681
						c0.093,2.061-2.221,3.772-4.132,3.201c-2.506-0.749-1.669-5.071,0.314-5.882C325.918,446.647,325.532,445.195,324.637,445.561
						L324.637,445.561z"/>
				</g>
			</g>
			<g>
				<g>
					<path style="fill:#3F3F3F;" d="M340.137,455.061c-3.949,1.616-3.995,8.447,0.693,8.964c2.838,0.313,5.123-2.619,5.006-5.232
						C345.695,455.675,342.825,454.407,340.137,455.061c-0.939,0.229-0.541,1.676,0.398,1.447c2.06-0.502,3.717,0.428,3.818,2.681
						c0.093,2.061-2.221,3.772-4.132,3.201c-2.506-0.749-1.669-5.071,0.314-5.882C341.418,456.147,341.032,454.695,340.137,455.061
						L340.137,455.061z"/>
				</g>
			</g>
			<g>
				<g>
					<path style="fill:#3F3F3F;" d="M325.397,471.629c5.877-11.912,12.464-23.443,19-35c0.477-0.844-0.819-1.6-1.295-0.758
						c-6.537,11.558-13.123,23.089-19,35C323.676,471.735,324.97,472.496,325.397,471.629L325.397,471.629z"/>
				</g>
			</g>
		</g>
		<g style="clip-path:url(#SVGID_00000126290277741947097370000011863945022321965998_);">
			<g>
				<g>
					<path style="fill:#3F3F3F;" d="M23.637,147.561c-3.949,1.616-3.995,8.447,0.693,8.964c2.838,0.313,5.123-2.619,5.006-5.232
						C29.195,148.175,26.325,146.907,23.637,147.561c-0.939,0.23-0.541,1.676,0.399,1.447c2.059-0.502,3.717,0.428,3.818,2.681
						c0.093,2.062-2.221,3.772-4.132,3.201c-2.506-0.749-1.669-5.071,0.313-5.882C24.918,148.648,24.532,147.195,23.637,147.561
						L23.637,147.561z"/>
				</g>
			</g>
			<g>
				<g>
					<path style="fill:#3F3F3F;" d="M39.137,157.061c-3.949,1.616-3.995,8.447,0.693,8.964c2.838,0.313,5.123-2.619,5.006-5.232
						C44.695,157.675,41.825,156.407,39.137,157.061c-0.939,0.23-0.541,1.676,0.398,1.447c2.06-0.502,3.717,0.428,3.818,2.681
						c0.093,2.062-2.221,3.772-4.132,3.201c-2.506-0.749-1.669-5.071,0.313-5.882C40.418,158.148,40.032,156.695,39.137,157.061
						L39.137,157.061z"/>
				</g>
			</g>
			<g>
				<g>
					<path style="fill:#3F3F3F;" d="M24.397,173.629c5.877-11.912,12.464-23.443,19-35c0.477-0.844-0.819-1.6-1.295-0.758
						c-6.537,11.558-13.123,23.089-19,35C22.676,173.735,23.97,174.496,24.397,173.629L24.397,173.629z"/>
				</g>
			</g>
		</g>
		<g style="clip-path:url(#SVGID_00000126290277741947097370000011863945022321965998_);">
			<g>
				<g>
					<path style="fill:#3F3F3F;" d="M124.417,522.333c-0.408-18.36-3.01-36.686-5.798-54.814c-0.294-1.908-0.599-3.814-0.905-5.721
						c-0.595-3.695,0.591-3.831,4.044-4.934c5.279-1.685,10.799-2.616,16.186-3.88c5.235-1.229,10.241-3.193,15.322-4.921
						c2.257-0.767,4.544-1.404,6.857-1.975c1.813-0.447,3.009,6.522,3.353,7.673c3.093,10.352,6.44,20.625,10.457,30.658
						c3.1,7.742,7.655,14.851,10.7,22.557c1.798,4.551-5.929,4.416-8.832,5.299c-5.343,1.625-10.73,2.934-16.205,4.034
						c-11.825,2.375-23.921,4.15-35.929,5.273c-0.955,0.089-0.963,1.59,0,1.5c11.555-1.079,23.092-2.844,34.496-4.972
						c6.092-1.138,12.119-2.546,18.037-4.388c3.672-1.143,7.047-1.517,10.513-3.41c0.284-0.155,0.446-0.536,0.345-0.847
						c-3.051-9.391-8.663-17.917-12.345-27.112c-4.898-12.234-8.615-24.92-12.322-37.554c-0.12-0.41-0.518-0.609-0.922-0.524
						c-7.591,1.596-14.655,4.809-22.124,6.814c-7.768,2.086-15.688,3.22-23.209,6.186c-0.412,0.163-0.597,0.484-0.524,0.923
						c3.511,21.17,6.829,42.645,7.307,64.134C122.938,523.299,124.438,523.301,124.417,522.333L124.417,522.333z"/>
				</g>
			</g>
			<g>
				<g>
					<path style="fill:#3F3F3F;" d="M135.75,520.333c-0.085-14.953-2.01-29.787-6.027-44.199c-0.259-0.931-1.706-0.535-1.446,0.398
						c3.981,14.285,5.889,28.979,5.973,43.801C134.255,521.3,135.755,521.301,135.75,520.333L135.75,520.333z"/>
				</g>
			</g>
			<g>
				<g>
					<path style="fill:#3F3F3F;" d="M151.083,517.666c-1.411-18.666-5.229-36.935-13.769-53.712
						c-0.439-0.862-1.733-0.103-1.295,0.758c8.424,16.549,12.172,34.543,13.564,52.954
						C149.656,518.624,151.156,518.631,151.083,517.666L151.083,517.666z"/>
				</g>
			</g>
			<g>
				<g>
					<path style="fill:#3F3F3F;" d="M164.723,515.467c-4.453-17.011-9.636-33.815-15.667-50.333
						c-0.329-0.901-1.779-0.512-1.446,0.398c6.031,16.519,11.214,33.323,15.667,50.333
						C163.521,516.801,164.968,516.403,164.723,515.467L164.723,515.467z"/>
				</g>
			</g>
			<g>
				<g>
					<path style="fill:#3F3F3F;" d="M177.314,511.287c-3.124-7.042-4.538-14.705-7.156-21.938
						c-2.685-7.416-5.725-14.689-8.102-22.216c-0.29-0.919-1.738-0.526-1.446,0.398c2.56,8.105,5.833,15.95,8.725,23.939
						c2.461,6.796,3.743,13.943,6.684,20.574C176.411,512.928,177.703,512.163,177.314,511.287L177.314,511.287z"/>
				</g>
			</g>
			<g>
				<g>
					<path style="fill:#3F3F3F;" d="M117.667,462.75c8.074-0.927,15.693-3.677,23.602-5.391c7.417-1.607,14.979-2.44,21.776-6.046
						c0.855-0.453,0.097-1.748-0.757-1.295c-6.64,3.521-14.147,4.427-21.418,5.895c-7.807,1.576-15.251,4.424-23.203,5.337
						C116.718,461.359,116.707,462.86,117.667,462.75L117.667,462.75z"/>
				</g>
			</g>
		</g>
		<g style="clip-path:url(#SVGID_00000126290277741947097370000011863945022321965998_);">
			<g>
				<g>
					<path style="fill:#3F3F3F;" d="M485,70.25c-18.16,1.247-29.451,15.992-31.359,33.283c-0.876,7.939,0.599,16.805,5.656,23.195
						c6.513,8.228,17.705,13.711,28.036,14.901c9.922,1.144,21.891-3.922,29.101-10.643c5.134-4.785,7.954-11.574,8.91-18.418
						c1.972-14.12-4.561-29-16.277-37.053C502.039,70.685,493.338,69.316,485,70.25c-0.95,0.106-0.961,1.607,0,1.5
						c16.656-1.866,31.005,7.128,36.831,22.801c5.215,14.029,1.757,31.063-11.498,39.198c-5.843,3.586-12.718,5.952-19.55,6.445
						c-6.646,0.479-13.308-2.418-19.115-5.349c-9.654-4.871-15.646-13.388-16.615-24.119C453.362,92.009,465.371,73.098,485,71.75
						C485.96,71.684,485.966,70.184,485,70.25L485,70.25z"/>
				</g>
			</g>
			<g>
				<g>
					<path style="fill:#3F3F3F;" d="M477.02,73.045c4.078,5.775,16.913,5.938,19.371-1.513c0.304-0.921-1.146-1.313-1.447-0.398
						c-2.019,6.122-13.312,5.851-16.629,1.154C477.762,71.505,476.46,72.253,477.02,73.045L477.02,73.045z"/>
				</g>
			</g>
			<g>
				<g>
					<path style="fill:#3F3F3F;" d="M487.917,76.667c-0.208,21.075,3.548,41.935,3.667,63c0.006,0.967,1.506,0.967,1.5,0
						c-0.119-21.065-3.875-41.925-3.667-63C489.427,75.699,487.927,75.7,487.917,76.667L487.917,76.667z"/>
				</g>
			</g>
			<g>
				<g>
					<path style="fill:#3F3F3F;" d="M480.621,75.02c-8.306,5.36-12.445,14.906-15.109,24.073
						c-3.275,11.272-3.564,22.746,1.175,33.62c0.386,0.885,1.678,0.121,1.295-0.757c-4.438-10.183-4.048-20.561-1.378-31.157
						c2.312-9.171,6.545-19.172,14.775-24.483C482.188,75.792,481.436,74.493,480.621,75.02L480.621,75.02z"/>
				</g>
			</g>
			<g>
				<g>
					<path style="fill:#3F3F3F;" d="M493.47,75.53c9.458,9.049,16.036,20.256,18.839,33.074c0.941,4.306,0.867,8.814,0.682,13.193
						c-0.161,3.789-0.237,8.982-2.638,12.157c-0.584,0.772,0.72,1.518,1.295,0.757c2.154-2.848,2.35-7.014,2.676-10.438
						c0.454-4.769,0.473-9.732-0.266-14.473c-2.113-13.564-9.73-25.957-19.527-35.331C493.832,73.801,492.77,74.86,493.47,75.53
						L493.47,75.53z"/>
				</g>
			</g>
		</g>
		<path style="clip-path:url(#SVGID_00000126290277741947097370000011863945022321965998_);fill:#3F3F3F;" d="M246.586,169.701
			c-0.385-3.77-3.483-7.26-6.989-8.526c-1.877-0.678-3.678-0.8-5.462-0.621c-0.874-2.716-1.731-5.437-2.531-8.176
			c-0.389-1.333-0.872-2.681-1.365-4.038c2.001,0.11,3.98,0.527,5.729,1.146c2.073,0.733,2.957-2.554,0.904-3.28
			c-2.532-0.895-5.216-1.331-7.833-1.265c-0.608-1.822-1.124-3.654-1.349-5.485c-0.264-2.148-3.669-2.174-3.401,0
			c0.25,2.036,0.844,3.946,1.504,5.842c-1.327,0.264-2.61,0.668-3.815,1.231c-0.631-2.048-1.244-4.102-1.831-6.165
			c-0.6-2.105-3.882-1.21-3.28,0.904c0.678,2.382,1.393,4.752,2.128,7.116c-1.767,1.423-3.232,3.299-4.233,5.676
			c-1.412,3.351-0.225,6.879,2.021,9.484c2.115,2.453,5.081,2.934,8.033,2.608c1.494,4.474,2.97,8.952,4.36,13.458
			c-3.542-0.344-6.84-1.885-8.521-4.96c-1.052-1.925-3.989-0.208-2.937,1.716c2.342,4.285,7.312,6.415,12.48,6.622
			c0.647,2.184,1.271,4.375,1.86,6.577c0.566,2.117,3.847,1.218,3.28-0.904c-0.521-1.948-1.069-3.887-1.636-5.82
			c1.236-0.157,2.449-0.425,3.61-0.797c0.594,2.258,1.124,4.535,1.549,6.841c0.397,2.155,3.675,1.24,3.28-0.904
			c-0.453-2.458-1.028-4.884-1.67-7.292C244.426,178.491,247.105,174.772,246.586,169.701z M220.319,162.117
			c-3.13-1.749-3.188-5.486-1.73-8.264c0.415-0.793,0.913-1.488,1.474-2.093c1.191,3.717,2.424,7.421,3.663,11.124
			C222.571,162.93,221.429,162.738,220.319,162.117z M227.093,162.244c-1.404-4.197-2.805-8.395-4.144-12.614
			c1.222-0.602,2.565-0.978,3.957-1.169c0.135,0.396,0.267,0.794,0.392,1.196c1.195,3.833,2.296,7.693,3.486,11.529
			c-1.145,0.295-2.296,0.646-3.471,0.994C227.239,162.203,227.166,162.223,227.093,162.244z M232.722,179.56
			c-1.44-4.714-2.984-9.396-4.545-14.073c1.241-0.331,2.457-0.704,3.654-1.003c1.54,4.743,3.164,9.459,4.559,14.239
			C235.234,179.128,233.992,179.414,232.722,179.56z M239.487,177.171c-1.285-4.359-2.75-8.668-4.177-12.985
			c-0.026-0.079-0.05-0.158-0.077-0.237c1.982-0.062,3.92,0.439,5.835,2.13C245.011,169.559,243.133,174.621,239.487,177.171z"/>
		<g style="clip-path:url(#SVGID_00000126290277741947097370000011863945022321965998_);">
			<g>
				<g>
					<path style="fill:#3F3F3F;" d="M231.551,10.723c12.674,4.557,24.924,9.835,37.902,13.528
						c10.586,3.012,20.903,6.862,31.555,9.65c1.931,0.505,2.855-0.372,2.31,1.56c-0.339,1.197-0.693,2.391-1.047,3.583
						c-1.015,3.428-2.06,6.848-3.103,10.268c-2.592,8.492-5.214,16.974-7.818,25.462c-2.281,7.434-4.566,14.868-6.747,22.332
						c-0.311,1.063-0.614,2.127-0.914,3.193c-0.402,1.432-0.185,0.885-2.033,0.478c-4.202-0.925-8.345-2.16-12.466-3.389
						c-3.889-1.159-7.758-2.398-11.568-3.796c-1.114-0.409-3.141-0.6-3.012-1.948c0.164-1.706,0.302-3.415,0.444-5.124
						c0.633-7.585,1.057-15.211,1.947-22.771c0.092-0.781-1.04-0.966-1.398-0.378c-1.184,1.945-15.371,22.916-14.891,23.152
						c-5.526-2.721-11.268-5.026-16.906-7.505c-5.003-2.199-10.302-4.285-14.86-7.342c-1.936-1.298,0.164-4.684,0.839-6.557
						c6.66-18.467,14.218-36.992,22.613-54.742c0.411-0.869-0.882-1.631-1.295-0.757c-7.95,16.806-14.867,34.308-21.488,51.67
						c-1.069,2.803-2.206,5.633-2.953,8.543c-0.511,1.99,1.015,2.84,2.572,3.812c9.73,6.069,21.124,9.447,31.387,14.5
						c0.345,0.17,0.836,0.116,1.026-0.269c4.173-8.492,10.347-15.701,15.25-23.75c-0.466-0.126-0.932-0.252-1.397-0.378
						c-1.135,9.634-1.521,19.35-2.5,29c-0.025,0.247,0.158,0.536,0.371,0.647c4.424,2.325,9.503,3.628,14.254,5.086
						c5.287,1.623,10.701,3.364,16.176,4.239c0.401,0.064,0.808-0.097,0.923-0.524c6.156-22.858,14.366-45.138,20.5-68
						c0.103-0.386-0.126-0.824-0.524-0.922c-10.681-2.626-21.004-6.316-31.521-9.496c-14.037-4.245-27.444-9.547-41.229-14.504
						C231.037,8.949,230.647,10.398,231.551,10.723L231.551,10.723z"/>
				</g>
			</g>
			<g>
				<g>
					<path style="fill:#3F3F3F;" d="M229.622,14.898c10.165,4.523,20.996,7.864,31.514,11.442
						c13.541,4.605,27.492,9.844,41.665,12.134c0.945,0.153,1.352-1.292,0.398-1.446c-13.402-2.166-26.569-7.059-39.393-11.366
						c-11.152-3.746-22.663-7.269-33.428-12.058C229.503,13.213,228.739,14.505,229.622,14.898L229.622,14.898z"/>
				</g>
			</g>
			<g>
				<g>
					<path style="fill:#3F3F3F;" d="M242.777,30.051c-2.163,5.342-4.177,10.927-8.238,15.162
						c-4.438,4.627-12.411,2.392-17.589,0.314c-0.898-0.36-1.285,1.091-0.398,1.446c5.542,2.224,12.781,3.946,18.006,0.201
						c5.178-3.712,7.385-11.087,9.667-16.725C244.586,29.552,243.135,29.166,242.777,30.051L242.777,30.051z"/>
				</g>
			</g>
			<g>
				<g>
					<path style="fill:#3F3F3F;" d="M285.102,41.872c-3.778,5.145-6.482,12.872-6.014,19.279c0.476,6.484,8.618,8.894,13.712,10.323
						c0.933,0.262,1.328-1.186,0.398-1.446c-5.67-1.59-12.763-3.794-12.666-10.879c0.076-5.521,2.631-12.116,5.864-16.52
						C286.971,41.848,285.668,41.101,285.102,41.872L285.102,41.872z"/>
				</g>
			</g>
			<g>
				<g>
					<path style="fill:#3F3F3F;" d="M208.372,67.897c11.102,6.246,23.705,9.146,34.75,15.5c0.84,0.483,1.595-0.813,0.757-1.295
						c-11.047-6.354-23.648-9.255-34.75-15.5C208.285,66.127,207.529,67.423,208.372,67.897L208.372,67.897z"/>
				</g>
			</g>
			<g>
				<g>
					<path style="fill:#3F3F3F;" d="M254.121,89.147c8.872,5.927,19.9,7.116,29.93,10.076c0.93,0.274,1.324-1.173,0.398-1.446
						c-9.898-2.921-20.817-4.077-29.57-9.924C254.071,87.313,253.321,88.613,254.121,89.147L254.121,89.147z"/>
				</g>
			</g>
			<path style="fill:#3F3F3F;" d="M243.079,84.131c0.459-0.823-0.117-1.881-1.079-1.881h-0.881c-0.092-0.217-0.247-0.42-0.488-0.579
				c-3.226-2.127-6.93-3.296-10.25-5.25c-0.613-0.361-1.199-0.144-1.546,0.282c-3.341-1.948-6.771-3.738-10.204-5.532
				c-0.63-0.33-1.21-0.128-1.545,0.284c-0.317-0.179-0.632-0.364-0.955-0.534c-0.346-0.182-0.681-0.19-0.971-0.092
				c-1.494-0.829-3.051-1.531-4.529-2.158c-0.262-0.111-0.546-0.14-0.813-0.106c-0.277-0.264-0.545-0.54-0.787-0.845
				c-0.601-0.758-1.654,0.311-1.061,1.061c0.004,0.005,0.008,0.009,0.012,0.013c-0.347,0.294-0.549,0.774-0.437,1.289
				c0.296,1.361,0.9,1.822,2.075,2.497c0.328,0.188,0.692,0.195,1.014,0.083c3.331,3.742,8.349,5.509,12.736,7.667
				c0.809,0.397,1.562-0.106,1.813-0.751c0.278,0.167,0.56,0.328,0.84,0.491c-0.14,0.474-0.002,0.991,0.597,1.26
				c2.729,1.227,5.51,2.313,8,4c0.689,0.467,1.352,0.117,1.654-0.453c1.156,0.816,2.329,1.603,3.596,2.203
				c0.605,0.287,1.358,0.184,1.71-0.448c0.114-0.204,0.239-0.4,0.36-0.6c0.892,0.069,1.552-1.054,1.127-1.879
				C243.07,84.145,243.075,84.138,243.079,84.131z"/>
			<path style="fill:#3F3F3F;" d="M282.823,97.817c-0.222-0.204-0.509-0.333-0.823-0.317c-0.505,0.026-1.025,0.226-1.5,0.25
				c-0.256,0.013-0.483,0.111-0.684,0.243c-2.855-1.378-6.173-2.417-9.271-2.281c-0.899-0.408-1.789-0.835-2.665-1.291
				c-0.552-0.287-1.077-0.139-1.435,0.191c-2.436-0.988-4.863-1.996-7.321-2.933c-0.229-0.153-0.458-0.267-0.689-0.361
				c-0.504-0.611-0.968-1.252-1.357-1.95c-0.21-0.383-0.648-0.619-1.079-0.619h-0.25c-0.558,0-1.056,0.382-1.205,0.918
				c-0.236,0.842-0.266,1.186-0.295,2.082c-0.019,0.574,0.399,1.034,0.918,1.206c0.65,0.215,1.298,0.441,1.943,0.672
				c0.001,0.002,0.003,0.004,0.005,0.006c0.321,0.382,0.712,0.475,1.067,0.386c7.921,2.938,15.523,6.785,23.984,7.936
				c0.648,0.088,1.373-0.145,1.537-0.873c0.184-0.814,0.263-1.269,0.295-2.082C284.032,98.199,283.439,97.817,282.823,97.817z"/>
		</g>
		<g style="clip-path:url(#SVGID_00000126290277741947097370000011863945022321965998_);">
			<g>
				<g>
					<g>
						<path style="fill:#3F3F3F;" d="M404.175,85.983c-12.98,7.428-27.508,12.535-41.32,18.174
							c-0.307,0.125-0.561,0.361-0.551,0.723c0.409,13.663,2.471,27.406,4.031,40.969c1.686,14.661,3.189,29.438,5.745,43.98
							c0.071,0.404,0.558,0.624,0.923,0.524c14.438-3.944,28.348-10.894,41.954-17.001c11.879-5.331,23.919-10.561,35.476-16.575
							c0.391-0.204,0.428-0.668,0.269-1.026c-1.686-3.803-4.448-7.324-6.712-10.787c-4.504-6.893-9.085-13.736-13.658-20.583
							c-8.444-12.642-17.232-25.135-25.13-38.13c-0.501-0.825-1.799-0.072-1.295,0.757c8.095,13.319,17.107,26.12,25.761,39.077
							c4.67,6.991,9.341,13.981,13.933,21.023c1.431,2.194,2.852,4.395,4.228,6.622c0.409,0.662,0.809,1.33,1.19,2.008
							c0.558,0.991,0.875-0.358-0.222,0.191c-13.476,6.743-27.277,12.906-41.052,19.007c-8.458,3.746-16.96,7.417-25.6,10.729
							c-2.789,1.069-5.602,2.084-8.464,2.94c-0.71,0.212-0.36-0.354-0.599-1.854c-0.263-1.65-0.501-3.304-0.737-4.958
							c-2.958-20.679-5.296-41.477-7.356-62.263c-0.36-3.63-0.7-7.263-0.973-10.901c-0.085-1.131-0.156-2.264-0.2-3.398
							c-0.01-0.241,8.029-3.149,8.781-3.459c10.842-4.47,22.137-8.659,32.337-14.496C405.771,86.798,405.017,85.502,404.175,85.983
							L404.175,85.983z"/>
					</g>
				</g>
				<g>
					<g>
						<path style="fill:#3F3F3F;" d="M376.931,105.219c-2.38,0.807-3.749,2.938-3.19,5.438c0.572,2.558,3.236,3.513,5.526,2.679
							c2.259-0.822,3.37-3.234,2.95-5.516C381.746,105.261,379.143,104.519,376.931,105.219c-0.919,0.29-0.526,1.739,0.398,1.446
							c1.447-0.458,2.895-0.261,3.392,1.346c0.443,1.436-0.316,2.982-1.553,3.727c-3.648,2.198-5.797-3.73-1.839-5.072
							C378.24,106.356,377.85,104.907,376.931,105.219L376.931,105.219z"/>
					</g>
				</g>
				<g>
					<g>
						<path style="fill:#3F3F3F;" d="M395.931,98.469c-2.38,0.807-3.749,2.938-3.19,5.438c0.572,2.558,3.236,3.513,5.526,2.679
							c2.259-0.822,3.37-3.234,2.95-5.516C400.746,98.511,398.143,97.769,395.931,98.469c-0.919,0.29-0.526,1.739,0.398,1.446
							c1.447-0.458,2.895-0.261,3.392,1.346c0.443,1.436-0.316,2.982-1.553,3.727c-3.648,2.198-5.797-3.73-1.839-5.072
							C397.24,99.606,396.85,98.157,395.931,98.469L395.931,98.469z"/>
					</g>
				</g>
				<g>
					<g>
						<path style="fill:#3F3F3F;" d="M380.054,112.381c-0.595-5.522-3.497-10.358-5.188-15.576
							c-1.388-4.284-0.852-8.27,1.965-11.841c1.99-2.522,4.635-3.476,7.455-1.806c7.426,4.396,8.884,15.709,12.87,22.601
							c0.483,0.837,1.78,0.082,1.295-0.757c-4.158-7.19-6.437-22.426-16.233-24.243c-4.58-0.849-8.057,4.654-9.252,8.226
							c-2.613,7.808,4.777,15.866,5.588,23.395C378.656,113.332,380.157,113.342,380.054,112.381L380.054,112.381z"/>
					</g>
				</g>
				<g>
					<g>
						<path style="fill:#3F3F3F;" d="M372.054,178.381c7.314,0.104,12.169-0.121,17.4-5.548c3.019-3.13,5.428-6.165,9.617-7.865
							c3.936-1.598,8.447-0.552,12.546-1.132c6.584-0.932,9.037-4.702,13.434-9.214c6.593-6.769,14.257-0.529,21.952-2.267
							c0.943-0.213,0.543-1.659-0.398-1.446c-5.807,1.311-12.174-3.121-17.793-0.621c-6.416,2.855-8.758,10.423-15.957,11.871
							c-6.34,1.274-13.04-0.758-18.527,3.685c-2.554,2.068-4.624,4.572-6.896,6.929c-4.352,4.513-9.624,4.191-15.377,4.109
							C371.086,176.867,371.087,178.367,372.054,178.381L372.054,178.381z"/>
					</g>
				</g>
				<g>
					<g>
						<path style="fill:#3F3F3F;" d="M366.804,138.881c10.202-1.14,19.732-4.895,29.244-8.557
							c9.565-3.683,18.845-7.441,27.635-12.795c0.824-0.502,0.071-1.8-0.758-1.295c-8.664,5.278-17.829,9.027-27.275,12.644
							c-9.382,3.591-18.785,7.379-28.846,8.504C365.853,137.487,365.843,138.988,366.804,138.881L366.804,138.881z"/>
					</g>
				</g>
			</g>
			<path style="fill:#3F3F3F;" d="M373.054,130.381c-1.612,0-1.612,2.5,0,2.5S374.666,130.381,373.054,130.381z"/>
			<path style="fill:#3F3F3F;" d="M382.304,127.631c-1.612,0-1.612,2.5,0,2.5S383.916,127.631,382.304,127.631z"/>
			<path style="fill:#3F3F3F;" d="M393.304,124.631c-1.612,0-1.612,2.5,0,2.5S394.916,124.631,393.304,124.631z"/>
			<path style="fill:#3F3F3F;" d="M403.554,120.881c-1.612,0-1.612,2.5,0,2.5S405.166,120.881,403.554,120.881z"/>
			<path style="fill:#3F3F3F;" d="M414.804,115.631c-1.612,0-1.612,2.5,0,2.5S416.416,115.631,414.804,115.631z"/>
			<path style="fill:#3F3F3F;" d="M448.738,154.456c0.122-1.008-0.917-2.069-1.935-2.2c-3.061-0.394-6.124-0.413-9.19-0.361
				c-1.519-0.306-3.028-0.712-4.56-0.889c-0.32-0.037-0.594,0.002-0.828,0.091c-1.825-0.117-3.305,0.115-5.118,1.165
				c-0.377,0.218-0.625,0.491-0.771,0.788c-0.225,0.109-0.439,0.244-0.625,0.448c-0.091,0.1-0.153,0.197-0.22,0.295
				c-0.459,0.327-0.917,0.654-1.385,0.969c-0.367,0.259-0.641,0.607-0.793,0.994c-2.465,1.732-4.707,3.736-6.871,5.831
				c-0.664,0.319-1.303,0.666-1.908,1.05c-4.515,1.416-10.043,0.631-14.479,1.936c-3.704,1.089-6.77,4.027-9.496,6.61
				c-4.73,4.48-9,6.514-15.253,6.588c-0.749-1.116-2.177-0.899-2.917-0.014c-1.066,0.258-2.039,1.483-1.455,2.82
				c0.509,1.164,0.973,2.344,1.5,3.5c0.087,0.19,0.193,0.34,0.308,0.472c-0.125,0.985-0.329,1.954-0.496,2.833
				c-0.274,1.444,1.286,3.17,2.754,2.118c1.244-0.892,2.521-1.722,3.811-2.525c0.485,0.246,1.074,0.307,1.689,0.025
				c9.638-4.413,19.463-8.375,29.302-12.311c0.342-0.137,0.6-0.344,0.798-0.584c2.065-0.811,4.131-1.621,6.202-2.416
				c0.425-0.163,0.732-0.427,0.938-0.74c4.62-1.735,9.22-3.518,13.76-5.449c0.671-0.286,0.959-0.781,0.981-1.306
				c5.252-2.137,10.512-4.254,15.82-6.255C449.869,157.349,450.031,155.13,448.738,154.456z"/>
		</g>
		<g style="clip-path:url(#SVGID_00000126290277741947097370000011863945022321965998_);">
			<g>
				<g>
					<path style="fill:#FF4739;" d="M487,495c-1.75-3-4-5.75-6-8.5c-6.5-9-15.75-23.25-20-28.5c2-0.25,12.75-1.75,16.25-2.25
						c0.25-6.75-1.25-13.25-1.5-20c-9.152,0.989-26.619,3.446-33.283,4.467c-1.102,7.222-1.743,14.007-7.555,19.388
						c-5.972,5.53-15.396,5.758-22.435,2.38c-0.952-0.457-1.597-1.065-2.013-1.742c-0.702-0.523-1.354-1.185-1.948-2.052
						c-0.036-0.054-0.065-0.106-0.099-0.16L408,458.25c-5.25,5-10.75,10-16.75,14.5c-1.25,1.25-4,2.5-4.75,4
						c-1.75,2.5-1.25,0.75,0.25,3.5c2.25,4.25,6.25,9.75,9.5,13C402.5,488.5,408.5,483,415,478.5c1.25,3.5,5.5,15.5,8,22.75
						c1.25,4.25,2.75,8.25,4,12.5c1.25,4.5,7.75,19.5,12.75,18c14.5-4.5,19.25-6.5,36.75-16.25c2.763-1.539,12.5-7.75,15-10
						C493.75,503.5,489,498,487,495z"/>
				</g>
				<g>
					<g>
						<path style="fill:#3F3F3F;" d="M437.22,456.47c-5.448,6.702-13.597,8.901-21.873,6.089c-1.882-0.64-3.688-1.817-5.243-3.032
							c-3.519-2.749,1.084-2.543,3.158-2.065c3.38,0.778,6.21,2.555,9.761,2.661c5.208,0.157,10.849-4.488,13.061-8.92
							c0.517-1.036,0.852-2.168,1.202-3.267c0.244-0.824,0.474-1.652,0.688-2.485c-0.554,2.069,2.773-7.512,3.313-3.447
							c0.663,5.007-1.426,10.622-4.184,14.619c-0.551,0.799,0.75,1.548,1.295,0.758c3.266-4.734,4.253-9.72,4.389-15.377
							c0.039-1.655-1.394-4.162-3.237-2.484c-3.512,3.196-3.355,8.711-5.705,12.656c-2.056,3.451-7.005,6.027-10.821,6.448
							c-3.116,0.345-6.476-1.715-9.362-2.608c-1.906-0.59-5.894-1.432-6.77,1.073c-0.848,2.422,4.43,5.152,5.868,5.941
							c8.785,4.815,19.5,1.908,25.522-5.499C438.885,456.787,437.83,455.719,437.22,456.47L437.22,456.47z"/>
					</g>
				</g>
				<g>
					<g>
						<path style="fill:#3F3F3F;" d="M387.602,476.129c3.054,5.65,7.148,10.632,11.117,15.651c0.6,0.759,1.653-0.311,1.061-1.061
							c-3.893-4.922-7.888-9.808-10.883-15.349C388.438,474.521,387.143,475.277,387.602,476.129L387.602,476.129z"/>
					</g>
				</g>
				<g>
					<g>
						<path style="fill:#3F3F3F;" d="M471.5,436.5c0.558,6.597,1.677,13.133,2,19.75c0.047,0.963,1.547,0.967,1.5,0
							c-0.323-6.617-1.442-13.153-2-19.75C472.919,435.544,471.419,435.535,471.5,436.5L471.5,436.5z"/>
					</g>
				</g>
				<g>
					<g>
						<path style="fill:#3F3F3F;" d="M439.801,467.776c-7.565,3.003-10.493,10.184-8.335,17.872
							c1.945,6.934,8.39,11.955,15.634,10.248C464.321,491.838,457.447,462.774,439.801,467.776
							c-0.93,0.264-0.534,1.711,0.398,1.447c15.786-4.476,21.55,20.402,6.502,25.227c-6.541,2.097-11.893-3.564-13.789-9.2
							c-2.253-6.696,0.736-13.427,7.287-16.026C441.087,468.871,440.7,467.42,439.801,467.776L439.801,467.776z"/>
					</g>
				</g>
			</g>
			<path style="fill:#3F3F3F;" d="M455.641,476.629c-2.818-9.708-15.604-11.392-21.717-3.955c-0.288,0.351-0.426,0.73-0.452,1.104
				c-0.699,0.831-1.276,1.791-1.655,2.906c-2.81,8.282,3.437,20.811,13.468,19.016C453.725,494.19,457.867,484.294,455.641,476.629z
				"/>
		</g>
		<g style="clip-path:url(#SVGID_00000126290277741947097370000011863945022321965998_);">
			<path style="fill:#3F3F3F;" d="M92.806,253.627c-0.164-0.953-0.896-1.471-1.754-1.64c-0.478-0.35-1.072-0.523-1.768-0.394
				c-1.419,0.265-2.386,1.738-1.923,3.14c0.135,0.407,0.358,0.733,0.629,0.999c0.665,1.12,2.017,1.28,3.113,0.76
				c0.221-0.104,0.396-0.232,0.534-0.375C92.459,255.655,93.009,254.81,92.806,253.627z"/>
			<path style="fill:#3F3F3F;" d="M96.008,245.936c-1.301,0.503-2.09,1.63-2.005,3.053c0.012,0.209,0.053,0.408,0.105,0.6
				c0.05,0.463,0.206,0.917,0.505,1.314c0.948,1.255,2.763,1.25,3.853,0.172C100.324,249.234,99.021,244.77,96.008,245.936z"/>
			<path style="fill:#3F3F3F;" d="M100.273,256.801c-0.035-0.316-0.138-0.603-0.291-0.852c-0.177-0.452-0.501-0.833-1.019-1.064
				c-1.769-0.789-3.837,0.508-4.038,2.381c-0.107,0.998,0.505,2.201,1.292,2.789c0.69,0.517,1.592,0.438,2.306,0.018
				C99.573,259.455,100.406,258.034,100.273,256.801z"/>
		</g>
		<g style="clip-path:url(#SVGID_00000126290277741947097370000011863945022321965998_);">
			<path style="fill:#3F3F3F;" d="M357.799,23.691c-0.164-0.953-0.897-1.471-1.754-1.64c-0.478-0.35-1.072-0.524-1.768-0.394
				c-1.419,0.265-2.386,1.738-1.923,3.14c0.135,0.407,0.357,0.733,0.629,0.999c0.664,1.12,2.017,1.28,3.113,0.76
				c0.221-0.104,0.395-0.232,0.533-0.375C357.451,25.72,358.002,24.874,357.799,23.691z"/>
			<path style="fill:#3F3F3F;" d="M361,16c-1.301,0.503-2.09,1.63-2.005,3.053c0.013,0.209,0.053,0.408,0.105,0.6
				c0.05,0.463,0.206,0.917,0.505,1.313c0.947,1.255,2.764,1.251,3.853,0.172C365.316,19.299,364.014,14.835,361,16z"/>
			<path style="fill:#3F3F3F;" d="M365.266,26.865c-0.035-0.316-0.139-0.603-0.291-0.851c-0.178-0.452-0.502-0.833-1.02-1.064
				c-1.77-0.789-3.838,0.508-4.038,2.381c-0.107,0.998,0.505,2.201,1.292,2.789c0.691,0.517,1.593,0.438,2.307,0.019
				C364.566,29.52,365.398,28.099,365.266,26.865z"/>
		</g>
		<g style="clip-path:url(#SVGID_00000126290277741947097370000011863945022321965998_);">
			<path style="fill:#3F3F3F;" d="M368.139,308.96c-0.163-0.953-0.897-1.471-1.754-1.64c-0.478-0.35-1.072-0.523-1.768-0.394
				c-1.42,0.265-2.387,1.738-1.924,3.14c0.135,0.407,0.357,0.733,0.629,0.999c0.665,1.12,2.017,1.28,3.113,0.76
				c0.221-0.104,0.396-0.232,0.534-0.375C367.792,310.988,368.342,310.143,368.139,308.96z"/>
			<path style="fill:#3F3F3F;" d="M371.341,301.269c-1.302,0.503-2.091,1.63-2.005,3.053c0.012,0.209,0.053,0.407,0.105,0.601
				c0.05,0.463,0.205,0.916,0.504,1.313c0.948,1.256,2.764,1.251,3.854,0.173C375.657,304.567,374.353,300.103,371.341,301.269z"/>
			<path style="fill:#3F3F3F;" d="M375.605,312.134c-0.034-0.316-0.138-0.602-0.291-0.852c-0.177-0.452-0.502-0.833-1.02-1.063
				c-1.768-0.789-3.837,0.508-4.037,2.381c-0.107,0.998,0.505,2.201,1.292,2.789c0.69,0.517,1.593,0.438,2.306,0.018
				C374.906,314.788,375.739,313.367,375.605,312.134z"/>
		</g>
		<g style="clip-path:url(#SVGID_00000126290277741947097370000011863945022321965998_);">
			<path style="fill:#3F3F3F;" d="M36.526,383.06c-0.163-0.953-0.896-1.471-1.754-1.64c-0.478-0.35-1.072-0.523-1.768-0.393
				c-1.42,0.265-2.387,1.738-1.924,3.14c0.135,0.407,0.357,0.733,0.629,0.999c0.665,1.12,2.018,1.28,3.113,0.76
				c0.221-0.104,0.396-0.232,0.534-0.375C36.18,385.088,36.729,384.242,36.526,383.06z"/>
			<path style="fill:#3F3F3F;" d="M39.729,375.368c-1.302,0.503-2.091,1.63-2.005,3.053c0.012,0.209,0.053,0.407,0.106,0.601
				c0.05,0.463,0.205,0.916,0.504,1.313c0.948,1.256,2.764,1.251,3.854,0.173C44.045,378.667,42.741,374.203,39.729,375.368z"/>
			<path style="fill:#3F3F3F;" d="M43.993,386.233c-0.034-0.316-0.138-0.603-0.291-0.852c-0.177-0.452-0.502-0.833-1.02-1.063
				c-1.768-0.789-3.837,0.508-4.037,2.381c-0.107,0.998,0.505,2.201,1.292,2.789c0.69,0.517,1.593,0.438,2.306,0.018
				C43.294,388.888,44.127,387.467,43.993,386.233z"/>
		</g>
	</g>
</g>
</svg>
