<?xml version="1.0" encoding="utf-8"?>
<!-- Generator: Adobe Illustrator 27.5.0, SVG Export Plug-In . SVG Version: 6.00 Build 0)  -->
<svg version="1.1" xmlns="http://www.w3.org/2000/svg" xmlns:xlink="http://www.w3.org/1999/xlink" x="0px" y="0px"
	 viewBox="0 0 500 500" style="enable-background:new 0 0 500 500;" xml:space="preserve">
<g id="BACKGROUND">
	<rect y="0" style="fill:#FFFFFF;" width="500" height="500"/>
</g>
<g id="OBJECTS">
	<g>
		<g>
			<g>
				
					<ellipse transform="matrix(0.7071 -0.7071 0.7071 0.7071 -103.5535 250.0001)" style="fill:#2C1233;" cx="250" cy="250" rx="111.741" ry="111.741"/>
				<g>
					<path style="fill:#2C1233;" d="M192.189,147.016c-21.66,16.455-42.4,36.001-51.237,62.463
						c-8.926,26.725-5.502,56.292,6.212,81.592c11.542,24.929,31.023,47.074,53.594,62.639c11.463,7.905,24.26,13.123,38.283,13.656
						c15.136,0.576,30.321-3.193,44.873-6.932c13.063-3.356,26.313-7.758,37.357-15.725c10.798-7.79,18.171-18.657,23.558-30.7
						c11.934-26.682,20.397-57.445,17.688-86.865c-2.476-26.886-14.702-51.114-36.808-67.01
						c-21.703-15.607-49.143-22.786-75.239-26.647c-26.012-3.849-56.921-1.569-73.887,21.431
						c-4.169,5.651-6.744,12.217-9.306,18.701c-2.959,7.488-6.551,14.458-10.376,21.53c-6.977,12.902-10.654,26.273-11.79,40.891
						c-0.605,7.792-0.613,15.614-0.615,23.425c-0.001,2.7,4.18,2.703,4.195,0c0.083-14.415,0.123-29.104,3.931-43.117
						c3.656-13.452,11.982-24.759,17.209-37.562c5.318-13.028,10.194-24.807,22.485-32.719c11.442-7.366,25.025-10.036,38.478-9.936
						c14.118,0.105,28.246,2.814,41.929,6.146c11.83,2.88,23.524,6.625,34.485,11.971c23.113,11.271,40.632,29.65,47.663,54.737
						c7.659,27.33,2.723,56.002-5.986,82.448c-4.202,12.762-8.888,25.883-16.838,36.855c-8.154,11.253-20.002,18.572-32.848,23.4
						c-12.105,4.549-24.97,7.607-37.67,9.957c-14.528,2.687-29.409,3.229-43.309-2.474c-12.531-5.141-23.423-13.905-33.231-23.085
						c-9.491-8.883-18.06-18.781-25.164-29.681c-16.627-25.51-24.746-56.86-18.081-87.006c6.733-30.456,29.153-51.165,51.129-71.5
						C193.329,147.475,192.705,146.625,192.189,147.016L192.189,147.016z"/>
				</g>
				<g>
					<path style="fill:#2C1233;" d="M169.435,167.43c10.317-10.726,22.061-19.328,36.446-23.687
						c7.588-2.299,15.497-3.244,23.415-2.932c8.579,0.338,16.01,3.099,24.237,4.923c1.489,0.33,2.432-1.689,1.057-2.506
						c-6.99-4.15-16.41-5.389-24.422-5.802c-8.466-0.436-17.065,0.629-25.166,3.128c-14.385,4.437-27.891,13.737-36.027,26.521
						C168.796,167.356,169.205,167.669,169.435,167.43L169.435,167.43z"/>
				</g>
				<g>
					<path style="fill:#2C1233;" d="M177.338,161.79c0.424,2.031,1.56,4.409,3.424,5.491c0.379,0.22,0.732-0.276,0.455-0.589
						c-0.684-0.771-1.427-1.411-1.98-2.299c-0.543-0.871-0.904-1.815-1.129-2.814C177.994,161.077,177.234,161.29,177.338,161.79
						L177.338,161.79z"/>
				</g>
				<g>
					<path style="fill:#2C1233;" d="M178.563,157.963c0.82,2.129,1.771,4.216,2.971,6.16c0.432,0.7,1.738,2.195,2.199,0.605
						c0.051-0.177-0.004-0.374-0.133-0.504c-0.042-0.042-0.083-0.084-0.125-0.126c-0.336-0.338-0.894,0.008-0.783,0.456
						c0.11-0.475,0.005-0.879-0.316-1.213c-0.181-0.28-0.36-0.561-0.538-0.842c-0.311-0.493-0.617-0.988-0.908-1.493
						c-0.624-1.08-1.183-2.19-1.702-3.324C179.058,157.313,178.415,157.578,178.563,157.963L178.563,157.963z"/>
				</g>
				<g>
					<path style="fill:#2C1233;" d="M180.792,154.947c0.334,1.459,0.977,2.883,1.51,4.282c0.437,1.146,0.708,2.5,1.6,3.37
						c0.339,0.331,0.974,0.099,0.96-0.398c-0.036-1.255-0.833-2.362-1.384-3.469c-0.669-1.342-1.282-2.783-2.129-4.02
						C181.156,154.43,180.713,154.6,180.792,154.947L180.792,154.947z"/>
				</g>
				<g>
					<path style="fill:#2C1233;" d="M183.231,152.423c0.43,2.414,1.131,5.626,2.723,7.584c0.645,0.793,2.517,1.664,2.756,0.066
						c0.07-0.469-0.406-0.767-0.784-0.456c-1.117,0.919-3.904-6.623-4.109-7.357C183.711,151.878,183.163,152.042,183.231,152.423
						L183.231,152.423z"/>
				</g>
				<g>
					<path style="fill:#2C1233;" d="M188.316,149.873c0.483,1.649,0.962,3.299,1.47,4.94c0.412,1.331,0.647,2.764,1.522,3.866
						c0.305,0.385,0.914,0.047,0.92-0.381c0.022-1.43-0.757-2.822-1.253-4.147c-0.568-1.516-1.165-3.021-1.755-4.528
						C189.006,149.076,188.143,149.281,188.316,149.873L188.316,149.873z"/>
				</g>
				<g>
					<path style="fill:#2C1233;" d="M192.112,147.755c0.302,1.436,0.646,2.863,1.061,4.271c0.342,1.157,0.618,2.396,1.405,3.328
						c0.327,0.387,1.057,0.08,1.02-0.423c-0.09-1.232-0.758-2.381-1.201-3.528c-0.496-1.286-0.935-2.591-1.336-3.91
						C192.876,146.884,191.982,147.137,192.112,147.755L192.112,147.755z"/>
				</g>
				<g>
					<path style="fill:#2C1233;" d="M195.579,147.19c0.307,2.4,0.696,5.04,1.761,7.235c0.343,0.707,1.332,0.182,1.199-0.506
						c-0.442-2.302-1.391-4.602-2.063-6.851C196.336,146.599,195.511,146.66,195.579,147.19L195.579,147.19z"/>
				</g>
				<g>
					<path style="fill:#2C1233;" d="M198.065,145.495c0.187,1.985,0.404,4.835,1.763,6.392c0.321,0.368,1.081,0.092,1.02-0.423
						c-0.121-1.021-0.668-1.923-1.003-2.891c-0.363-1.047-0.632-2.118-0.836-3.207C198.91,144.841,198.014,144.954,198.065,145.495
						L198.065,145.495z"/>
				</g>
				<g>
					<path style="fill:#2C1233;" d="M200.632,143.919c0.444,2,0.747,4.113,1.419,6.049c0.292,0.84,1.516,0.508,1.333-0.368
						c-0.42-2.006-1.246-3.974-1.894-5.918C201.31,143.139,200.508,143.358,200.632,143.919L200.632,143.919z"/>
				</g>
				<g>
					<path style="fill:#2C1233;" d="M203.595,143.367c0.089,2.094,0.458,4.16,1.233,6.113c0.269,0.679,1.38,0.383,1.108-0.305
						c-0.748-1.886-1.28-3.783-1.473-5.808C204.41,142.821,203.57,142.8,203.595,143.367L203.595,143.367z"/>
				</g>
				<g>
					<path style="fill:#2C1233;" d="M206.726,141.655c-0.034,1.264,0.138,2.49,0.524,3.696c0.312,0.977,0.678,2.246,1.587,2.799
						c0.311,0.189,0.845-0.049,0.794-0.455c-0.128-1.001-0.86-1.808-1.243-2.741c-0.447-1.088-0.709-2.243-0.879-3.405
						C207.442,141.092,206.738,141.223,206.726,141.655L206.726,141.655z"/>
				</g>
				<g>
					<path style="fill:#2C1233;" d="M212.532,140.94c0.23,1.423,0.288,3.064,0.864,4.392c0.205,0.472,0.909,0.201,0.917-0.248
						c0.026-1.437-0.571-2.996-0.9-4.386C213.276,140.114,212.44,140.372,212.532,140.94L212.532,140.94z"/>
				</g>
				<g>
					<path style="fill:#2C1233;" d="M215.12,140.38c0.011,1.055,0.113,2.102,0.327,3.135c0.187,0.899,0.349,1.927,1.143,2.468
						c0.394,0.269,0.796-0.104,0.846-0.486c0.113-0.853-0.504-1.706-0.775-2.501c-0.304-0.893-0.508-1.807-0.645-2.739
						C215.942,139.742,215.115,139.876,215.12,140.38L215.12,140.38z"/>
				</g>
				<g>
					<path style="fill:#2C1233;" d="M218.809,141.198c-0.073,0.664,0.009,1.404,0.037,2.077c0.027,0.663,0.107,1.364,0.297,1.998
						c0.255,0.847,1.701,0.738,1.611-0.218c-0.067-0.723-0.248-1.44-0.506-2.119c-0.242-0.638-0.417-1.328-0.741-1.928
						C219.315,140.651,218.847,140.857,218.809,141.198L218.809,141.198z"/>
				</g>
				<g>
					<path style="fill:#2C1233;" d="M333.509,169.876c-1.242,0.616-2.231,1.733-3.083,2.8c-0.679,0.85-1.92,2.105-1.554,3.267
						c0.096,0.304,0.437,0.548,0.764,0.434c1.089-0.379,1.452-1.821,2.039-2.737c0.721-1.125,1.668-2.092,2.379-3.219
						C334.28,170.063,333.845,169.71,333.509,169.876L333.509,169.876z"/>
				</g>
				<g>
					<path style="fill:#2C1233;" d="M335.16,173.368c-0.633,0.686-1.227,1.424-1.711,2.223c-0.447,0.738-0.942,1.542-0.783,2.426
						c0.078,0.435,0.639,0.495,0.921,0.243c0.59-0.528,0.746-1.431,1.054-2.136c0.34-0.778,0.737-1.519,1.201-2.232
						C336.108,173.482,335.494,173.005,335.16,173.368L335.16,173.368z"/>
				</g>
				<g>
					<path style="fill:#2C1233;" d="M337.244,176.323c-0.501,0.573-0.993,1.141-1.449,1.751c-0.425,0.568-1.074,1.15-1.064,1.892
						c0.007,0.486,0.483,0.674,0.882,0.506c0.629-0.265,0.899-1.072,1.221-1.635c0.379-0.663,0.708-1.341,1.036-2.031
						C338.051,176.425,337.563,175.959,337.244,176.323L337.244,176.323z"/>
				</g>
				<g>
					<path style="fill:#2C1233;" d="M339.904,178.521c-0.948,0.837-1.689,1.919-2.453,2.921c-0.752,0.986-1.751,1.972-1.999,3.217
						c-0.085,0.428,0.349,0.821,0.757,0.582c1.094-0.64,1.683-1.849,2.365-2.878c0.732-1.105,1.528-2.202,2.035-3.432
						C340.784,178.508,340.185,178.272,339.904,178.521L339.904,178.521z"/>
				</g>
				<g>
					<path style="fill:#2C1233;" d="M342.29,182.635c-1.34,1.36-2.706,2.698-4.006,4.096c-0.722,0.776,0.468,1.953,1.16,1.16
						c1.261-1.444,2.456-2.948,3.674-4.428C343.589,182.893,342.83,182.088,342.29,182.635L342.29,182.635z"/>
				</g>
				<g>
					<path style="fill:#2C1233;" d="M308.708,338.809c0.918,1.514,1.837,3.028,2.755,4.542c0.713,1.176,1.342,2.96,2.625,3.558
						c0.345,0.161,0.833-0.023,0.811-0.466c-0.071-1.431-1.437-2.658-2.269-3.774c-1.065-1.429-2.129-2.857-3.194-4.286
						C309.12,337.959,308.419,338.333,308.708,338.809L308.708,338.809z"/>
				</g>
				<g>
					<path style="fill:#2C1233;" d="M313.815,338.308c0.463,2.105,1.122,4.543,2.464,6.271c0.403,0.519,1.079-0.143,0.847-0.653
						c-0.898-1.97-2.067-3.684-2.768-5.768C314.242,337.815,313.737,337.953,313.815,338.308L313.815,338.308z"/>
				</g>
				<g>
					<path style="fill:#2C1233;" d="M315.581,335.322c0.448,2.692,1.565,6.094,3.764,7.88c0.555,0.45,1.523-0.126,1.068-0.824
						c-0.733-1.124-1.68-2.076-2.364-3.242c-0.745-1.268-1.265-2.623-1.631-4.044C316.275,334.541,315.491,334.783,315.581,335.322
						L315.581,335.322z"/>
				</g>
				<g>
					<path style="fill:#2C1233;" d="M319.803,333.192c0.483,3.005,1.574,6.145,3.72,8.384c0.68,0.71,2.02-0.257,1.399-1.079
						c-1.805-2.387-3.463-4.608-4.373-7.511C320.397,332.502,319.725,332.708,319.803,333.192L319.803,333.192z"/>
				</g>
				<g>
					<path style="fill:#2C1233;" d="M224.474,356.141c-0.136,1.144-0.276,2.287-0.408,3.431c-0.111,0.962-0.416,1.942,0.11,2.806
						c0.173,0.284,0.666,0.418,0.902,0.116c0.635-0.811,0.499-1.689,0.507-2.693c0.01-1.22,0.01-2.44,0.015-3.66
						C225.602,355.399,224.558,355.442,224.474,356.141L224.474,356.141z"/>
				</g>
				<g>
					<path style="fill:#2C1233;" d="M229.631,356.564c-0.253,2.48-0.849,5.186-0.681,7.672c0.047,0.693,1.139,0.945,1.289,0.174
						c0.489-2.502,0.245-5.3,0.306-7.846C230.559,355.965,229.689,355.99,229.631,356.564L229.631,356.564z"/>
				</g>
				<g>
					<path style="fill:#2C1233;" d="M232.337,357.825c0.139,1.22,0.19,2.44,0.065,3.664c-0.114,1.111-0.556,2.193-0.377,3.3
						c0.081,0.505,0.771,0.487,1.007,0.132c0.634-0.954,0.546-2.321,0.536-3.431c-0.012-1.273-0.143-2.53-0.378-3.78
						C233.1,357.236,232.282,357.337,232.337,357.825L232.337,357.825z"/>
				</g>
				<g>
					<path style="fill:#2C1233;" d="M235.209,358.696c-0.044,1.226-0.098,2.449-0.171,3.674c-0.065,1.097-0.285,2.248-0.006,3.317
						c0.158,0.602,1.063,0.603,1.221,0c0.277-1.062,0.059-2.227-0.006-3.317c-0.073-1.224-0.127-2.448-0.171-3.674
						C236.056,358.139,235.229,358.138,235.209,358.696L235.209,358.696z"/>
				</g>
				<g>
					<path style="fill:#2C1233;" d="M238.62,359.123c-0.139,2.378-0.658,5.088-0.256,7.439c0.117,0.682,1.262,0.683,1.379,0
						c0.403-2.353-0.116-5.062-0.256-7.439C239.455,358.565,238.653,358.564,238.62,359.123L238.62,359.123z"/>
				</g>
			</g>
			<text transform="matrix(1 0 0 1 174.3733 237.5456)" style="fill:#FFFFFF; font-family:'Roboto-Black'; font-size:47.6616px;">BLACK</text>
			
				<text transform="matrix(1 0 0 1 172.0305 288.0331)" style="fill:#FFFFFF; font-family:'Nickainley-Normal'; font-size:61.493px;">Friday</text>
			<g>
				<text transform="matrix(1 0 0 1 197.0969 188.1549)" style="fill:#FFFFFF; font-family:'Roboto-Black'; font-size:14.5509px;">Special Offer</text>
			</g>
			<g>
				<path style="fill:#FFC747;" d="M317.993,323.449c-0.177-6.122-1.817-11.389-6.164-15.284
					c-10.902-9.77-27.627-4.286-40.148-3.206c-14.272,1.231-28.574,1.777-42.882,1.681c-10.039-1.38-20.342-1.492-30.241,0.182
					c-9.653,1.633-15.43,7.817-16.245,18.412c-0.084,0.062-0.174,0.12-0.257,0.184c-0.215,0.166-0.089,0.581,0.184,0.493
					c0.014-0.005,0.028-0.01,0.043-0.015c-0.029,0.506-0.061,1.01-0.067,1.536c-0.004,0.344,0.007,0.69,0.009,1.035
					c-0.198,0.126-0.151,0.42,0.005,0.564c0.089,6.22,1.097,12.537,2.118,18.605c0.636,3.779,1.22,7.909,2.107,11.915
					c0.068,3.658,1.23,7.011,3.145,9.644c0.125,0.259,0.247,0.52,0.379,0.773c2.392,4.584,5.945,6.367,10.478,7.125
					c7.192,1.203,14.531,1.728,21.765,2.554c6.911,0.789,13.858,1.67,20.815,1.533c7.456-0.146,14.83-1.622,22.126-3.254
					c4.477-1.001,8.944-2.09,13.44-2.986h21.548c6.472,0,11.894-5.008,13.445-11.78c2.87-5.167,3.767-11.858,3.993-18.486
					C317.828,337.647,318.197,330.476,317.993,323.449z M285.443,307.895c-0.031-0.683-0.109-1.359-0.204-2.033
					c0.908-0.074,1.816-0.138,2.724-0.199c-0.098,0.895-0.141,1.802-0.09,2.693h-2.408
					C285.458,308.202,285.45,308.047,285.443,307.895z M291.713,308.357h-2.847c-0.01-0.927-0.023-1.839,0.029-2.761
					c1.021-0.063,2.041-0.101,3.062-0.142c-0.071,0.868-0.141,1.735-0.212,2.603C291.736,308.156,291.724,308.257,291.713,308.357z
					 M315.075,328.018c-0.334,0.397-0.673,0.789-1.021,1.17v-1.668c0.368-0.314,0.712-0.657,1.041-1.019
					C315.092,327.005,315.085,327.511,315.075,328.018z M314.054,334.063c0.363-0.391,0.696-0.826,0.979-1.29
					c0.005,0.572,0.011,1.151,0.019,1.743c-0.329,0.267-0.66,0.529-0.997,0.782V334.063z M315.027,331.027
					c-0.322,0.492-0.612,0.998-0.973,1.459v-1.61c0.19-0.22,0.376-0.441,0.561-0.66c0.141-0.167,0.283-0.337,0.426-0.508
					C315.033,330.14,315.029,330.578,315.027,331.027z M315.091,325.259c-0.325,0.366-0.673,0.701-1.038,1.013v-2.189
					c0-8.477-5.935-15.369-13.359-15.695c-0.03-0.661-0.067-1.322-0.093-1.98c-0.025-0.628-0.838-0.629-0.863,0
					c-0.026,0.647-0.062,1.298-0.092,1.949h-4.138c0.002-0.051,0.002-0.103,0.004-0.153c0.036-0.816,0.072-1.632,0.108-2.448
					c0.011-0.253-0.14-0.378-0.307-0.39c4.882,0.048,9.767,0.987,13.852,4.223C314.115,313.511,315.028,319.18,315.091,325.259z
					 M295.258,305.366c-0.171,0.014-0.344,0.143-0.366,0.39c-0.073,0.816-0.146,1.632-0.219,2.448
					c-0.005,0.051-0.011,0.102-0.016,0.153h-1.894c0.001-0.038,0.002-0.075,0.004-0.113c0.048-0.936,0.097-1.873,0.145-2.809
					c0-0.009-0.003-0.014-0.003-0.022c0.284-0.009,0.568-0.03,0.853-0.037C294.261,305.364,294.759,305.362,295.258,305.366z
					 M284.346,305.934c0.097,0.716,0.17,1.435,0.189,2.162c0.002,0.086-0.002,0.174-0.003,0.261h-2.789
					c-0.042-0.468-0.097-0.936-0.187-1.405c-0.072-0.38-0.607-0.38-0.679,0c-0.089,0.47-0.145,0.937-0.187,1.405h-20.663
					C268.132,307.758,276.241,306.633,284.346,305.934z M247.162,376.944c0.021,0.242,0.032,0.483,0.045,0.724
					c-0.647,0.062-1.295,0.117-1.944,0.163c-0.109-0.349-0.262-0.693-0.391-1.054c-0.216-0.608-0.414-1.222-0.615-1.836h2.589
					c0,0.02-0.012,0.035-0.009,0.055C246.931,375.652,247.104,376.28,247.162,376.944z M237.903,374.941
					c0.084,1.03,0.249,2.044,0.479,3.049c-0.929-0.011-1.857-0.026-2.786-0.057c0.012-0.972-0.118-1.986-0.284-2.992H237.903z
					 M219.095,306.84c-0.192-0.084-0.392-0.151-0.598-0.204c0.268,0.009,0.535,0.023,0.803,0.034
					C219.224,306.717,219.155,306.774,219.095,306.84z M183.84,321.874c1.462-8.444,7.212-12.452,14.288-13.836
					c5.859-1.146,11.901-1.538,17.963-1.457c-1.567,0.259-3.137,0.987-4.18,1.777h-11.567c-7.295,0-13.267,6.358-13.846,14.441
					c-1.039,0.466-2.044,1.008-2.984,1.609C183.591,323.556,183.695,322.71,183.84,321.874z M183.456,331.26
					c0.979-0.255,1.995-0.5,2.984-0.817v1.121c-1.04,0.203-1.992,0.684-2.857,1.37C183.533,332.376,183.491,331.818,183.456,331.26z
					 M183.357,328.832c1.031-0.324,2.06-0.659,3.083-1.018v1.247c-1.027,0.354-2.046,0.833-3.036,1.267
					C183.381,329.828,183.365,329.329,183.357,328.832z M186.44,324.376v2.141c-1.038,0.448-2.066,0.922-3.09,1.408
					c0.002-0.813,0.03-1.622,0.08-2.427C184.435,325.13,185.432,324.736,186.44,324.376z M183.683,333.981
					c0.861-0.618,1.778-0.991,2.756-1.23v18.502c-0.387-2.046-0.744-4.092-1.085-6.117
					C184.753,341.55,184.077,337.776,183.683,333.981z M205.946,375.379c-1.717-0.154-3.616-0.196-5.472-0.437h33.722
					c0.114,1.009,0.254,2.02,0.509,2.956C225.109,377.523,215.485,376.234,205.946,375.379z M239.255,377.996
					c-0.292-1.002-0.514-2.017-0.651-3.055h2.309c0.189,1.019,0.378,2.039,0.566,3.058c-0.115,0.002-0.23,0.009-0.345,0.01
					C240.508,378.017,239.881,377.999,239.255,377.996z M242.489,377.97c-0.255-1.01-0.509-2.019-0.763-3.029h1.886
					c0.115,0.708,0.228,1.415,0.323,2.128c0.038,0.282,0.063,0.563,0.096,0.838C243.518,377.935,243.004,377.954,242.489,377.97z
					 M248.334,377.558c-0.072-0.342-0.173-0.677-0.275-1.014c-0.163-0.539-0.334-1.094-0.572-1.602h15.74
					C258.29,376.033,253.341,377.012,248.334,377.558z M314.054,353.939v-17.06c0.337-0.351,0.674-0.703,1.015-1.048
					C315.15,341.66,315.222,348.214,314.054,353.939z"/>
				<text transform="matrix(1 0 0 1 206.8616 359.1332)" style="fill:#FFFFFF; font-family:'Roboto-Black'; font-size:45.3994px;">50%</text>
				<text transform="matrix(1 0 0 1 241.6756 370.8256)" style="fill:#FFFFFF; font-family:'Roboto-Black'; font-size:11.1091px;">OFF</text>
				<text transform="matrix(1 0 0 1 234.2124 321.9954)" style="fill:#FFFFFF; font-family:'Roboto-Black'; font-size:11.1091px;">UP TO</text>
			</g>
		</g>
		<g>
			<g>
				<g>
					<path style="fill:#D5C3D9;" d="M212.802,93.019c23.149,1.867,46.33,3.176,69.537,4.098c0.721,0.029,1.509-0.554,1.666-1.268
						c1.89-8.607,2.891-17.37,2.791-26.189c-0.049-4.325-0.357-8.643-0.898-12.934c-0.397-3.145-0.35-7.585-2.163-10.319
						c-1.022-1.541-2.637-2.18-4.379-2.497c-4.558-0.83-9.651-0.303-14.273-0.377c-9.824-0.159-19.648-0.317-29.472-0.476
						c-4.585-0.074-9.169-0.148-13.754-0.222c-3.267-0.053-8.228-1.168-11.247,0.449c-1.912,1.024-2.568,3.07-2.88,5.075
						c-0.676,4.346-0.399,9.024-0.544,13.417c-0.151,4.563-0.295,9.127-0.431,13.691c-0.14,4.68-1.081,10.167-0.333,14.784
						c0.998,6.164,8.542,4.108,13.118,4.099c11.117-0.023,22.238,0.576,33.288,1.798c10.125,1.119,20.166,3.272,30.301,1.125
						c1.878-0.398,1.078-3.241-0.791-2.87c-9.807,1.944-19.736-0.323-29.509-1.417c-9.1-1.019-18.247-1.619-27.402-1.797
						c-2.616-0.051-5.232-0.067-7.848-0.049c-1.402,0.01-4.555,0.7-5.885,0.099c-3.889-1.757-1.788-12.183-1.7-15.772
						c0.112-4.564,0.23-9.127,0.357-13.691c0.054-1.956,0.109-3.912,0.166-5.867c0.065-2.229-0.501-5.943,0.397-8.002
						c1.595-3.659,11.71-1.981,14.875-1.927c4.585,0.077,9.169,0.154,13.754,0.232c9.824,0.166,19.648,0.331,29.472,0.497
						c1.965,0.033,3.93,0.054,5.894,0.099c3.81,0.088,5.511,1.111,6.961,4.854c1.526,3.939,1.348,10.05,1.515,14.293
						c0.383,9.757-0.599,19.448-2.71,28.975c0.555-0.423,1.111-0.846,1.666-1.268c-23.171-0.964-46.346-1.542-69.537-1.556
						C212.206,92.105,212.223,92.972,212.802,93.019L212.802,93.019z"/>
				</g>
				<g>
					<path style="fill:#D5C3D9;" d="M210.091,59.106c11.096,3.597,24.165,1.856,35.601,1.285c12.958-0.647,25.679-0.95,38.476,1.555
						c0.143-1.059,0.287-2.118,0.43-3.177c-24.834,1.27-49.975,0.168-74.737-1.842c-1.82-0.148-1.809,2.687,0,2.836
						c24.928,2.049,49.748,2.306,74.737,2.241c1.79-0.005,2.24-2.751,0.43-3.177c-11.941-2.807-24.362-2.503-36.527-1.826
						c-6.242,0.347-12.478,0.741-18.727,0.948c-6.499,0.215-13.059-0.317-19.536,0.075
						C209.619,58.062,209.487,58.911,210.091,59.106L210.091,59.106z"/>
				</g>
				<g>
					<path style="fill:#D5C3D9;" d="M286.003,69.558c1.187,0.721,2.508,0.474,3.841,0.382c1.675-0.116,3.343-0.317,5.012-0.497
						c1.055-0.114,1.75-1.619,0.597-2.206c-1.097-0.558-2.205-1.09-3.316-1.621c0,0.667,0,1.333,0,1.999
						c1.179-0.844,2.168-1.928,3.368-2.723c0.625-0.414,0.467-1.649-0.422-1.556c-2.978,0.311-5.937,0.678-8.932,0.719
						c-0.543,0.007-1.041,0.377-1.187,0.904c-0.384,1.385,0.283,2.688,1.54,3.37c1.62,0.88,3.386,0.126,4.884-0.637
						c0.949-0.483,0.827-2.273-0.318-2.432c-1.107-0.154-2.217-0.292-3.326-0.433c0,0.886,0,1.772,0,2.659
						c1.016-0.125,1.984-0.096,2.832-0.707c0.767-0.553,0.605-1.562-0.249-1.906c-0.872-0.351-1.668-0.153-2.583-0.045
						c-1.717,0.203-1.697,2.433,0,2.659c0.99,0.132,1.98,0.268,2.972,0.389c-0.224-0.826-0.448-1.653-0.672-2.479
						c-0.625,0.336-2.829,1.508-2.663-0.108c-0.301,0.396-0.603,0.792-0.904,1.187c2.91-0.695,5.867-1.067,8.827-1.497
						c-0.215-0.509-0.429-1.018-0.643-1.526c-1.166,0.843-2.497,1.365-3.694,2.166c-0.68,0.455-0.818,1.576,0,1.999
						c1.092,0.565,2.184,1.127,3.29,1.665c0.199-0.735,0.398-1.47,0.597-2.206c-1.659,0.209-3.322,0.396-4.973,0.659
						c-1.397,0.222-2.896,0.272-3.946,1.307C285.784,69.193,285.824,69.449,286.003,69.558L286.003,69.558z"/>
				</g>
			</g>
			<g>
				<g>
					<path style="fill:#D5C3D9;" d="M278.031,397.442c-0.146,12.499-1.5,25.073-1.007,37.587c0.116,2.953,0.478,6.236,2.641,8.475
						c2.877,2.979,7.618,2.46,11.373,2.44c11.55-0.06,23.115-1.166,34.461-3.331c3.23-0.616,9.489-0.797,11.639-3.957
						c2.458-3.613,0.983-11.319,0.931-15.407c-0.073-5.734-0.251-11.468-0.546-17.195c-0.197-3.832,0.089-8.543-2.471-11.724
						c-2.074-2.577-5.346-3.391-8.495-3.677c-6.42-0.584-13.158-0.025-19.581,0.299c-6.231,0.315-12.452,0.812-18.653,1.495
						c-3.223,0.355-8.843-0.124-10.265,3.589c-1.442,3.767-0.578,9.445-0.714,13.471c-0.215,6.382-0.437,12.763-0.602,19.147
						c-0.112,4.331-0.931,9.935,2.378,13.406c3.003,3.15,8.378,3.326,12.414,3.746c12.409,1.294,25.247-0.743,36.956-4.896
						c0.945-0.335,0.541-1.849-0.418-1.514c-8.113,2.833-16.394,4.407-25.005,4.445c-4.321,0.019-8.658-0.304-12.932-0.939
						c-1.75-0.26-3.818-0.435-5.494-1.076c-4.06-1.552-4.999-4.532-4.935-8.582c0.135-8.547,0.651-17.108,0.941-25.652
						c0.065-1.915,0.13-3.829,0.195-5.744c0.029-0.848-0.187-3.246,0.13-3.829c0.548-1.007,3.383-1.736,4.416-1.991
						c4.332-1.073,9.285-1,13.725-1.335c8.574-0.646,17.415-1.318,26.014-0.87c3.069,0.16,5.315,0.452,7.177,2.951
						c1.548,2.078,1.655,3.916,1.809,6.418c0.293,4.769,0.477,9.548,0.591,14.324c0.099,4.141,0.13,8.283,0.104,12.424
						c-0.016,2.599,0.36,4.301-1.405,6.332c-2.011,2.314-4.908,2.355-7.861,2.924c-8.878,1.71-17.869,2.804-26.9,3.236
						c-4.711,0.225-10.274,1.063-14.756-0.525c-5.097-1.806-3.905-9.418-4.009-13.933c-0.234-10.183-1.006-20.357-1.21-30.529
						C278.656,397.035,278.036,397.034,278.031,397.442L278.031,397.442z"/>
				</g>
				<g>
					<path style="fill:#D5C3D9;" d="M336.602,407.472c-6.866-1.067-14.279-0.308-21.175,0.251c-5.408,0.439-5.946,1.861-6.505,7.033
						c-0.41,3.793-1.115,7.423,3.441,8.17c3.106,0.509,7.15-0.385,10.268-0.59c4.264-0.281,8.544-0.482,12.795-0.911
						c1.248-0.126,1.306-2.029,0-1.992c-4.597,0.128-9.19,0.512-13.78,0.802c-4.13,0.261-12.04,2.135-10.625-4.511
						c1.52-7.144,8.266-6.117,13.976-6.477c3.872-0.243,7.79-0.273,11.605-1.007C336.975,408.169,336.989,407.533,336.602,407.472
						L336.602,407.472z"/>
				</g>
				<g>
					<path style="fill:#D5C3D9;" d="M316.935,413.378c-1.493-0.628-3.063,0.544-3.273,2.093c-0.223,1.645,1.19,2.991,2.663,3.4
						c1.822,0.506,3.714-0.384,5.052-1.587c1.605-1.443,1.493-3.348-0.146-4.747c-3.101-2.646-7.956-0.621-8.457,3.349
						c-0.262,2.078,0.879,3.681,2.98,3.921c1.886,0.216,4.1,0.032,5.575-1.291c1.552-1.392,1.862-3.848,0.708-5.589
						c-1.121-1.692-3.715-2.434-5.467-1.327c-0.986,0.623-0.348,2.117,0.786,1.863c1.122-0.251,2.385-0.317,2.992,0.922
						c0.491,1.002,0.036,2.207-0.886,2.754c-0.854,0.506-2.111,0.455-3.055,0.352c-1.454-0.159-1.374-1.562-0.686-2.546
						c0.548-0.783,1.427-1.229,2.388-1.157c0.965,0.072,2.721,0.901,1.727,1.955c-0.685,0.726-1.624,1.428-2.676,1.38
						c-1.837-0.083-2.541-2.888-0.34-2.893C317.346,414.228,317.36,413.557,316.935,413.378L316.935,413.378z"/>
				</g>
				<g>
					<path style="fill:#D5C3D9;" d="M331.581,408.265c0.453-0.438,0.547-1.199,0.229-1.748c-0.313-0.54-0.808-0.753-1.403-0.823
						c-0.68-0.08-1.206,0.867-0.809,1.411c0.16,0.22,0.224,0.62,0.474,0.965C330.434,408.571,331.101,408.728,331.581,408.265
						L331.581,408.265z"/>
				</g>
				<g>
					<path style="fill:#D5C3D9;" d="M329.618,403.97c-0.116,0.002-0.094-0.005,0.067-0.019c0.137-0.006,0.264-0.047,0.382-0.122
						c0.21-0.123,0.339-0.327,0.477-0.52c0.263-0.368,0.166-1.022-0.17-1.318c-0.214-0.189-0.469-0.358-0.769-0.319
						c-0.577,0.076-1.097,0.437-1.088,1.088c0.007,0.461,0.134,0.843,0.548,1.091c-0.101-0.101-0.202-0.202-0.303-0.303
						c0.025,0.035,0.05,0.07,0.075,0.104C329.007,403.889,329.315,404.078,329.618,403.97L329.618,403.97z"/>
				</g>
				<g>
					<path style="fill:#D5C3D9;" d="M329.148,399.63c-0.039-0.04-0.079-0.08-0.118-0.12c-0.233-0.237-0.609-0.344-0.93-0.246
						c-0.003,0.001-0.005,0.002-0.008,0.003c-0.49,0.012-0.757,0.438-0.678,0.89c-0.005,0.01-0.01,0.019-0.016,0.029
						c-0.033,0.339,0.21,0.651,0.473,0.825c0.047,0.031,0.093,0.062,0.14,0.092C328.916,401.699,329.881,400.377,329.148,399.63
						L329.148,399.63z"/>
				</g>
				<g>
					<path style="fill:#D5C3D9;" d="M323.989,397.289c-0.945-0.557-1.916,0.337-1.299,1.299c0.328,0.512,1.047,0.635,1.491,0.192
						C324.612,398.349,324.517,397.599,323.989,397.289L323.989,397.289z"/>
				</g>
				<g>
					<path style="fill:#D5C3D9;" d="M318.136,396.368c-0.166-0.051-0.33-0.101-0.494-0.159c-0.318-0.113-0.81,0.069-0.953,0.388
						c-0.142,0.318-0.155,0.533,0,0.852c0.147,0.303,0.629,0.516,0.953,0.388c0.163-0.065,0.328-0.122,0.494-0.18
						C318.752,397.442,318.789,396.567,318.136,396.368L318.136,396.368z"/>
				</g>
				<g>
					<path style="fill:#D5C3D9;" d="M312.501,396.82c-0.434-0.516-1.164-0.523-1.712-0.198c-0.553,0.327-0.589,1.199,0,1.518
						c0.556,0.301,1.29,0.31,1.712-0.226C312.777,397.563,312.798,397.172,312.501,396.82L312.501,396.82z"/>
				</g>
				<g>
					<path style="fill:#D5C3D9;" d="M304.12,397.433c0.128,0.033,0.146,0.034,0.055,0.003c-0.058-0.024-0.117-0.041-0.179-0.051
						c-0.177-0.05-0.349-0.079-0.534-0.096c-1.239-0.117-1.28,1.988,0,1.958c0.366-0.008,0.66-0.103,0.933-0.35
						c0.196-0.178,0.253-0.386,0.386-0.603C305.035,397.879,304.608,397.258,304.12,397.433L304.12,397.433z"/>
				</g>
				<g>
					<path style="fill:#D5C3D9;" d="M297.881,398.517c-0.036-0.051-0.071-0.103-0.104-0.157c-0.182-0.283-0.496-0.503-0.847-0.486
						c-0.435,0.021-0.611,0.133-0.944,0.365c-0.453,0.316-0.481,0.944,0,1.255c0.348,0.225,0.516,0.338,0.944,0.343
						c0.345,0.004,0.673-0.19,0.847-0.486c0.033-0.058,0.068-0.115,0.104-0.171C297.997,398.993,298.008,398.702,297.881,398.517
						L297.881,398.517z"/>
				</g>
				<g>
					<path style="fill:#D5C3D9;" d="M292.918,398.835c-0.063-0.051-0.131-0.092-0.205-0.124c-0.811-0.42-1.814,0.359-1.421,1.251
						c0.397,0.904,1.55,0.718,1.882-0.12c0.033-0.068,0.055-0.139,0.067-0.214C293.319,399.303,293.182,399.02,292.918,398.835
						L292.918,398.835z"/>
				</g>
				<g>
					<path style="fill:#D5C3D9;" d="M287.542,400.969c-0.258-0.191-0.504-0.149-0.8-0.1c-1.203,0.198-0.202,2.272,0.749,1.286
						C287.822,401.811,287.985,401.296,287.542,400.969L287.542,400.969z"/>
				</g>
				<g>
					<path style="fill:#D5C3D9;" d="M284.5,405.385c-0.144,0.482-0.129,0.799,0.125,1.239c0.239,0.413,0.901,0.44,1.133,0
						c0.237-0.449,0.261-0.759,0.098-1.239C285.636,404.737,284.706,404.698,284.5,405.385L284.5,405.385z"/>
				</g>
				<g>
					<path style="fill:#D5C3D9;" d="M284.604,411.442c-0.014,0.003-0.027,0.007-0.041,0.01c-0.435,0.105-0.719,0.533-0.733,0.962
						c-0.012,0.379,0.077,0.728,0.19,1.086c0.249,0.79,1.421,0.836,1.65,0c0.098-0.358,0.183-0.711,0.157-1.086
						c-0.029-0.418-0.287-0.87-0.733-0.962C284.925,411.417,284.776,411.401,284.604,411.442L284.604,411.442z"/>
				</g>
				<g>
					<path style="fill:#D5C3D9;" d="M284.296,416.005c-0.139,0.063-0.247,0.158-0.341,0.277c-0.3,0.383-0.384,0.79-0.159,1.236
						c0.024,0.047,0.047,0.094,0.071,0.141c0.3,0.596,1.337,0.634,1.626,0c0.021-0.047,0.043-0.094,0.064-0.141
						c0.204-0.448,0.161-0.86-0.159-1.236C285.103,415.94,284.71,415.817,284.296,416.005L284.296,416.005z"/>
				</g>
				<g>
					<path style="fill:#D5C3D9;" d="M283.677,423.258c0.01,0.058,0.021,0.115,0.031,0.173c0.147,0.821,1.571,0.852,1.689,0
						c0.008-0.057,0.016-0.115,0.024-0.173c0.079-0.571-0.233-1.145-0.872-1.145C283.93,422.113,283.575,422.687,283.677,423.258
						L283.677,423.258z"/>
				</g>
				<g>
					<path style="fill:#D5C3D9;" d="M283.515,428.491c-0.069,0.405-0.039,0.674,0.096,1.065c0.264,0.766,1.406,0.464,1.22-0.336
						c-0.091-0.392-0.201-0.648-0.472-0.951C284.12,428.001,283.578,428.12,283.515,428.491L283.515,428.491z"/>
				</g>
				<g>
					<path style="fill:#D5C3D9;" d="M284.229,434.21c-0.06,0.52-0.103,0.789,0.271,1.2c0.416,0.457,1.17,0.086,1.18-0.489
						c0.01-0.541-0.239-0.724-0.612-1.059C284.73,433.557,284.277,433.79,284.229,434.21L284.229,434.21z"/>
				</g>
				<g>
					<path style="fill:#D5C3D9;" d="M286.184,439.086c0.015,0.018,0.029,0.036,0.044,0.054c0.157,0.461,0.604,0.745,1.093,0.62
						c0.044-0.011,0.087-0.022,0.131-0.033c0.522-0.133,0.665-0.698,0.462-1.136c-0.021-0.045-0.042-0.09-0.063-0.135
						c-0.152-0.329-0.663-0.532-1.003-0.408c-0.029,0.011-0.058,0.023-0.087,0.034C286.294,438.122,285.88,438.628,286.184,439.086
						L286.184,439.086z"/>
				</g>
				<g>
					<path style="fill:#D5C3D9;" d="M291.89,439.12c0.065,0.134,0.129,0.268,0.191,0.404c0.278,0.609,1.213,0.461,1.437-0.097
						c0.245-0.61-0.304-1.26-0.954-1.091c-0.131,0.034-0.263,0.065-0.395,0.096C291.855,438.505,291.764,438.86,291.89,439.12
						L291.89,439.12z"/>
				</g>
				<g>
					<path style="fill:#D5C3D9;" d="M299.56,439.614c0.02-0.02,0.041-0.041,0.061-0.061c0.304-0.306,0.326-0.856,0-1.16
						c-0.02-0.019-0.041-0.038-0.061-0.057c-0.566-0.528-1.543-0.164-1.543,0.639C298.016,439.754,299.006,440.172,299.56,439.614
						L299.56,439.614z"/>
				</g>
				<g>
					<path style="fill:#D5C3D9;" d="M306.693,437.844c0.005,0.014,0.009,0.028,0.014,0.043c0.169,0.523,0.742,0.932,1.306,0.742
						c0.055-0.019,0.111-0.037,0.166-0.056c0.929-0.312,0.985-1.653,0-1.944c-0.055-0.016-0.111-0.033-0.166-0.049
						c-0.552-0.163-1.154,0.196-1.306,0.742C306.662,437.485,306.641,437.681,306.693,437.844L306.693,437.844z"/>
				</g>
				<g>
					<path style="fill:#D5C3D9;" d="M313.386,437.747c0.127,0.054,0.254,0.109,0.38,0.163c0.519,0.222,1.164-0.026,1.164-0.668
						c0-0.624-0.648-0.914-1.164-0.668c-0.127,0.06-0.253,0.121-0.38,0.181C313.022,436.928,312.999,437.581,313.386,437.747
						L313.386,437.747z"/>
				</g>
				<g>
					<path style="fill:#D5C3D9;" d="M321.801,437.364c0.68,0.223,1.61-0.195,1.61-1.004c0-0.795-0.941-1.232-1.61-0.985
						C320.853,435.725,320.795,437.034,321.801,437.364L321.801,437.364z"/>
				</g>
				<g>
					<path style="fill:#D5C3D9;" d="M328.307,436.32c1.327,0,1.329-2.063,0-2.063C326.98,434.257,326.978,436.32,328.307,436.32
						L328.307,436.32z"/>
				</g>
				<g>
					<path style="fill:#D5C3D9;" d="M331.132,433.55c0.779,0,1.441-0.663,1.441-1.441c0-0.782-0.66-1.441-1.441-1.441
						c-0.779,0-1.441,0.663-1.441,1.441C329.69,432.891,330.35,433.55,331.132,433.55L331.132,433.55z"/>
				</g>
				<g>
					<path style="fill:#D5C3D9;" d="M330.781,427.176c1.071,0,1.073-1.664,0-1.664C329.711,425.512,329.709,427.176,330.781,427.176
						L330.781,427.176z"/>
				</g>
			</g>
			<g>
				<g>
					<path style="fill:#D5C3D9;" d="M432.409,174.963c-9.501,13.465-17.989,27.702-26.768,41.644
						c-4.394,6.978-8.753,13.981-13.089,20.994c-2.698,4.365-4.402,8.573-1.263,13.208c3.192,4.714,8.959,7.478,13.637,10.421
						c5.056,3.181,10.674,7.942,16.793,8.732c4.796,0.62,8.101-1.932,10.921-5.525c4.653-5.927,8.895-12.243,13.156-18.455
						c8.641-12.597,17.356-25.563,24.381-39.149c2.416-4.673,2.452-8.49-1.494-12.203c-4.892-4.603-10.589-8.63-16.197-12.3
						c-2.936-1.921-5.942-3.737-9.009-5.441c-2.408-1.338-5.374-3.54-8.153-3.981c-4.819-0.765-7.824,7.428-9.862,10.515
						c-9.079,13.755-18.166,27.504-27.259,41.249c-2.546,3.848-5.078,7.705-7.6,11.569c-1.795,2.751-4.431,5.817-4.214,9.309
						c0.353,5.68,7.411,9.275,11.387,12.226c7.634,5.665,23.245,20.766,32.14,8.91c0.577-0.77-0.742-1.8-1.344-1.037
						c-8.22,10.43-24.048-6.329-30.901-11.494c-2.287-1.724-5.904-3.637-7.36-6.283c-2.142-3.89,1.802-7.952,3.685-10.791
						c3.461-5.219,6.904-10.45,10.34-15.686c6.69-10.195,13.383-20.388,20.084-30.576c1.63-2.478,3.26-4.956,4.89-7.435
						c1.038-1.578,2.703-5.87,4.347-6.609c2.461-1.105,6.877,2.087,8.989,3.273c2.805,1.575,5.558,3.24,8.252,4.997
						c4.542,2.962,8.922,6.173,13.099,9.631c3.505,2.902,6.069,4.376,3.932,9.912c-1.053,2.728-2.96,5.326-4.419,7.849
						c-5.71,9.874-11.696,19.593-17.984,29.11c-3.059,4.63-6.186,9.214-9.408,13.731c-3.666,5.139-7.835,13.737-15.399,11.849
						c-5.201-1.298-10.03-5.315-14.506-8.101c-4.389-2.732-10.438-5.434-13.193-10.034c-3.638-6.076,4.718-15.217,7.841-20.284
						c3.634-5.896,7.254-11.8,10.849-17.72c7.181-11.826,14.673-23.528,21.244-35.707
						C433.152,174.919,432.642,174.634,432.409,174.963L432.409,174.963z"/>
				</g>
				<g>
					<path style="fill:#D5C3D9;" d="M444.188,181.122c-0.102,0.9-0.413,1.73-0.933,2.491c-0.172,0.274-0.148,0.778,0.128,0.992
						c4.992,3.865,10.025,7.817,15.262,11.344c3.037,2.045,4.573-0.066,5.571-3.191c0.389-1.22-1.472-1.7-1.898-0.523
						c-1.187,3.272-2.291,2.274-4.495,0.677c-1.419-1.029-2.839-2.058-4.258-3.087c-3.04-2.204-6.092-4.383-9.189-6.505
						c0.098,0.373,0.196,0.746,0.294,1.12c0.525-1.229,0.693-2.011,0.446-3.317C445.027,180.661,444.279,180.666,444.188,181.122
						L444.188,181.122z"/>
				</g>
				<g>
					<path style="fill:#D5C3D9;" d="M449.34,184.312c-1.22-0.844-2.447-1.673-3.622-2.579c-0.633-0.489-1.699,0.332-1.395,1.073
						c1.357,3.314,3.981,4.878,7.495,5.109c0.706,0.046,1.392-0.792,1.125-1.477c-0.883-2.272-2.399-3.642-4.752-4.336
						c-1.089-0.322-2.005,0.932-1.453,1.89c1.578,2.738,3.909,4.506,6.975,5.295c1.334,0.343,2.262-1.291,1.327-2.279
						c-0.9-0.951-1.795-1.596-2.994-2.113c-1.129-0.487-2.264,0.307-2.031,1.561c0.538,2.892,2.612,4.518,5.449,4.841
						c0.943,0.107,1.579-0.989,1.367-1.794c-0.414-1.571-1.266-2.374-2.73-2.98c-1.119-0.463-1.924,0.828-1.763,1.763
						c0.351,2.044,2.326,3.521,4.421,3.066c1.795-0.389,2.878-2.352,1.222-3.704c-1.411-1.152-3.458-0.362-3.808,1.414
						c-0.545,2.766,2.408,4.061,4.593,4.268c-0.483-0.634-0.966-1.268-1.448-1.902c-0.723,3.74,3.812,4.094,5.379,1.22
						c0.597-1.096-0.699-2.721-1.86-1.86c-1.274,0.945-0.383,0.122-0.622,1.439c0.184-1.015-0.417-1.815-1.449-1.901
						c-0.977-0.259-1.954-0.518-2.931-0.776c0.241-0.42,0.482-0.841,0.723-1.261c-0.485-0.255-0.97-0.51-1.456-0.764
						c-0.588,0.588-1.176,1.176-1.763,1.763c0.253,0.323,0.506,0.646,0.758,0.969c0.456-0.598,0.911-1.196,1.367-1.794
						c-1.729-0.291-2.656-1.205-2.782-2.741c-0.567,0.567-1.134,1.134-1.701,1.701c0.856,0.32,1.567,0.824,2.131,1.514
						c0.442-0.76,0.884-1.52,1.327-2.279c-2.387-0.585-4.174-1.856-5.478-3.964c-0.484,0.63-0.969,1.26-1.453,1.89
						c1.56,0.408,2.575,1.345,3.303,2.754c0.336-0.585,0.672-1.171,1.008-1.756c-2.605,0.321-4.704-1.178-5.759-3.507
						c-0.358,0.465-0.715,0.93-1.073,1.395c1.327,0.48,2.617,1.042,3.916,1.592C449.409,185.275,449.81,184.637,449.34,184.312
						L449.34,184.312z"/>
				</g>
				<g>
					<path style="fill:#D5C3D9;" d="M398.414,250.529c2.476,2.985,6.129,5.084,9.321,7.236c3.229,2.177,6.483,4.669,10.091,6.154
						c0.965,0.397,1.773-1.089,1.015-1.743c-2.956-2.551-6.587-4.413-9.833-6.587c-3.213-2.152-6.305-4.79-9.898-6.254
						C398.377,249.036,398.016,250.049,398.414,250.529L398.414,250.529z"/>
				</g>
			</g>
			<g>
				<g>
					<g>
						<path style="fill:#D5C3D9;" d="M409.044,335.754c1.093-0.771,6.484-3.468,5.983-5.432c-0.125-0.489-0.555-0.723-1.018-0.775
							c-1.14-0.127-2.858,1.374-3.726,1.912c-3.02,1.872-5.975,3.843-8.899,5.86c-7.395,5.103-14.704,10.39-21.876,15.802
							c-4.086,3.084-18.453,11.391-11.327,17.532c2.005,1.728,4.646,0.53,6.956,1.604c3.762,1.751,6.287,5.766,9.509,8.322
							c4.573,3.629,10.286,6.03,16.208,5.34c6.341-0.739,11.226-4.87,13.049-10.96c1.195-3.992,0.965-8.197,0.493-12.285
							c-0.652-5.643-3.024-13.737,2.718-17.592c1.303-0.875,0.117-2.967-1.242-2.125c-12.962,8.029,2.643,27.428-8.332,37.422
							c-7.144,6.505-17.568,2.044-23.591-3.518c-1.854-1.712-3.456-3.697-5.469-5.236c-0.806-0.616-1.641-1.197-2.569-1.612
							c-0.776-0.347-3.666-0.392-4.148-0.771c-0.144-1.064-0.287-2.128-0.431-3.192c-1.196-1.897-1.001-3.221,0.585-3.972
							c0.63-0.637,1.495-1.07,2.235-1.565c0.44-0.294,0.894-0.57,1.338-0.859c1.228-0.797,2.446-1.609,3.661-2.425
							c3.176-2.135,6.284-4.358,9.388-6.595c6.41-4.619,12.796-9.286,19.059-14.102c1.176-0.905,5.858-3.333,6.339-4.721
							c0.607-1.755-0.794-1.241-1.7-0.691c-1.362,0.827-2.661,2.742-3.79,3.861C408.062,335.363,408.576,336.085,409.044,335.754
							L409.044,335.754z"/>
					</g>
					<g>
						<path style="fill:#D5C3D9;" d="M408.559,334.896c-1.277,0.71-2.552,1.427-3.851,2.097c-0.25,0.129-4.335,1.922-0.871,2.518
							c0.582,0.1,3.585-2.792,4.118-3.182c6.106-4.457,12.145-8.993,18.16-13.573c5.5-4.189,10.941-8.449,16.195-12.945
							c0.866-0.741,1.712-1.658,2.721-2.19c0.347-0.248,0.694-0.496,1.04-0.744c1.94,0.896,3.881,1.793,5.821,2.69
							c0.159,0.358-0.517,1.187-0.44,1.596c0.438,2.339,0.24,4.265,1.289,6.625c3.48,7.83,8.912,16.07,3.858,24.668
							c-10.818,18.404-29.678-9.137-42.538,1.859c-1.22,1.043,0.524,2.705,1.74,1.74c7.222-5.732,18.808,4.16,26.545,5.26
							c5.642,0.802,11.224-0.682,14.886-5.231c4.015-4.988,4.565-11.725,2.926-17.736c-0.945-3.467-2.639-6.413-4.301-9.568
							c-1.564-2.97-2.327-5.19-1.752-8.602c0.182-1.082,0.761-1.732,0.496-2.916c-1.07-4.775-7.297-3.913-10.41-2.173
							c-3.308,1.849-6.353,4.609-9.401,6.864c-7.244,5.36-14.403,10.888-21.423,16.538c-1.317,1.06-12.609,8.745-11.255,10.971
							c0.178,0.293,0.542,0.553,0.904,0.518c2.084-0.199,4.643-3.115,6.141-4.311C409.603,335.311,409.031,334.633,408.559,334.896
							L408.559,334.896z"/>
					</g>
					<g>
						<path style="fill:#D5C3D9;" d="M374.256,363.598c-0.697-0.061-1.252,0.498-1.437,1.138c-0.229,0.793,0.184,1.663,0.841,2.113
							c1.342,0.918,3.45,0.415,3.998-1.184c0.539-1.573-0.631-3.485-2.319-3.597c-1.792-0.118-3.475,2.031-2.404,3.661
							c0.328,0.499,1.2,0.34,1.179-0.319c-0.02-0.608,0.291-1.42,0.981-1.529c0.57-0.09,1.004,0.527,0.987,1.052
							c-0.02,0.608-0.68,0.846-1.204,0.735c-0.271-0.057-0.552-0.212-0.677-0.47c-0.123-0.254-0.166-0.716,0.16-0.818
							C374.806,364.243,374.697,363.637,374.256,363.598L374.256,363.598z"/>
					</g>
					<g>
						<path style="fill:#D5C3D9;" d="M446.488,310.878c-1.159,0.37-1.118,1.965-0.339,2.703c1.381,1.307,3.446-0.316,3.81-1.773
							c0.421-1.682-1.074-2.99-2.71-2.609c-1.665,0.387-2.443,2.671-1.514,4.057c0.35,0.521,1.391,0.396,1.31-0.355
							c-0.069-0.645-0.301-1.657,0.352-2.101c0.344-0.234,1.028-0.176,1.156,0.28c0.207,0.738-0.766,1.788-1.496,1.692
							c-0.613-0.081-0.924-1.042-0.353-1.38C446.973,311.234,446.799,310.779,446.488,310.878L446.488,310.878z"/>
					</g>
				</g>
				<g>
					<path style="fill:#D5C3D9;" d="M390.341,348.493c0.378,11.927,2.753,23.769,3.145,35.633c0.013,0.401,0.611,0.337,0.553-0.075
						c-1.673-11.756-1.402-23.825-3.099-35.639C390.891,348.07,390.331,348.154,390.341,348.493L390.341,348.493z"/>
				</g>
				<g>
					<path style="fill:#D5C3D9;" d="M395.992,344.056c-1.331,13.038-0.911,27.982,1.82,40.824c0.125,0.586,1.044,0.449,1.036-0.14
						c-0.094-6.766-1.011-13.549-1.388-20.309c-0.379-6.782-0.319-13.605-0.835-20.375
						C396.594,343.645,396.034,343.652,395.992,344.056L395.992,344.056z"/>
				</g>
				<g>
					<path style="fill:#D5C3D9;" d="M401.456,339.583c0.848,13.844,2.56,27.66,3.878,41.466c0.082,0.862,1.438,0.874,1.359,0
						c-1.253-13.853-2.393-27.812-4.639-41.547C401.999,339.164,401.435,339.241,401.456,339.583L401.456,339.583z"/>
				</g>
				<g>
					<path style="fill:#D5C3D9;" d="M430.598,318.397c1.412,9.523,2.249,19.114,3.571,28.646c0.076,0.544,1.018,0.421,0.967-0.131
						c-0.886-9.594-2.642-19.108-4.198-28.609C430.9,318.08,430.565,318.177,430.598,318.397L430.598,318.397z"/>
				</g>
				<g>
					<path style="fill:#D5C3D9;" d="M438.691,311.523c-0.71,12.347,0.796,25.398,1.966,37.698c0.073,0.766,1.249,0.796,1.219,0
						c-0.467-12.379-0.704-25.539-3.047-37.717C438.814,311.423,438.695,311.447,438.691,311.523L438.691,311.523z"/>
				</g>
				<g>
					<path style="fill:#D5C3D9;" d="M425.897,321.6c0.008,7.304,0.063,14.82,0.673,22.097c0.045,0.538,0.812,0.547,0.844,0
						c0.416-7.251-0.099-14.892-0.977-22.097C426.395,321.266,425.896,321.243,425.897,321.6L425.897,321.6z"/>
				</g>
				<g>
					<path style="fill:#D5C3D9;" d="M423.975,322.884c0.315,6.599,0.555,13.2,0.916,19.797c0.028,0.511,0.83,0.512,0.797,0
						c-0.429-6.604-0.979-13.196-1.456-19.797C424.221,322.72,423.967,322.717,423.975,322.884L423.975,322.884z"/>
				</g>
			</g>
			<g>
				<g>
					<path style="fill:#D5C3D9;" d="M70.974,254.941c-5.105,7.169-11.122,12.983-18.145,18.251
						c-5.829,4.372-12.983,7.82-18.342,12.71c-4.424,4.037-1.945,8.591,1.528,12.339c6.167,6.655,12.81,12.96,19.255,19.348
						c12.478,12.368,25.342,24.382,39.02,35.42c6.687,5.396,13.553,10.575,20.641,15.434c5.596,3.836,11.844,8.665,18.996,6.826
						c0.896-0.23,1.181-1.401,0.539-2.044c-3.981-3.983-6.525-11.458-13.021-12.068c-3.754-0.352-6.821,2.018-7.12,5.746
						c-0.09,1.125,1.677,1.126,1.758,0c0.333-4.627,7.178-3.744,9.542-1.513c1.208,1.14,2.125,2.541,3.053,3.907
						c1.313,1.932,2.547,3.871,4.059,5.657c0.18-0.681,0.36-1.362,0.54-2.044c-8.064,1.544-16.706-6.746-22.787-11.198
						c-6.238-4.568-12.295-9.378-18.212-14.354c-11.599-9.755-22.662-20.116-33.557-30.646c-5.235-5.06-10.433-10.162-15.587-15.305
						c-3.302-3.295-11.106-8.954-4.964-14.246c2.475-2.133,5.928-3.695,8.638-5.544c9.975-6.808,19.766-15.034,24.691-26.367
						C71.656,254.891,71.205,254.617,70.974,254.941L70.974,254.941z"/>
				</g>
				<g>
					<path style="fill:#D5C3D9;" d="M125.632,363.394c-6.73-3.927-9.758-11.231-12.617-18.108
						c-2.938-7.066-5.86-14.204-7.968-21.568c-2.141-7.478-3.291-15.085-2.778-22.867c0.419-6.353,1.648-12.754-0.582-18.919
						c-1.813-5.012-5.212-7.838-9.995-9.946c-7.49-3.302-11.915-6.362-15.056-14.219c-0.913-2.284-2.184-4.514-4.938-2.998
						c-2.325,1.28-4.246,4.599-5.984,6.557c-2.943,3.314-5.906,6.611-8.797,9.971c-0.808,0.939,0.514,2.302,1.375,1.376
						c2.586-2.78,5.115-5.61,7.657-8.43c1.271-1.41,2.543-2.82,3.814-4.23c1.198-1.329,1.731-3.056,3.485-2.195
						c1.607,0.789,2.467,4.793,3.521,6.448c1.417,2.226,3.228,4.189,5.328,5.783c4.635,3.518,11.242,3.993,14.861,8.8
						c4.318,5.735,2.991,13.61,2.427,20.248c-1.164,13.692,2.424,26.763,7.777,39.272c3.902,9.117,7.888,21.984,17.774,26.22
						C125.729,364.929,126.424,363.856,125.632,363.394L125.632,363.394z"/>
				</g>
				<g>
					<path style="fill:#D5C3D9;" d="M90.287,271.547c1.311,0.804,2.252,0.896,3.792,0.708c1.848-0.226,5.908-2.815,7.501-2.042
						c1.44,0.699-1.567,17.356-1.557,20.002c0.003,0.772,1.159,0.948,1.358,0.184c1.01-3.873,1.427-7.812,1.936-11.774
						c0.287-2.236,2.037-7.574,0.896-9.599c-0.86-1.526-2.121-1.415-3.737-1.081c-3.521,0.727-6.334,2.682-10.029,3.012
						C90.143,270.985,90.005,271.374,90.287,271.547L90.287,271.547z"/>
				</g>
				<g>
					<path style="fill:#D5C3D9;" d="M92.858,274.198c-7.171,14.11-5.465,32.54-0.341,46.96
						c5.319,14.969,11.725,31.389,22.769,43.096c0.857,0.909,2.161-0.433,1.359-1.359c-10.304-11.902-16.358-26.808-21.782-41.428
						c-2.761-7.443-4.478-15.147-4.654-23.107c-0.184-8.314,1.546-15.908,3.034-23.999C93.284,274.141,92.974,273.97,92.858,274.198
						L92.858,274.198z"/>
				</g>
				<g>
					<path style="fill:#D5C3D9;" d="M33.65,288.105c-4.4,2.561-11.402,7.545-12.336,13.022c-0.892,5.233,6.451,11.982,9.515,15.652
						c11.031,13.215,24.657,24.144,37.658,35.335c11.901,10.243,23.833,20.724,37.264,28.947c3.428,2.099,6.934,4.085,10.533,5.878
						c2.056,1.024,4.817,2.829,7.26,2.358c5.565-1.073,9.527-9.656,11.194-14.225c0.691-1.894-2.368-2.743-3.029-0.835
						c-1.136,3.284-2.716,6.266-4.849,9.01c-1.95,2.509-4.457,3.058-7.745,2.26c-1.422-0.345-3.336-1.644-4.624-2.328
						c-5.59-2.968-10.875-6.464-16.011-10.154c-10.556-7.582-20.229-16.275-29.987-24.834c-9.996-8.768-20.406-17.172-29.614-26.789
						c-4.574-4.777-10.585-10.292-13.693-16.157c-3.385-6.388,4.567-12.466,9.145-16.257
						C34.832,288.575,34.19,287.791,33.65,288.105L33.65,288.105z"/>
				</g>
				<g>
					<path style="fill:#D5C3D9;" d="M66.097,312.361c0.034-0.008,0.067-0.015,0.101-0.022c0.091-0.02,0.174-0.105,0.195-0.195
						c0.136-0.579-0.675-0.832-1.102-0.62c-0.791,0.394-0.989,1.602-0.877,2.382c0.316,2.19,2.907,2.857,4.48,1.46
						c1.778-1.579,0.68-4.491-1.589-4.84c-2.129-0.327-3.84,2.115-2.974,4.028c0.311,0.687,1.291,0.175,1.157-0.488
						c-0.177-0.871,0.152-1.948,1.14-2.167c1.072-0.238,2.2,0.983,1.751,2.021c-0.364,0.842-1.626,1.266-2.333,0.609
						c-0.287-0.266-0.454-0.677-0.507-1.059c-0.031-0.224-0.025-0.443,0.034-0.662c0.049-0.181,0.316-0.479,0.28-0.664
						c0.043-0.105,0.086-0.211,0.129-0.316c-0.028,0.021-0.056,0.042-0.084,0.063C65.671,312.06,65.797,312.428,66.097,312.361
						L66.097,312.361z"/>
				</g>
				<g>
					<path style="fill:#D5C3D9;" d="M79.07,323.169c-0.689-0.443-1.511-0.285-2.099,0.268c-0.711,0.668-0.701,1.725-0.38,2.584
						c0.653,1.748,2.683,3.363,4.561,2.315c2.022-1.129,1.092-3.705-0.41-4.857c-0.746-0.572-1.692-0.782-2.573-0.389
						c-0.84,0.375-1.497,1.249-1.035,2.152c0.2,0.39,0.85,0.499,1.141,0.147c0.428-0.518,0.625-1.155,1.423-0.626
						c0.602,0.399,1.525,1.693,0.666,2.228c-0.749,0.467-1.606-0.177-2.064-0.756c-0.292-0.369-0.576-0.856-0.586-1.342
						c-0.012-0.573,0.426-1.171,1.056-1.017C79.202,323.981,79.44,323.407,79.07,323.169L79.07,323.169z"/>
				</g>
				<g>
					<path style="fill:#D5C3D9;" d="M105.194,294.077c-0.222-1.491-2.134-2.198-3.383-2.644c-1.901-0.679-4.008-0.843-6.012-0.811
						c-3.34,0.053-2.803,5.266,0.623,4.604c2.174-0.42,4.308-0.225,6.503-0.218C103.466,295.009,105.347,295.103,105.194,294.077
						L105.194,294.077z"/>
				</g>
				<g>
					<path style="fill:#D5C3D9;" d="M104.966,302.021c-1.424-1.185-3.546-1.327-5.347-1.391c-2.106-0.074-4.831-0.049-6.636,1.126
						c-1.701,1.107-0.969,3.575,1.005,3.712c1.903,0.132,3.896-0.735,5.752-1.141c1.666-0.364,3.68-0.48,5.114-1.441
						C105.123,302.706,105.256,302.262,104.966,302.021L104.966,302.021z"/>
				</g>
				<g>
					<path style="fill:#D5C3D9;" d="M104.838,311.804c-1.035-1.145-3.425-0.488-4.745-0.201c-1.779,0.386-4.346,1.028-5.28,2.701
						c-0.476,0.853-0.106,2.288,1.001,2.462c2.172,0.341,4.536-1.29,6.421-2.29C102.751,314.203,105.827,312.898,104.838,311.804
						L104.838,311.804z"/>
				</g>
				<g>
					<path style="fill:#D5C3D9;" d="M105.126,320.225c-1.241-0.266-2.468,0.334-3.644,0.7c-1.401,0.437-2.776,0.98-4.126,1.554
						c-2.134,0.907-0.266,4.395,1.869,3.198c1.232-0.691,2.435-1.447,3.592-2.255c0.949-0.663,2.148-1.242,2.667-2.319
						C105.64,320.778,105.53,320.312,105.126,320.225L105.126,320.225z"/>
				</g>
				<g>
					<path style="fill:#D5C3D9;" d="M109.19,330.439c-1.043,0.297-2.078,0.497-3.114,0.837c-1.023,0.335-2.047,0.664-3.07,0.999
						c-2.492,0.814-0.676,4.552,1.336,3.17c0.903-0.62,1.802-1.245,2.705-1.863c0.919-0.629,1.733-1.347,2.621-2.007
						C110.199,331.18,109.918,330.232,109.19,330.439L109.19,330.439z"/>
				</g>
				<g>
					<path style="fill:#D5C3D9;" d="M112.742,341.305c-1.541-0.294-3.192,0.101-4.688,0.486c-1.587,0.408-3.434,0.693-3.987,2.421
						c-0.235,0.734,0.278,1.479,0.966,1.701c1.562,0.504,2.837-0.759,4.134-1.482c1.274-0.71,2.694-1.266,3.818-2.206
						C113.293,341.969,113.133,341.38,112.742,341.305L112.742,341.305z"/>
				</g>
				<g>
					<path style="fill:#D5C3D9;" d="M115.312,350.796c-1.6,0-3.288,0.89-4.712,1.551c-1.73,0.804-0.131,3.647,1.51,2.584
						c1.308-0.847,2.924-1.804,3.768-3.147C116.146,351.358,115.797,350.796,115.312,350.796L115.312,350.796z"/>
				</g>
				<g>
					<path style="fill:#D5C3D9;" d="M94.51,351.203c-2.206-2.055-6.252-1.731-9.007-1.175c-3.734,0.755-6.939,2.751-9.418,5.617
						c-0.855,0.989,0.585,2.438,1.442,1.442c2.23-2.595,5.128-4.449,8.471-5.264c2.902-0.707,5.578,0.151,8.414-0.248
						C94.58,351.551,94.622,351.307,94.51,351.203L94.51,351.203z"/>
				</g>
				<g>
					<path style="fill:#D5C3D9;" d="M26.645,298.105c-0.806,0.687-1.325,1.677-1.91,2.549c-0.655,0.976-1.358,1.935-1.936,2.96
						c-0.405,0.718,0.636,1.304,1.093,0.639c0.665-0.968,1.216-2.02,1.804-3.036c0.525-0.908,1.177-1.801,1.438-2.826
						C27.21,298.093,26.862,297.92,26.645,298.105L26.645,298.105z"/>
				</g>
				<g>
					<path style="fill:#D5C3D9;" d="M27.315,301.011c-0.58,0.856-1.16,1.711-1.74,2.567c-0.511,0.754-1.229,1.526-1.43,2.426
						c-0.097,0.435,0.382,0.669,0.705,0.41c0.718-0.574,1.098-1.566,1.55-2.354c0.514-0.894,1.028-1.789,1.542-2.683
						C28.178,300.968,27.576,300.627,27.315,301.011L27.315,301.011z"/>
				</g>
				<g>
					<path style="fill:#D5C3D9;" d="M28.293,304.375c-0.6,0.749-1.057,1.594-1.529,2.427c-0.417,0.736-1.149,1.574-1.034,2.451
						c0.036,0.279,0.303,0.497,0.582,0.334c0.724-0.424,0.903-1.318,1.209-2.061c0.4-0.972,0.847-1.942,1.086-2.968
						C28.645,304.391,28.418,304.219,28.293,304.375L28.293,304.375z"/>
				</g>
				<g>
					<path style="fill:#D5C3D9;" d="M28.928,308.382c-0.307,0.773-0.731,1.576-0.905,2.39c-0.119,0.559,0.626,0.736,0.836,0.23
						c0.318-0.766,0.426-1.662,0.611-2.47C29.553,308.172,29.059,308.052,28.928,308.382L28.928,308.382z"/>
				</g>
				<g>
					<path style="fill:#D5C3D9;" d="M67.837,340.305c-1.834,1.285-3.546,2.992-4.371,5.105c-0.111,0.283,0.32,0.432,0.471,0.199
						c1.194-1.843,2.37-3.55,4.137-4.899C68.307,340.531,68.088,340.128,67.837,340.305L67.837,340.305z"/>
				</g>
				<g>
					<path style="fill:#D5C3D9;" d="M67.864,343.497c-1.256,0.605-2.753,2.233-2.32,3.754c0.088,0.31,0.482,0.266,0.588,0
						c0.237-0.598,0.289-1.231,0.607-1.805c0.337-0.608,0.832-1.08,1.433-1.423C68.516,343.826,68.214,343.329,67.864,343.497
						L67.864,343.497z"/>
				</g>
				<g>
					<path style="fill:#D5C3D9;" d="M69.171,345.858c-0.476,0.477-0.883,1.018-1.179,1.625c-0.26,0.533-0.583,1.163-0.301,1.733
						c0.111,0.225,0.461,0.261,0.626,0.081c0.363-0.397,0.319-0.98,0.465-1.48c0.173-0.592,0.457-1.13,0.813-1.632
						C69.775,345.931,69.383,345.646,69.171,345.858L69.171,345.858z"/>
				</g>
				<g>
					<path style="fill:#D5C3D9;" d="M71.213,349.21c0.042,0.59-0.222,1.068-0.758,1.321c-0.785,0.372,0.004,1.637,0.781,1.012
						c0.718-0.577,1.014-1.56,0.736-2.437C71.847,348.71,71.181,348.756,71.213,349.21L71.213,349.21z"/>
				</g>
				<g>
					<path style="fill:#D5C3D9;" d="M87.622,355.711c-1.018,0.865-1.981,1.77-2.942,2.697c-0.747,0.721-1.723,1.433-2.305,2.297
						c-0.446,0.662-0.583,2.132,0.619,1.83c0.278-0.07,0.38-0.448,0.171-0.646c-0.318-0.3,4.35-5.229,4.822-5.814
						C88.194,355.819,87.878,355.493,87.622,355.711L87.622,355.711z"/>
				</g>
				<g>
					<path style="fill:#D5C3D9;" d="M87.498,359.8c-0.602,0.573-1.205,1.144-1.819,1.704c-0.441,0.402-1.231,0.882-1.43,1.475
						c-0.194,0.576,0.28,1.528,0.91,0.942c0.287-0.267-0.095-0.784-0.426-0.552c0.226,0.161,0.321,0.12,0.287-0.123
						c0.107-0.203,0.24-0.388,0.397-0.554c0.241-0.308,0.506-0.601,0.758-0.9c0.505-0.6,1.022-1.188,1.539-1.776
						C87.842,359.869,87.641,359.663,87.498,359.8L87.498,359.8z"/>
				</g>
				<g>
					<path style="fill:#D5C3D9;" d="M88.14,362.346c-1,0.402-1.78,1.437-1.819,2.531c-0.006,0.174,0.101,0.365,0.256,0.447
						c0.202,0.107,0.391,0.108,0.574-0.04c0.254-0.206,0.206-0.551,0.262-0.844c0.126-0.659,0.512-1.181,1-1.624
						C88.613,362.635,88.405,362.239,88.14,362.346L88.14,362.346z"/>
				</g>
				<g>
					<path style="fill:#D5C3D9;" d="M90.628,363.974c-0.434,0.879-1.096,1.869-1.176,2.863c-0.038,0.467,0.563,0.505,0.786,0.213
						c0.572-0.748,0.738-1.933,0.989-2.823C91.326,363.878,90.796,363.634,90.628,363.974L90.628,363.974z"/>
				</g>
				<g>
					<path style="fill:#D5C3D9;" d="M95.91,364.723c-1.101,1.256-2.386,2.477-3.303,3.875c-0.338,0.516,0.46,1.15,0.865,0.667
						c1.078-1.285,1.881-2.865,2.77-4.287C96.366,364.779,96.07,364.541,95.91,364.723L95.91,364.723z"/>
				</g>
				<g>
					<path style="fill:#D5C3D9;" d="M100.562,365.479c-0.783,0.751-1.393,1.62-2.029,2.499c-0.623,0.861-1.428,1.76-1.739,2.784
						c-0.184,0.607,0.587,0.987,1.019,0.593c0.784-0.715,1.251-1.85,1.755-2.772c0.516-0.946,1.027-1.864,1.366-2.887
						C101.006,365.477,100.715,365.332,100.562,365.479L100.562,365.479z"/>
				</g>
				<g>
					<path style="fill:#D5C3D9;" d="M104.843,367.463c-1.141,0.769-2.098,1.79-2.96,2.857c-0.777,0.962-1.735,2.15-1.981,3.38
						c-0.089,0.443,0.496,0.915,0.842,0.49c0.743-0.911,1.175-2.1,1.803-3.102c0.747-1.19,1.662-2.221,2.537-3.312
						C105.214,367.614,105.047,367.326,104.843,367.463L104.843,367.463z"/>
				</g>
				<g>
					<path style="fill:#D5C3D9;" d="M105.764,371.037c-1.376,1.229-2.498,2.799-3.675,4.216c-0.446,0.537-1.156,1.684-0.041,1.963
						c0.169,0.042,0.4,0.009,0.516-0.136c0.166-0.208,0.242-0.333,0.245-0.601c0.002-0.182-0.134-0.373-0.316-0.415
						c-0.035-0.008-0.07-0.016-0.105-0.024c-0.314-0.072-0.625,0.27-0.437,0.568c0.019,0.029,0.037,0.059,0.056,0.088
						c0.022-0.174,0.045-0.348,0.067-0.521c0.039-0.011,0.078-0.023,0.117-0.034c0.126,0.126,0.251,0.251,0.377,0.377
						c-0.073-0.31,0.691-1.081,0.861-1.318c0.293-0.408,0.587-0.816,0.88-1.225c0.627-0.873,1.291-1.725,1.786-2.682
						C106.206,371.078,105.944,370.876,105.764,371.037L105.764,371.037z"/>
				</g>
				<g>
					<path style="fill:#D5C3D9;" d="M107.028,373.832c-0.401,0.479-0.776,0.962-1.134,1.474c-0.29,0.415-0.834,0.926-0.623,1.467
						c0.048,0.123,0.159,0.244,0.305,0.232c0.581-0.046,0.763-0.591,1.019-1.048c0.325-0.582,0.621-1.162,0.894-1.77
						C107.612,373.91,107.26,373.555,107.028,373.832L107.028,373.832z"/>
				</g>
				<g>
					<path style="fill:#D5C3D9;" d="M108.471,375.743c-0.483,0.585-0.966,1.169-1.449,1.754c-0.356,0.431-0.95,0.96-0.91,1.551
						c0.012,0.175,0.163,0.306,0.341,0.26c0.588-0.15,0.885-0.851,1.188-1.333c0.405-0.645,0.811-1.289,1.216-1.934
						C109.004,375.809,108.652,375.525,108.471,375.743L108.471,375.743z"/>
				</g>
				<g>
					<path style="fill:#D5C3D9;" d="M109.501,377.882c-0.262,0.418-0.524,0.836-0.786,1.254c-0.238,0.38-0.539,0.753-0.665,1.187
						c-0.083,0.284,0.303,0.527,0.509,0.297c0.302-0.338,0.46-0.785,0.658-1.19c0.216-0.445,0.433-0.889,0.65-1.334
						C109.984,377.853,109.647,377.65,109.501,377.882L109.501,377.882z"/>
				</g>
				<g>
					<path style="fill:#D5C3D9;" d="M110.027,380.739c0.021,0.128-0.02,0.22-0.124,0.278c-0.623,0.24-0.179,1.158,0.343,0.814
						c0.494-0.326,0.602-0.888,0.232-1.354C110.296,380.248,109.978,380.503,110.027,380.739L110.027,380.739z"/>
				</g>
			</g>
			<g>
				<g>
					<path style="fill:#D5C3D9;" d="M80.804,84.999c11.232,11.526,24.24,20.95,37.48,30.019c6.351,4.35,12.742,8.644,19.073,13.024
						c1.91,1.321,4.053,2.557,5.809,4.077c0.48,0.344,0.961,0.689,1.441,1.034c2.215,1.538,2.556,3.099,1.023,4.682
						c-0.639,1.983-2.678,4.113-3.928,5.758c-0.925,1.218-3.023,4.881-4.492,5.333c-2.875,0.884-8.629-4.315-10.918-5.821
						c-3.381-2.224-6.741-4.479-10.081-6.763c-6.938-4.744-13.787-9.616-20.545-14.612c-7.41-5.478-14.682-11.137-21.902-16.863
						c-0.998-0.792-3.728-2.414-4.38-3.502c-1.688-2.815,1.704-5.764,3.285-7.747c2.49-3.122,5.202-6.052,8.011-8.887
						c-0.679,0-1.357,0-2.036,0c21.002,17.063,42.917,33.112,65.924,47.376c1.419,0.88,2.683-1.323,1.301-2.226
						c-22.489-14.701-44.341-30.221-65.189-47.186c-0.602-0.49-1.443-0.598-2.036,0c-2.618,2.638-5.083,5.394-7.376,8.32
						c-1.747,2.23-4.436,4.935-5.396,7.633c-0.511,1.437-0.313,2.5,0.583,3.74c2.38,3.294,7.207,6.097,10.372,8.603
						c12.789,10.125,25.948,19.784,39.431,28.964c3.345,2.277,6.713,4.52,10.095,6.743c2.664,1.751,5.888,4.896,8.995,5.722
						c4.714,1.254,8.944-6.703,11.136-9.932c3.124-4.602,5.494-7.802,0.467-11.599c-6.363-4.806-13.111-9.154-19.757-13.554
						c-15.684-10.382-31.346-20.811-45.629-33.1C81.046,83.789,80.314,84.496,80.804,84.999L80.804,84.999z"/>
				</g>
				<g>
					<path style="fill:#D5C3D9;" d="M68.932,104.568c-6.203,8.126-11.05,17.544-16.274,26.32
						c-5.275,8.86-10.441,17.786-15.632,26.695c-0.463,0.795-0.123,1.656,0.567,2.163c8.934,6.564,17.88,13.112,26.826,19.66
						c4.473,3.273,8.946,6.547,13.419,9.82c3.129,2.29,6.791,5.532,11.013,4.739c3.6-0.676,6.154-4.223,8.493-6.685
						c3.812-4.013,7.624-8.026,11.436-12.039c7.848-8.262,15.697-16.523,23.545-24.785c1.454-1.531-0.864-3.856-2.32-2.32
						c-6.721,7.087-13.443,14.174-20.164,21.261c-3.137,3.307-6.273,6.615-9.41,9.922c-1.792,1.89-3.585,3.78-5.377,5.67
						c-2.587,2.728-3.176,3.827-7.054,4.487c-4.03,0.686-4.642-0.215-7.743-2.46c-2.112-1.53-4.211-3.079-6.316-4.618
						c-3.685-2.694-7.369-5.388-11.054-8.082c-7.895-5.772-15.792-11.542-23.697-17.299c0.189,0.721,0.378,1.442,0.567,2.163
						c5.32-9.219,10.664-18.427,15.895-27.698c4.887-8.662,10.463-17.298,14.331-26.471
						C70.257,104.358,69.286,104.104,68.932,104.568L68.932,104.568z"/>
				</g>
				<g>
					<path style="fill:#D5C3D9;" d="M109.016,106.94c-2.368,2.292-4.212,5.196-6.266,7.761c-2.091,2.612-4.22,5.199-6.375,7.758
						c-0.725,0.86-0.306,2.4,0.977,2.359c1.132-0.036,1.422-0.211,2.087-1.13c0.539-0.745-0.35-1.721-1.151-1.498
						c-0.189-0.029-0.379-0.058-0.568-0.087c0.203,0.77,0.407,1.54,0.61,2.31c4.101-5.168,8.982-10.865,11.431-17.04
						C109.933,106.939,109.311,106.654,109.016,106.94L109.016,106.94z"/>
				</g>
				<g>
					<path style="fill:#D5C3D9;" d="M117.082,113.709c-0.109-0.692-3.266,2.665-3.576,3.026c-1.299,1.517-2.566,3.065-3.829,4.613
						c-1.99,2.439-4.487,4.828-5.689,7.761c-0.362,0.884,0.89,1.829,1.653,1.27c3.249-2.382,5.57-6.585,7.935-9.809
						c0.949-1.294,5.242-5.505,3.938-7.275c-0.142-0.192-0.316-0.264-0.551-0.224c-0.304,0.052-0.388,0.137-0.516,0.414
						c-0.058,0.124-0.069,0.308,0.052,0.406c0.038,0.031,0.075,0.061,0.113,0.092C116.838,114.165,117.127,113.993,117.082,113.709
						L117.082,113.709z"/>
				</g>
				<g>
					<path style="fill:#D5C3D9;" d="M111.172,109.418c-1.988,0.667-4.166,1.388-5.939,2.528c-0.495,0.318-0.066,0.99,0.45,0.769
						c1.931-0.827,3.764-1.975,5.661-2.89C111.57,109.716,111.411,109.337,111.172,109.418L111.172,109.418z"/>
				</g>
				<g>
					<path style="fill:#D5C3D9;" d="M113.884,111.097c-1.829,0.397-3.655,0.801-5.477,1.233c-1.031,0.244-3.25,0.314-4.021,1.083
						c-0.802,0.799,0.181,2.068,0.911,1.222c0.211-0.244,0.098-0.765-0.298-0.72c0.569,0.259,1.121,0.247,1.654-0.037
						c0.223-0.071,0.446-0.142,0.669-0.212c0.78-0.248,1.56-0.495,2.34-0.743c1.45-0.461,2.888-0.953,4.329-1.441
						C114.232,111.399,114.135,111.043,113.884,111.097L113.884,111.097z"/>
				</g>
				<g>
					<path style="fill:#D5C3D9;" d="M113.824,112.635c-3.86,0.886-7.82,1.817-11.499,3.303c-0.756,0.305-0.486,1.411,0.342,1.24
						c0.476-0.098,0.566-0.137,1.001-0.336c0.341-0.155,0.227-0.683-0.101-0.771c-0.47-0.127-0.578-0.138-1.071-0.156
						c0.057,0.421,0.114,0.842,0.171,1.263c3.787-1.301,7.474-2.819,11.307-4.001C114.32,113.071,114.178,112.554,113.824,112.635
						L113.824,112.635z"/>
				</g>
				<g>
					<path style="fill:#D5C3D9;" d="M117.992,113.381c-5.849,2.2-12.918,1.809-17.942,5.863c-0.721,0.582,0.201,1.684,0.966,1.253
						c0.356-0.201,0.712-0.402,1.068-0.602c0.621-0.35,0.189-1.254-0.47-1.114c-0.404,0.086-0.809,0.172-1.213,0.259
						c0.259,0.444,0.517,0.889,0.776,1.333c4.975-3.961,11.735-3.267,16.95-6.669C118.285,113.6,118.188,113.308,117.992,113.381
						L117.992,113.381z"/>
				</g>
				<g>
					<path style="fill:#D5C3D9;" d="M114.755,116.646c-4.956,1.093-10.849,1.934-15.334,4.406c-0.545,0.3-0.16,1.079,0.406,0.964
						c5.088-1.031,10.022-3.484,15.09-4.782C115.298,117.135,115.137,116.561,114.755,116.646L114.755,116.646z"/>
				</g>
				<g>
					<path style="fill:#D5C3D9;" d="M108.612,120.347c-1.835,0.692-3.696,1.257-5.593,1.755c-1.656,0.434-3.48,0.556-5,1.358
						c-0.347,0.183-0.146,0.644,0.183,0.677c1.823,0.184,3.746-0.602,5.461-1.169c1.765-0.584,3.483-1.312,5.183-2.063
						C109.16,120.766,108.936,120.225,108.612,120.347L108.612,120.347z"/>
				</g>
				<g>
					<path style="fill:#D5C3D9;" d="M109.851,122.791c-1.753,0.301-3.492,0.705-5.221,1.119c-1.519,0.363-3.16,0.554-4.522,1.333
						c-0.475,0.272-0.279,1.068,0.284,1.048c1.563-0.055,3.074-0.757,4.551-1.247c1.691-0.561,3.382-1.133,5.033-1.801
						C110.254,123.13,110.152,122.739,109.851,122.791L109.851,122.791z"/>
				</g>
				<g>
					<path style="fill:#D5C3D9;" d="M106.861,126.077c-1.348,0.5-2.686,0.582-4.094,0.77c-0.329,0.044-0.333,0.474,0,0.516
						c1.449,0.183,2.948-0.321,4.247-0.921C107.218,126.347,107.074,125.999,106.861,126.077L106.861,126.077z"/>
				</g>
				<g>
					<path style="fill:#D5C3D9;" d="M96.381,123.371c-11.946,16.755-27.857,30.684-38.897,48.03
						c-0.908,1.426,1.236,2.552,2.206,1.289c12.306-16.019,28.324-30.677,37.237-49C97.107,123.322,96.617,123.04,96.381,123.371
						L96.381,123.371z"/>
				</g>
				<g>
					<path style="fill:#D5C3D9;" d="M66.069,178.406c7.359-7.212,13.639-15.76,20.153-23.731
						c6.575-8.046,13.214-16.053,19.632-24.226c0.913-1.163-0.682-2.83-1.657-1.657c-6.851,8.238-13.525,16.626-20.312,24.917
						c-6.384,7.799-13.37,15.418-18.957,23.817C64.463,178.225,65.491,178.972,66.069,178.406L66.069,178.406z"/>
				</g>
				<g>
					<path style="fill:#D5C3D9;" d="M99.968,126.606c-3.455,0.723-7.579,2.369-9.709,5.335c-0.251,0.349,0.245,0.836,0.593,0.593
						c1.409-0.983,2.619-2.19,4.108-3.077c1.628-0.97,3.379-1.647,5.214-2.105C100.659,127.23,100.452,126.504,99.968,126.606
						L99.968,126.606z"/>
				</g>
				<g>
					<path style="fill:#D5C3D9;" d="M102.822,129.184c-3.994,0.633-9.963,2.123-12.556,5.511c-0.175,0.229,0.118,0.603,0.384,0.499
						c1.871-0.734,3.442-2.159,5.241-3.08c2.24-1.147,4.604-1.935,7.055-2.479C103.246,129.57,103.114,129.138,102.822,129.184
						L102.822,129.184z"/>
				</g>
				<g>
					<path style="fill:#D5C3D9;" d="M102.937,129.778c-4.937,1.993-10.342,4.132-14.598,7.38c-0.553,0.422-0.094,1.277,0.556,0.951
						c4.844-2.431,9.326-5.494,14.268-7.796C103.46,130.175,103.246,129.653,102.937,129.778L102.937,129.778z"/>
				</g>
				<g>
					<path style="fill:#D5C3D9;" d="M99.991,133.706c-5.654,2.492-11.944,4.81-16.84,8.652c-0.506,0.397,0.139,1.055,0.639,0.828
						c5.678-2.582,10.823-6.317,16.521-8.934C100.682,134.081,100.359,133.544,99.991,133.706L99.991,133.706z"/>
				</g>
				<g>
					<path style="fill:#D5C3D9;" d="M93.41,139.566c-4.478,2.378-9.121,4.613-13.409,7.323c-0.64,0.404-0.079,1.356,0.591,1.012
						c4.511-2.317,8.793-5.179,13.113-7.829C94.028,139.874,93.743,139.389,93.41,139.566L93.41,139.566z"/>
				</g>
				<g>
					<path style="fill:#D5C3D9;" d="M91.633,144.657c-4.785,1.384-10.456,2.732-14.609,5.588c-0.551,0.379-0.231,1.416,0.488,1.157
						c4.884-1.762,9.289-4.513,14.301-6.089C92.229,145.182,92.056,144.535,91.633,144.657L91.633,144.657z"/>
				</g>
				<g>
					<path style="fill:#D5C3D9;" d="M88.441,148.28c-5.325,1.908-10.673,3.76-15.977,5.726c-0.856,0.317-0.815,1.766,0.231,1.705
						c1.001-0.058,1.012-0.056,1.984-0.303c0.696-0.176,0.575-1.383-0.174-1.289c-0.526-0.038-1.052-0.076-1.579-0.113
						c0,0.558,0,1.116,0,1.674c5.291-2.181,10.537-4.476,15.804-6.715C89.117,148.801,88.84,148.137,88.441,148.28L88.441,148.28z"
						/>
				</g>
				<g>
					<path style="fill:#D5C3D9;" d="M86.008,153.04c-3.17,0.772-6.337,1.563-9.422,2.633c-2.388,0.828-5.222,1.507-7.102,3.253
						c-0.34,0.316-0.097,1.037,0.406,0.98c2.682-0.304,5.165-1.931,7.645-2.95c2.854-1.173,5.724-2.283,8.666-3.215
						C86.646,153.6,86.464,152.929,86.008,153.04L86.008,153.04z"/>
				</g>
				<g>
					<path style="fill:#D5C3D9;" d="M82.753,157.757c-5.031,0.718-11.563,1.705-15.72,4.846c-0.445,0.337-0.208,1.092,0.397,0.943
						c2.623-0.646,5.057-2.068,7.616-2.968c2.581-0.908,5.208-1.611,7.887-2.165C83.37,158.321,83.174,157.696,82.753,157.757
						L82.753,157.757z"/>
				</g>
				<g>
					<path style="fill:#D5C3D9;" d="M77.483,161.412c-2.663,1.076-5.373,2.028-8.062,3.036c-2.346,0.88-5.005,1.509-7.053,2.97
						c-0.56,0.399-0.218,1.211,0.46,1.092c2.478-0.432,4.794-1.884,7.067-2.936c2.605-1.206,5.186-2.466,7.822-3.606
						C78.031,161.833,77.804,161.282,77.483,161.412L77.483,161.412z"/>
				</g>
				<g>
					<path style="fill:#D5C3D9;" d="M74.266,166.467c-2.528,0.951-5.086,1.811-7.65,2.66c-2.27,0.751-4.737,1.186-6.824,2.367
						c-0.523,0.296-0.321,1.228,0.319,1.179c4.847-0.369,10.107-3.5,14.362-5.714C74.74,166.821,74.555,166.358,74.266,166.467
						L74.266,166.467z"/>
				</g>
				<g>
					<path style="fill:#D5C3D9;" d="M70.324,170.639c-2.423,1.145-5.103,1.54-7.501,2.655c-0.447,0.208-0.244,1.028,0.26,0.961
						c2.609-0.346,5.189-1.983,7.477-3.211C70.829,170.9,70.593,170.512,70.324,170.639L70.324,170.639z"/>
				</g>
				<g>
					<path style="fill:#D5C3D9;" d="M111.32,108.514c0.02-4.348,3.683-8.384,8.275-7.395c3.282,0.707,3.53,3.235,2.933,6.081
						c-0.411,1.961-1.062,5.272-3.6,5.473c-0.702,0.055-1.091,0.859-0.58,1.4c2.384,2.525,4.96-1.943,5.635-3.876
						c1.109-3.175,2.083-7.471-0.96-9.847c-2.678-2.091-6.737-1.824-9.455,0.032c-2.759,1.883-3.717,5.065-3.1,8.247
						C110.563,109.118,111.318,108.993,111.32,108.514L111.32,108.514z"/>
				</g>
				<g>
					<path style="fill:#D5C3D9;" d="M119.96,100.848c-1.926,0.582-3.792,1.408-5.618,2.247c-1.121,0.515-3.106,0.99-3.578,2.255
						c-0.068,0.182,0.015,0.396,0.14,0.529c0.217,0.232,0.369,0.292,0.684,0.278c0.25-0.011,0.42-0.158,0.505-0.384
						c0.016-0.044,0.033-0.087,0.049-0.131c0.205-0.546-0.678-0.915-0.942-0.397c0.467,0.407,0.917,0.41,1.351,0.009
						c0.386-0.211,0.773-0.419,1.162-0.625c0.68-0.36,1.365-0.711,2.054-1.054c1.47-0.732,2.973-1.415,4.419-2.193
						C120.478,101.226,120.279,100.751,119.96,100.848L119.96,100.848z"/>
				</g>
				<g>
					<path style="fill:#D5C3D9;" d="M122.3,102.044c-2.447,0.474-4.716,1.519-6.91,2.672c-0.958,0.503-2.459,1.079-3.084,2.014
						c-0.148,0.222-0.05,0.575,0.183,0.698c0.006,0.003,0.012,0.007,0.019,0.01c0.259,0.136,0.523,0.048,0.689-0.181
						c0.077-0.063,0.153-0.127,0.23-0.19c0.297-0.238-0.028-0.692-0.354-0.607c0.038,0.09,0.076,0.18,0.114,0.27
						c-0.061,0.233-0.122,0.465-0.183,0.698c3.232-1.579,5.859-3.871,9.465-4.773C122.867,102.554,122.696,101.967,122.3,102.044
						L122.3,102.044z"/>
				</g>
				<g>
					<path style="fill:#D5C3D9;" d="M123.416,103.865c-1.791,0.498-3.487,1.229-5.162,2.031c-1.638,0.784-3.523,1.559-4.833,2.832
						c-0.376,0.365,0.009,1.165,0.547,0.94c1.602-0.669,3.001-1.846,4.503-2.725c1.664-0.974,3.401-1.808,5.09-2.736
						C123.747,104.105,123.62,103.808,123.416,103.865L123.416,103.865z"/>
				</g>
				<g>
					<path style="fill:#D5C3D9;" d="M123.387,105.742c-1.433,0.671-2.85,1.371-4.247,2.114c-1.236,0.658-2.672,1.253-3.62,2.306
						c-0.277,0.308-0.013,0.856,0.422,0.725c1.357-0.411,2.521-1.4,3.718-2.14c1.343-0.829,2.709-1.618,4.093-2.377
						C124.169,106.141,123.804,105.546,123.387,105.742L123.387,105.742z"/>
				</g>
				<g>
					<path style="fill:#D5C3D9;" d="M122.634,108.966c-1.428,0.708-3.031,1.322-4.353,2.21c-0.516,0.346-0.071,1.101,0.485,0.83
						c1.431-0.698,2.765-1.777,4.093-2.656C123.099,109.192,122.891,108.839,122.634,108.966L122.634,108.966z"/>
				</g>
				<g>
					<path style="fill:#D5C3D9;" d="M123.433,107.433c6.688-2.516,13.008-4.472,20.271-3.957
						c6.884,0.488,22.388,4.391,19.527,14.412c-2.524,8.84-17.147,9.54-23.715,6.539c-6.545-2.991-12.652-7.287-18.337-11.649
						c-1.196-0.918-2.365,1.117-1.183,2.024c7.633,5.856,17.938,14.338,28.17,13.877c6.615-0.298,16.917-4.055,17.678-11.781
						c0.838-8.508-8.536-13.012-15.394-14.673c-8.942-2.167-19.763-1.071-27.296,4.544
						C122.854,106.992,123.013,107.592,123.433,107.433L123.433,107.433z"/>
				</g>
				<g>
					<path style="fill:#D5C3D9;" d="M122.371,108.875c5.126,0.112,10.245,0.134,15.368,0.396c4.521,0.231,11.988-0.347,15.667,2.825
						c1.783,6.395,0.286,9.385-4.491,8.972c-1.643-0.093-3.262-0.333-4.857-0.721c-2.328-0.465-4.641-1.092-6.931-1.715
						c-4.383-1.191-12.338-2.315-14.908-6.424c-0.71-1.135-2.47-0.118-1.801,1.053c1.358,2.376,3.384,3.379,5.898,4.31
						c4.446,1.646,9.099,2.887,13.701,4.009c5.423,1.322,14.553,3.737,17.509-3.122c6.222-14.437-29.817-10.857-35.221-10.066
						C122.024,108.433,122.104,108.869,122.371,108.875L122.371,108.875z"/>
				</g>
				<g>
					<path style="fill:#D5C3D9;" d="M115.872,100.581c-0.282-8.554-5.218-17.511-10.412-24.073
						c-3.582-4.526-10.746-11.685-16.8-6.369c-4.859,4.267-6.339,12.794-2.418,17.943c5.538,7.273,13.199,15.498,21.574,19.394
						c1.342,0.624,2.524-1.359,1.171-2.004c-5.892-2.808-10.292-7.477-14.747-12.121c-1.834-1.912-3.791-3.763-5.517-5.772
						c-3.272-3.808-3.338-9.82-0.065-13.816c6.735-8.222,15.045,4.063,18.44,9.454c3.478,5.523,5.159,11.568,7.646,17.515
						C114.973,101.282,115.895,101.288,115.872,100.581L115.872,100.581z"/>
				</g>
				<g>
					<path style="fill:#D5C3D9;" d="M113.259,101.608c1.643-6.311-4.468-14.837-7.954-19.658c-2.681-3.708-6.852-9.416-12.245-7.501
						c-5.428,1.928-4.352,9.003-2.058,12.879c1.946,3.288,5.015,5.895,7.674,8.577c3.557,3.588,7.101,7.189,10.652,10.784
						c1.04,1.053,2.682-0.588,1.624-1.624c-3.609-3.536-7.225-7.065-10.828-10.608c-3.365-3.309-9.511-7.988-9.152-13.267
						c2.447-5.442,5.35-6.396,8.707-2.863c0.721,0.715,1.393,1.475,2.016,2.278c1.661,2.034,3.138,4.252,4.514,6.487
						c2.565,4.168,5.855,9.454,6.197,14.402C112.44,101.962,113.13,102.104,113.259,101.608L113.259,101.608z"/>
				</g>
			</g>
			<g>
				<g>
					<path style="fill:#D5C3D9;" d="M146.117,415.566c9.315-3.607,18.714-7.093,28.136-10.421c4.73-1.67,9.475-3.291,14.258-4.806
						c4.414-1.398,10.068-4.145,14.77-3.79c5.805,0.439,8.206,6.461,9.905,11.133c1.777,4.887,3.328,9.872,4.856,14.841
						c3.002,9.761,6.075,19.721,7.834,29.795c1.018,5.827,2.426,13-3.265,16.706c-4.209,2.74-9.346,4.557-13.925,6.611
						c-4.758,2.135-9.557,4.18-14.389,6.143c-4.541,1.845-9.345,4.238-14.222,5.03c-11.044,1.794-15.614-14.227-19.034-22.214
						c-3.985-9.306-7.265-18.922-9.837-28.713c-1.295-4.929-3.453-10.784-3.514-15.895c-0.047-3.911,2.726-4.251,5.8-5.601
						c3.079-1.352,6.173-2.669,9.28-3.956c10.833-4.486,21.871-8.331,32.904-12.28c1.485-0.531,0.89-2.865-0.661-2.396
						c-12.694,3.843-25.133,8.728-37.346,13.884c-2.441,1.031-4.87,2.085-7.296,3.15c-1.598,0.701-4.238,1.339-5.315,2.874
						c-1.895,2.702,0.45,8.59,1.028,11.317c2.563,12.095,6.211,23.958,10.882,35.406c2.099,5.143,4.392,10.206,6.887,15.169
						c1.998,3.975,4.042,8.771,8.139,11.034c3.752,2.073,8.163,1.416,12.079,0.232c5.643-1.707,11.156-4.234,16.581-6.529
						c5.497-2.326,10.946-4.766,16.342-7.318c4.236-2.004,10.102-3.833,11.892-8.685c1.464-3.968,0.527-8.773-0.134-12.838
						c-1.12-6.881-3.092-13.659-4.974-20.362c-1.672-5.952-3.471-11.867-5.393-17.743c-1.612-4.928-2.99-10.38-5.71-14.864
						c-6.318-10.411-17.33-4.885-26.573-1.817c-13.807,4.584-27.166,9.966-40.136,16.535
						C145.766,415.302,145.905,415.648,146.117,415.566L146.117,415.566z"/>
				</g>
				<g>
					<path style="fill:#D5C3D9;" d="M165.639,408.399c2.709,8.074,9.805,14.584,18.635,11.197
						c8.474-3.251,10.637-13.213,7.888-21.083c-0.666-1.906-3.705-1.101-3.051,0.841c2.247,6.678,0.794,15.434-6.924,17.668
						c-8.073,2.337-10.53-4.894-15.372-9.307C166.326,407.271,165.403,407.696,165.639,408.399L165.639,408.399z"/>
				</g>
				<g>
					<path style="fill:#D5C3D9;" d="M160.727,410.172c1.817,11.161,13.203,18.533,23.909,14.622
						c11.544-4.218,15.132-16.929,13.551-28.098c-0.231-1.634-2.721-0.942-2.486,0.685c1.443,10.007-1.847,21.707-12.367,25.247
						c-10.852,3.652-16.987-4.502-21.879-12.763C161.212,409.454,160.658,409.745,160.727,410.172L160.727,410.172z"/>
				</g>
				<g>
					<path style="fill:#D5C3D9;" d="M165.95,408.656c-0.441,1.06-0.868,2.117-1.254,3.198c-0.34,0.952-0.816,1.915-0.897,2.927
						c-0.032,0.396,0.51,0.475,0.699,0.189c0.557-0.843,0.77-1.917,1.087-2.871c0.36-1.084,0.673-2.174,0.976-3.275
						C166.671,408.419,166.102,408.291,165.95,408.656L165.95,408.656z"/>
				</g>
				<g>
					<path style="fill:#D5C3D9;" d="M166.74,410.491c-0.193,1.019-0.379,2.035-0.531,3.06c-0.135,0.911-0.391,1.86-0.292,2.778
						c0.048,0.445,0.624,0.544,0.783,0.106c0.314-0.864,0.295-1.854,0.38-2.766c0.096-1.034,0.158-2.067,0.213-3.103
						C167.309,410.253,166.799,410.177,166.74,410.491L166.74,410.491z"/>
				</g>
				<g>
					<path style="fill:#D5C3D9;" d="M168.803,412.87c-0.528,2.448-1.072,5.754,0.028,8.098c0.197,0.42,0.82,0.187,0.83-0.225
						c0.031-1.298-0.397-2.587-0.473-3.892c-0.076-1.309-0.004-2.608,0.167-3.907C169.397,412.631,168.87,412.562,168.803,412.87
						L168.803,412.87z"/>
				</g>
				<g>
					<path style="fill:#D5C3D9;" d="M170.484,416.736c0.144,1.579,0.217,3.186,0.464,4.752c0.108,0.683,1.147,0.393,1.04-0.287
						c-0.24-1.522-0.658-3.031-0.997-4.534C170.928,416.388,170.457,416.443,170.484,416.736L170.484,416.736z"/>
				</g>
				<g>
					<path style="fill:#D5C3D9;" d="M173.342,418.588c0.098,0.89,0.196,1.78,0.294,2.67c0.077,0.694,0.002,1.36,0.458,1.909
						c0.181,0.218,0.484,0.063,0.568-0.15c0.258-0.65-0.071-1.374-0.209-2.039c-0.171-0.824-0.342-1.647-0.513-2.471
						C173.872,418.176,173.304,418.243,173.342,418.588L173.342,418.588z"/>
				</g>
				<g>
					<path style="fill:#D5C3D9;" d="M175.564,419.845c0.207,1.079,0.414,2.158,0.62,3.237c0.115,0.601,1.092,0.348,0.927-0.256
						c-0.29-1.056-0.579-2.112-0.869-3.168C176.121,419.217,175.48,419.406,175.564,419.845L175.564,419.845z"/>
				</g>
				<g>
					<path style="fill:#D5C3D9;" d="M179.037,420.357c-0.133,0.874-0.044,1.73,0.301,2.548c0.282,0.667,0.824,1.66,1.617,1.767
						c0.343,0.047,0.617-0.251,0.45-0.585c-0.295-0.589-0.965-0.925-1.331-1.491c-0.423-0.656-0.619-1.405-0.622-2.182
						C179.45,420.184,179.074,420.115,179.037,420.357L179.037,420.357z"/>
				</g>
				<g>
					<path style="fill:#D5C3D9;" d="M182.076,419.395c-0.065,0.99,0.212,1.974,0.786,2.785c0.51,0.72,1.336,1.495,2.279,1.408
						c0.25-0.023,0.474-0.362,0.232-0.56c-0.576-0.471-1.269-0.718-1.792-1.269c-0.618-0.651-0.946-1.471-0.966-2.365
						C182.608,419.046,182.099,419.051,182.076,419.395L182.076,419.395z"/>
				</g>
				<g>
					<path style="fill:#D5C3D9;" d="M185.586,417.456c-0.022,1.432,0.926,3.568,2.54,3.787c0.432,0.059,0.669-0.438,0.298-0.707
						c-0.53-0.384-1.099-0.6-1.542-1.113c-0.48-0.556-0.76-1.239-0.828-1.967C186.027,417.16,185.59,417.148,185.586,417.456
						L185.586,417.456z"/>
				</g>
				<g>
					<path style="fill:#D5C3D9;" d="M187.848,415.024c0.447,1.896,2.31,3.247,4.249,2.925c0.562-0.093,0.428-1.011-0.134-0.99
						c-1.462,0.054-2.835-0.717-3.257-2.172C188.548,414.236,187.717,414.466,187.848,415.024L187.848,415.024z"/>
				</g>
				<g>
					<path style="fill:#D5C3D9;" d="M190.461,413.952c0.501,0.279,0.993,0.526,1.522,0.748c0.477,0.2,0.93,0.447,1.433,0.225
						c0.164-0.072,0.197-0.309,0.118-0.449c-0.258-0.458-0.836-0.533-1.31-0.649c-0.549-0.134-1.09-0.217-1.65-0.29
						C190.347,413.508,190.281,413.852,190.461,413.952L190.461,413.952z"/>
				</g>
				<g>
					<path style="fill:#D5C3D9;" d="M191.621,411.02c1.118,0.713,2.711,1.125,3.899,0.368c0.424-0.27,0.29-1.04-0.272-1.004
						c-1.106,0.069-2.099,0.314-3.165-0.152C191.555,409.999,191.113,410.695,191.621,411.02L191.621,411.02z"/>
				</g>
				<g>
					<path style="fill:#D5C3D9;" d="M193.032,407.893c1.039-0.064,2.438-0.392,2.913-1.434c0.133-0.293-0.09-0.699-0.45-0.585
						c-0.449,0.142-0.801,0.405-1.217,0.62c-0.443,0.229-0.875,0.414-1.364,0.524C192.429,407.127,192.527,407.924,193.032,407.893
						L193.032,407.893z"/>
				</g>
				<g>
					<path style="fill:#D5C3D9;" d="M193.175,404.501c0.574-0.225,1.133-0.439,1.674-0.736c0.527-0.29,1.156-0.535,1.557-0.993
						c0.299-0.342,0.009-0.83-0.433-0.744c-0.597,0.116-1.128,0.541-1.642,0.85c-0.527,0.317-0.992,0.694-1.474,1.076
						C192.604,404.153,192.877,404.618,193.175,404.501L193.175,404.501z"/>
				</g>
				<g>
					<path style="fill:#D5C3D9;" d="M191.976,401.722c1.041-0.4,2.223-0.712,3.145-1.347c0.317-0.219,0.124-0.702-0.262-0.621
						c-1.096,0.229-2.137,0.869-3.145,1.347C191.37,401.264,191.615,401.861,191.976,401.722L191.976,401.722z"/>
				</g>
				<g>
					<path style="fill:#D5C3D9;" d="M176.767,407.965c-0.043,1.754,0.288,4.528,2.625,3.633c1.428-0.547,2.812-1.383,4.17-2.085
						c0.819-0.423,1.763-0.856,2.28-1.665c0.855-1.337,0.101-2.816-1.434-3.055c-0.956-0.149-1.89,0.162-2.788,0.447
						c-1.694,0.537-3.38,1.099-5.07,1.649c-0.503,0.164-0.67,0.665-0.457,1.124c0.337,0.728,0.63,1.434,1.119,2.073
						c0.42,0.548,1.325,0.257,1.157-0.488c-0.19-0.841-0.584-1.581-0.954-2.358c-0.152,0.375-0.305,0.75-0.457,1.124
						c1.475-0.496,2.949-0.992,4.424-1.487c0.62-0.208,1.368-0.598,2.037-0.624c0.731-0.249,1.068,0.108,1.011,1.069
						c-0.244,0.229-0.512,0.42-0.805,0.574c-1.242,0.76-2.609,1.354-3.898,2.031c-0.285,0.146-0.568,0.297-0.848,0.452
						c-0.553,0.02-0.84-0.24-0.86-0.78c-0.346-0.522-0.471-1.206-0.815-1.753C177.08,407.649,176.773,407.729,176.767,407.965
						L176.767,407.965z"/>
				</g>
			</g>
			<g>
				<g>
					<g>
						<path style="fill:#D5C3D9;" d="M355.551,97.165c-4.912,0.742-10.121,2.471-14.95,0.462c-1.214-0.356-2.269-1-3.165-1.931
							c-0.842-3.15,0.022-5.243,2.592-6.28c2.086-1.102,4.461-1.419,6.776-1.574c7.9-0.529,16.907,0.368,24.095,3.861
							c8.042,3.908,13.233,12.085,18.124,19.255c2.353,3.449,4.595,6.975,6.721,10.568c1.864,3.15,5.308,7.407,6.122,10.923
							c1.517,1.697,0.981,3.147-1.608,4.348c-0.969,0.023-1.936-0.007-2.9-0.09c-2.828-0.182-5.585-0.707-8.345-1.313
							c-3.88-0.851-7.988-1.705-11.575-3.466c-7.958-3.905-10.642-13.312-13.707-20.951c-3.824-9.531-10.547-27.941-24.029-23.726
							c-0.976,0.305-0.575,1.79,0.424,1.537c11.036-2.796,17.226,13.681,20.367,21.324c2.744,6.676,5.154,14.498,10.208,19.84
							c5.004,5.288,12.823,6.59,19.632,7.99c3.441,0.708,13.92,3.837,15.3-1.372c0.615-2.319-1.32-5.111-2.285-7.057
							c-2.256-4.547-4.769-8.949-7.447-13.26c-4.525-7.281-9.399-15.038-15.45-21.173c-5.495-5.571-12.643-8.344-20.283-9.483
							c-6.519-0.972-14.406-1.776-20.679,0.772c-4.752,1.93-9.051,7.231-4.36,11.635c5.66,5.314,14.717,3.271,20.938,0.383
							C356.81,98.04,356.233,97.062,355.551,97.165L355.551,97.165z"/>
					</g>
					<g>
						<path style="fill:#D5C3D9;" d="M365.25,88.749c10.096-6.314,20.959-11.456,33.119-11.48
							c10.815-0.021,21.529,4.264,29.02,12.139c3.806,4.002,6.972,9.191,7.994,14.68c1.039,5.583-0.913,11.976-2.608,17.302
							c-2.046,6.428-6.107,11.042-10.556,15.938c-0.995,1.095-1.981,2.198-2.985,3.285c-1.846,1.997-1.837,2.361-4.968,2.342
							c-3.225-0.02-3.182-0.581-5.029-2.698c-1.153-1.322-2.343-2.614-3.514-3.92c-1.326-1.479-3.567,0.742-2.188,2.188
							c3.278,3.435,7.65,10.659,13.191,7.642c3.11-1.693,5.439-5.235,7.77-7.816c2.328-2.578,4.767-5.12,6.686-8.03
							c7.077-10.727,9.465-25.745,2.54-36.932c-14.869-24.018-49.806-23.352-69.197-5.578
							C364.026,88.268,364.674,89.11,365.25,88.749L365.25,88.749z"/>
					</g>
					<g>
						<path style="fill:#D5C3D9;" d="M432.278,94.983c-2.394,7.781-5.655,14.547-11.185,20.625
							c-5.376,5.909-11.759,10.729-18.081,15.563c-1.108,0.847-0.026,2.758,1.112,1.902c12.174-9.157,28.072-21.258,28.706-38.016
							C432.843,94.733,432.37,94.686,432.278,94.983L432.278,94.983z"/>
					</g>
					<g>
						<path style="fill:#D5C3D9;" d="M345.545,88.306c-2.128,0.736-4.105,1.652-6.009,2.861c-1.502,0.954-3.257,2.002-4.014,3.683
							c-0.214,0.476,0.488,0.895,0.708,0.414c0.812-1.769,2.937-2.951,4.535-3.957c1.577-0.993,3.225-1.899,4.906-2.701
							C345.839,88.527,345.721,88.246,345.545,88.306L345.545,88.306z"/>
					</g>
					<g>
						<path style="fill:#D5C3D9;" d="M347.039,89.217c-1.788,0.035-3.745,1.583-5.109,2.626c-1.705,1.305-3.254,2.825-4.432,4.627
							c-0.351,0.536,0.492,1.211,0.902,0.696c1.236-1.556,2.473-3.077,3.978-4.385c1.418-1.233,3.492-2.056,4.71-3.443
							C347.128,89.293,347.104,89.216,347.039,89.217L347.039,89.217z"/>
					</g>
					<g>
						<path style="fill:#D5C3D9;" d="M349.098,90.613c-2.298,0.654-4.594,2.685-6.302,4.309c-0.876,0.833-3.832,3.021-2.526,4.393
							c0.393,0.413,1.212-0.011,0.999-0.582c-0.193-0.518,1.483-2.065,1.779-2.381c0.632-0.676,1.299-1.316,1.978-1.945
							c1.339-1.242,2.996-2.183,4.254-3.481C349.409,90.794,349.281,90.561,349.098,90.613L349.098,90.613z"/>
					</g>
					<g>
						<path style="fill:#D5C3D9;" d="M350.515,92.001c-1.557,0.563-2.897,2.049-4.016,3.221c-1.042,1.091-2.587,2.535-2.744,4.093
							c-0.049,0.481,0.56,0.758,0.934,0.536c1.292-0.765,2.078-2.589,3.04-3.728c1.016-1.203,2.406-2.184,3.274-3.485
							C351.208,92.334,350.868,91.873,350.515,92.001L350.515,92.001z"/>
					</g>
					<g>
						<path style="fill:#D5C3D9;" d="M352.151,93.695c-1.251,1.503-2.514,2.995-3.721,4.534c-0.553,0.705,0.48,1.504,0.975,0.753
							c1.081-1.64,2.1-3.318,3.132-4.988C352.681,93.761,352.333,93.477,352.151,93.695L352.151,93.695z"/>
					</g>
				</g>
				<g>
					<path style="fill:#D5C3D9;" d="M408.2,131.756c-1.148,1.572-2.639,2.671-4.318,3.616c-0.62,0.349-0.071,1.279,0.556,0.951
						c1.811-0.947,3.214-2.547,4.187-4.319C408.781,131.721,408.384,131.505,408.2,131.756L408.2,131.756z"/>
				</g>
				<g>
					<path style="fill:#D5C3D9;" d="M408.78,133.775c-0.567,0.605-1.163,1.182-1.795,1.719c-0.62,0.527-1.414,0.945-1.956,1.546
						c-0.357,0.395,0.087,0.94,0.554,0.718c0.746-0.355,1.391-1.117,1.959-1.707c0.594-0.616,1.142-1.271,1.662-1.95
						C409.391,133.858,408.987,133.555,408.78,133.775L408.78,133.775z"/>
				</g>
				<g>
					<path style="fill:#D5C3D9;" d="M408.953,136.251c-0.487,0.384-0.974,0.768-1.461,1.152c-0.443,0.349-1,0.65-1.188,1.202
						c-0.121,0.355,0.249,0.653,0.577,0.577c0.551-0.128,0.927-0.693,1.305-1.085c0.427-0.444,0.855-0.887,1.282-1.331
						C409.8,136.419,409.311,135.968,408.953,136.251L408.953,136.251z"/>
				</g>
				<g>
					<path style="fill:#D5C3D9;" d="M409.058,138.32c-0.637,0.547-1.431,1.074-1.908,1.771c-0.294,0.43,0.305,1.06,0.738,0.738
						c0.681-0.509,1.176-1.315,1.701-1.979C409.885,138.476,409.431,138,409.058,138.32L409.058,138.32z"/>
				</g>
				<g>
					<path style="fill:#D5C3D9;" d="M409.358,140.128c-0.184,0.446-0.527,0.589-0.898,0.837c-0.71,0.475-0.1,1.487,0.662,1.133
						c0.677-0.314,1.013-1.159,1.064-1.858C410.224,139.723,409.524,139.726,409.358,140.128L409.358,140.128z"/>
				</g>
				<g>
					<path style="fill:#D5C3D9;" d="M429.029,99.813c-0.087,1.868-0.475,4.102,0,5.926c0.089,0.343,0.652,0.372,0.723,0
						c0.358-1.86-0.166-4.061-0.371-5.926C429.357,99.592,429.04,99.582,429.029,99.813L429.029,99.813z"/>
				</g>
				<g>
					<path style="fill:#D5C3D9;" d="M427.066,102.46c0.143,1.643,0.106,3.474,0.613,5.054c0.142,0.441,0.835,0.379,0.829-0.112
						c-0.023-1.668-0.637-3.387-1.028-4.998C427.426,102.178,427.045,102.22,427.066,102.46L427.066,102.46z"/>
				</g>
				<g>
					<path style="fill:#D5C3D9;" d="M425.411,105.713c0.219,1.245,0.313,2.62,0.717,3.818c0.227,0.672,1.21,0.403,1.062-0.293
						c-0.262-1.237-0.881-2.466-1.327-3.65C425.756,105.305,425.359,105.414,425.411,105.713L425.411,105.713z"/>
				</g>
				<g>
					<path style="fill:#D5C3D9;" d="M424.254,108.949c-0.012,0.449-0.024,0.898-0.036,1.347c-0.011,0.425-0.095,0.893,0.069,1.292
						c0.174,0.426,0.872,0.55,0.994,0c0.101-0.452-0.037-0.876-0.126-1.323c-0.093-0.467-0.186-0.934-0.279-1.401
						C424.804,108.506,424.263,108.603,424.254,108.949L424.254,108.949z"/>
				</g>
				<g>
					<path style="fill:#D5C3D9;" d="M428.522,112.541c-1.797-0.034-3.735,0.084-5.453,0.656c-0.499,0.166-0.299,0.917,0.218,0.791
						c1.752-0.427,3.42-0.844,5.235-0.931C428.852,113.041,428.855,112.547,428.522,112.541L428.522,112.541z"/>
				</g>
				<g>
					<path style="fill:#D5C3D9;" d="M425.937,114.628c-1.108,0.069-2.29,0.025-3.381,0.214c-0.542,0.094-0.422,1.018,0.131,0.967
						c1.102-0.102,2.232-0.452,3.319-0.674C426.288,115.077,426.228,114.61,425.937,114.628L425.937,114.628z"/>
				</g>
				<g>
					<path style="fill:#D5C3D9;" d="M424.614,116.129c-1.017-0.069-2.086-0.24-3.104-0.169c-0.655,0.046-0.671,1.028,0,1.031
						c1.026,0.006,2.087-0.235,3.104-0.37C424.921,116.581,424.938,116.151,424.614,116.129L424.614,116.129z"/>
				</g>
				<g>
					<path style="fill:#D5C3D9;" d="M422.597,117.36c-0.45,0.066-0.9,0.132-1.349,0.198c-0.408,0.06-0.687,0.097-0.944,0.442
						c-0.109,0.147-0.034,0.422,0.13,0.497c0.399,0.182,0.655,0.075,1.052-0.074c0.424-0.158,0.849-0.317,1.273-0.475
						C423.132,117.809,422.982,117.304,422.597,117.36L422.597,117.36z"/>
				</g>
				<g>
					<path style="fill:#D5C3D9;" d="M376.356,128.947c0.279,0.883,0.587,1.698,0.976,2.539c0.363,0.786,0.662,1.818,1.353,2.369
						c0.277,0.221,0.779,0.107,0.76-0.315c-0.038-0.845-0.585-1.585-0.99-2.307c-0.493-0.877-1.007-1.686-1.606-2.494
						C376.68,128.512,376.256,128.632,376.356,128.947L376.356,128.947z"/>
				</g>
				<g>
					<path style="fill:#D5C3D9;" d="M379.724,131.059c0.272,0.728,0.545,1.456,0.818,2.184c0.218,0.583,0.335,1.23,0.879,1.58
						c0.25,0.161,0.524-0.056,0.547-0.314c0.056-0.642-0.435-1.172-0.758-1.697c-0.388-0.63-0.776-1.26-1.164-1.889
						C379.946,130.761,379.652,130.865,379.724,131.059L379.724,131.059z"/>
				</g>
				<g>
					<path style="fill:#D5C3D9;" d="M382.207,133.038c0.173,0.573,0.347,1.146,0.52,1.719c0.154,0.508,0.217,1.131,0.648,1.476
						c0.343,0.275,0.831,0.104,0.86-0.356c0.035-0.562-0.371-1.017-0.65-1.481c-0.309-0.516-0.619-1.031-0.928-1.547
						C382.516,132.614,382.124,132.766,382.207,133.038L382.207,133.038z"/>
				</g>
				<g>
					<path style="fill:#D5C3D9;" d="M399.12,132.58c0.612,1.708,1.133,3.533,1.438,5.323c0.133,0.781,1.349,0.457,1.198-0.33
						c-0.379-1.967-1.115-3.596-2.42-5.118C399.252,132.358,399.077,132.46,399.12,132.58L399.12,132.58z"/>
				</g>
				<g>
					<path style="fill:#D5C3D9;" d="M398.444,136.061c0.109,0.514,0.219,1.029,0.328,1.543c0.106,0.499,0.168,1.014,0.4,1.472
						c0.34,0.67,1.247,0.171,1.135-0.479c-0.084-0.486-0.371-0.951-0.575-1.398c-0.215-0.47-0.431-0.94-0.646-1.41
						C398.913,135.411,398.365,135.691,398.444,136.061L398.444,136.061z"/>
				</g>
			</g>
			<g>
				<path style="fill:#D5C3D9;" d="M380.022,170.257c-2.182,0.423-3.404,2.724-3.373,4.841c0.033,2.272,1.698,4.359,3.819,5.084
					c4.471,1.528,9.052-3.36,7.067-7.73c-1.883-4.144-8.015-4.61-10.248-0.566c-2.143,3.881,0.888,9.786,5.758,8.35
					c4.469-1.318,6.666-10.259,1.225-11.707c-1.082-0.288-1.76,1.253-0.768,1.821c2.939,1.681,1.986,7.773-1.707,7.866
					c-4.182,0.104-3.835-6.747,0.084-7.026c3.962-0.282,5.482,5.016,1.917,6.841c-1.882,0.963-4.361-0.173-5.068-2.122
					c-0.705-1.941,0.465-3.645,1.625-5.084C380.567,170.56,380.37,170.189,380.022,170.257L380.022,170.257z"/>
			</g>
			<g>
				<path style="fill:#D5C3D9;" d="M85.279,437.698c-2.182,0.423-3.404,2.724-3.373,4.842c0.033,2.272,1.698,4.359,3.819,5.084
					c4.471,1.528,9.052-3.36,7.067-7.73c-1.883-4.144-8.015-4.61-10.248-0.566c-2.143,3.881,0.888,9.786,5.758,8.35
					c4.469-1.318,6.666-10.259,1.225-11.707c-1.082-0.288-1.76,1.253-0.768,1.821c2.939,1.681,1.986,7.773-1.707,7.866
					c-4.182,0.104-3.835-6.747,0.084-7.026c3.962-0.282,5.482,5.016,1.917,6.841c-1.882,0.964-4.36-0.172-5.068-2.122
					c-0.705-1.941,0.465-3.645,1.625-5.084C85.824,438.001,85.627,437.63,85.279,437.698L85.279,437.698z"/>
			</g>
			<g>
				<path style="fill:#D5C3D9;" d="M40.82,45.26c-2.182,0.423-3.404,2.724-3.373,4.841c0.033,2.272,1.698,4.359,3.819,5.084
					c4.471,1.528,9.052-3.36,7.067-7.73c-1.883-4.144-8.015-4.61-10.248-0.566c-2.143,3.881,0.888,9.786,5.758,8.35
					c4.469-1.318,6.666-10.258,1.226-11.707c-1.082-0.288-1.76,1.253-0.768,1.821c2.938,1.681,1.986,7.774-1.707,7.866
					c-4.182,0.104-3.835-6.746,0.084-7.026c3.962-0.282,5.482,5.016,1.917,6.841c-1.882,0.963-4.36-0.173-5.068-2.122
					c-0.705-1.941,0.465-3.645,1.625-5.084C41.364,45.563,41.168,45.192,40.82,45.26L40.82,45.26z"/>
			</g>
			<g>
				<path style="fill:#D5C3D9;" d="M346.971,38.23c-2.182,0.423-3.404,2.724-3.373,4.841c0.033,2.272,1.698,4.359,3.819,5.084
					c4.471,1.528,9.052-3.36,7.067-7.73c-1.883-4.144-8.015-4.61-10.248-0.566c-2.143,3.881,0.888,9.786,5.758,8.35
					c4.469-1.318,6.666-10.259,1.225-11.707c-1.082-0.288-1.76,1.253-0.767,1.821c2.939,1.681,1.986,7.774-1.707,7.866
					c-4.182,0.104-3.835-6.747,0.084-7.026c3.962-0.282,5.482,5.016,1.917,6.841c-1.882,0.963-4.361-0.173-5.068-2.122
					c-0.705-1.941,0.465-3.645,1.625-5.084C347.516,38.533,347.319,38.162,346.971,38.23L346.971,38.23z"/>
			</g>
			<g>
				<path style="fill:#D5C3D9;" d="M115.16,201.861c-2.182,0.423-3.404,2.724-3.373,4.841c0.033,2.272,1.698,4.359,3.819,5.084
					c4.471,1.528,9.052-3.36,7.067-7.73c-1.883-4.144-8.015-4.61-10.248-0.566c-2.143,3.881,0.888,9.786,5.758,8.35
					c4.469-1.318,6.666-10.258,1.225-11.707c-1.082-0.288-1.76,1.253-0.768,1.821c2.938,1.681,1.986,7.773-1.707,7.866
					c-4.182,0.105-3.835-6.747,0.084-7.026c3.962-0.282,5.482,5.016,1.917,6.841c-1.882,0.964-4.36-0.173-5.068-2.122
					c-0.705-1.941,0.465-3.645,1.625-5.084C115.705,202.164,115.508,201.794,115.16,201.861L115.16,201.861z"/>
			</g>
			<g>
				<path style="fill:#D5C3D9;" d="M380.199,431.79c-2.182,0.423-3.404,2.724-3.373,4.841c0.033,2.272,1.698,4.359,3.819,5.084
					c4.471,1.528,9.052-3.36,7.067-7.73c-1.883-4.144-8.015-4.61-10.248-0.566c-2.143,3.881,0.888,9.786,5.758,8.35
					c4.469-1.318,6.666-10.258,1.225-11.707c-1.082-0.288-1.76,1.253-0.768,1.821c2.938,1.681,1.986,7.774-1.707,7.866
					c-4.181,0.104-3.835-6.747,0.084-7.026c3.962-0.282,5.482,5.016,1.917,6.841c-1.882,0.963-4.361-0.173-5.068-2.122
					c-0.705-1.941,0.465-3.645,1.625-5.084C380.744,432.093,380.547,431.722,380.199,431.79L380.199,431.79z"/>
			</g>
			<g>
				<g>
					<path style="fill:#D5C3D9;" d="M314.67,110.145c-0.788,3.78-3.984,5.37-7.387,6.368c-0.929,0.272-1.122,1.573-0.271,2.071
						c3.23,1.888,4.004,5.255,5.432,8.432c0.217,0.482,1.052,0.598,1.383,0.178c2.404-3.052,4.964-6.225,9.089-6.701
						c0.85-0.098,1.307-1.204,0.461-1.703c-3.054-1.801-5.14-3.9-5.373-7.554c-0.08-1.259,0.046-1.881-0.851-2.835
						c-0.459-0.488-1.295-0.351-1.623,0.209c-2.21,3.772-3.223,7.035-8.123,7.787c-1.021,0.157-0.753,1.776,0.24,1.772
						c5.563-0.018,7.22-4.417,9.668-8.516c-0.541,0.07-1.082,0.139-1.623,0.209c0.525,0.568,0.257,2.909,0.499,3.779
						c0.268,0.963,0.758,1.841,1.334,2.646c1.271,1.773,3.073,2.988,4.929,4.082c0.154-0.568,0.307-1.136,0.461-1.703
						c-4.711,0.544-7.544,3.675-10.335,7.284c0.491,0.13,0.981,0.259,1.472,0.389c-0.649-3.811-2.511-7.673-5.898-9.71
						c-0.09,0.69-0.18,1.381-0.271,2.071c4.012-1.305,7.556-3.879,7.429-8.466C315.304,109.876,314.748,109.769,314.67,110.145
						L314.67,110.145z"/>
				</g>
			</g>
			<g>
				<g>
					<path style="fill:#D5C3D9;" d="M453.378,39.72c-0.788,3.78-3.984,5.37-7.387,6.368c-0.929,0.272-1.122,1.573-0.271,2.071
						c3.23,1.888,4.004,5.255,5.432,8.432c0.217,0.482,1.052,0.598,1.383,0.178c2.404-3.052,4.964-6.225,9.089-6.701
						c0.85-0.098,1.307-1.204,0.461-1.703c-3.054-1.801-5.14-3.9-5.373-7.554c-0.08-1.259,0.046-1.882-0.85-2.835
						c-0.459-0.488-1.295-0.351-1.623,0.209c-2.21,3.772-3.223,7.035-8.124,7.787c-1.021,0.157-0.753,1.776,0.24,1.772
						c5.563-0.018,7.22-4.417,9.668-8.516c-0.541,0.07-1.082,0.139-1.623,0.209c0.525,0.568,0.257,2.91,0.499,3.779
						c0.268,0.963,0.758,1.841,1.334,2.646c1.271,1.774,3.073,2.988,4.929,4.082c0.154-0.568,0.307-1.136,0.461-1.703
						c-4.711,0.544-7.544,3.675-10.335,7.284c0.491,0.13,0.981,0.259,1.472,0.389c-0.649-3.811-2.511-7.673-5.898-9.71
						c-0.09,0.69-0.181,1.381-0.271,2.071c4.012-1.305,7.556-3.878,7.429-8.466C454.013,39.451,453.457,39.344,453.378,39.72
						L453.378,39.72z"/>
				</g>
			</g>
			<g>
				<g>
					<path style="fill:#D5C3D9;" d="M37.81,380.4c-0.788,3.78-3.984,5.37-7.387,6.368c-0.929,0.273-1.122,1.573-0.271,2.071
						c3.23,1.888,4.004,5.255,5.432,8.432c0.217,0.482,1.052,0.598,1.383,0.178c2.404-3.052,4.964-6.225,9.089-6.701
						c0.85-0.098,1.307-1.204,0.461-1.703c-3.054-1.801-5.14-3.9-5.373-7.554c-0.08-1.259,0.046-1.882-0.85-2.835
						c-0.459-0.488-1.295-0.351-1.623,0.209c-2.21,3.772-3.223,7.035-8.123,7.787c-1.021,0.157-0.753,1.776,0.24,1.772
						c5.563-0.018,7.22-4.417,9.668-8.516c-0.541,0.07-1.082,0.139-1.623,0.209c0.525,0.568,0.257,2.909,0.499,3.779
						c0.268,0.963,0.758,1.841,1.334,2.646c1.271,1.773,3.073,2.988,4.929,4.082c0.154-0.568,0.308-1.136,0.461-1.703
						c-4.711,0.544-7.544,3.675-10.335,7.284c0.491,0.129,0.981,0.259,1.472,0.389c-0.649-3.811-2.511-7.673-5.898-9.71
						c-0.09,0.69-0.181,1.381-0.271,2.071c4.012-1.305,7.556-3.879,7.429-8.466C38.444,380.131,37.888,380.025,37.81,380.4
						L37.81,380.4z"/>
				</g>
			</g>
			<g>
				<g>
					<path style="fill:#D5C3D9;" d="M453.441,385.239c-0.788,3.78-3.984,5.37-7.387,6.368c-0.929,0.272-1.122,1.573-0.271,2.071
						c3.23,1.888,4.004,5.255,5.432,8.432c0.217,0.482,1.052,0.598,1.383,0.178c2.404-3.052,4.964-6.225,9.089-6.701
						c0.85-0.098,1.307-1.204,0.461-1.703c-3.054-1.801-5.14-3.9-5.373-7.554c-0.08-1.259,0.046-1.882-0.851-2.835
						c-0.459-0.488-1.295-0.351-1.623,0.209c-2.21,3.772-3.224,7.035-8.124,7.787c-1.021,0.157-0.753,1.776,0.24,1.772
						c5.563-0.018,7.22-4.417,9.668-8.517c-0.541,0.07-1.082,0.139-1.623,0.209c0.525,0.568,0.257,2.909,0.499,3.779
						c0.268,0.963,0.758,1.841,1.334,2.646c1.271,1.773,3.073,2.988,4.929,4.082c0.154-0.568,0.307-1.136,0.461-1.703
						c-4.711,0.544-7.544,3.675-10.335,7.284c0.491,0.129,0.981,0.259,1.472,0.389c-0.649-3.811-2.511-7.673-5.898-9.71
						c-0.09,0.69-0.181,1.381-0.271,2.071c4.012-1.305,7.556-3.878,7.429-8.466C454.076,384.97,453.519,384.863,453.441,385.239
						L453.441,385.239z"/>
				</g>
			</g>
			<g>
				<g>
					<path style="fill:#D5C3D9;" d="M393.187,293.418c-0.788,3.78-3.984,5.37-7.387,6.368c-0.929,0.272-1.122,1.573-0.271,2.071
						c3.23,1.888,4.004,5.255,5.432,8.432c0.217,0.482,1.052,0.598,1.383,0.178c2.404-3.052,4.964-6.225,9.089-6.701
						c0.85-0.098,1.307-1.204,0.461-1.703c-3.054-1.801-5.14-3.9-5.373-7.554c-0.08-1.259,0.046-1.882-0.851-2.835
						c-0.459-0.488-1.295-0.351-1.623,0.209c-2.21,3.772-3.224,7.035-8.124,7.787c-1.021,0.157-0.753,1.776,0.24,1.772
						c5.563-0.018,7.22-4.417,9.668-8.517c-0.541,0.07-1.082,0.139-1.623,0.209c0.525,0.568,0.257,2.909,0.499,3.779
						c0.268,0.963,0.758,1.841,1.334,2.646c1.271,1.773,3.073,2.988,4.929,4.082c0.154-0.568,0.307-1.136,0.461-1.703
						c-4.711,0.544-7.544,3.675-10.335,7.284c0.491,0.129,0.981,0.259,1.472,0.389c-0.649-3.811-2.511-7.673-5.898-9.71
						c-0.09,0.69-0.181,1.381-0.271,2.071c4.012-1.305,7.556-3.879,7.429-8.466C393.822,293.149,393.265,293.042,393.187,293.418
						L393.187,293.418z"/>
				</g>
			</g>
			<g>
				<g>
					<path style="fill:#D5C3D9;" d="M246.649,402.834c-0.788,3.78-3.984,5.37-7.387,6.368c-0.929,0.273-1.122,1.573-0.271,2.071
						c3.23,1.888,4.004,5.255,5.432,8.432c0.216,0.482,1.052,0.598,1.383,0.178c2.404-3.052,4.964-6.225,9.089-6.701
						c0.85-0.098,1.307-1.204,0.461-1.703c-3.054-1.801-5.14-3.9-5.373-7.555c-0.08-1.259,0.046-1.881-0.85-2.835
						c-0.459-0.488-1.295-0.351-1.623,0.209c-2.21,3.772-3.224,7.035-8.124,7.787c-1.021,0.157-0.753,1.776,0.24,1.772
						c5.563-0.018,7.22-4.417,9.668-8.516c-0.541,0.07-1.082,0.139-1.623,0.209c0.525,0.568,0.257,2.909,0.499,3.779
						c0.268,0.963,0.758,1.841,1.334,2.646c1.271,1.774,3.073,2.988,4.928,4.082c0.154-0.568,0.308-1.136,0.461-1.703
						c-4.711,0.544-7.544,3.675-10.335,7.284c0.491,0.13,0.981,0.259,1.472,0.389c-0.649-3.811-2.511-7.673-5.898-9.71
						c-0.09,0.69-0.18,1.381-0.271,2.071c4.012-1.305,7.556-3.879,7.429-8.466C247.283,402.565,246.727,402.458,246.649,402.834
						L246.649,402.834z"/>
				</g>
			</g>
			<g>
				<g>
					<path style="fill:#D5C3D9;" d="M156.464,357.783c-0.788,3.78-3.984,5.37-7.387,6.368c-0.929,0.272-1.122,1.573-0.271,2.071
						c3.23,1.888,4.004,5.255,5.432,8.432c0.217,0.482,1.052,0.598,1.383,0.178c2.404-3.052,4.964-6.225,9.089-6.701
						c0.85-0.098,1.307-1.204,0.461-1.703c-3.054-1.801-5.14-3.9-5.373-7.554c-0.08-1.259,0.046-1.881-0.85-2.835
						c-0.459-0.488-1.295-0.351-1.623,0.209c-2.21,3.772-3.224,7.035-8.123,7.787c-1.021,0.157-0.753,1.776,0.24,1.772
						c5.563-0.018,7.22-4.417,9.668-8.516c-0.541,0.07-1.082,0.139-1.623,0.209c0.525,0.568,0.257,2.909,0.499,3.779
						c0.268,0.963,0.757,1.841,1.334,2.646c1.271,1.774,3.073,2.988,4.928,4.082c0.154-0.568,0.308-1.136,0.461-1.703
						c-4.711,0.544-7.544,3.675-10.335,7.284c0.49,0.129,0.981,0.259,1.472,0.389c-0.649-3.811-2.511-7.673-5.898-9.71
						c-0.09,0.69-0.18,1.381-0.271,2.071c4.012-1.305,7.556-3.879,7.429-8.466C157.098,357.514,156.542,357.407,156.464,357.783
						L156.464,357.783z"/>
				</g>
			</g>
			<g>
				<g>
					<path style="fill:#D5C3D9;" d="M28.619,223.206c-0.788,3.78-3.984,5.37-7.387,6.368c-0.929,0.272-1.122,1.573-0.271,2.071
						c3.23,1.888,4.004,5.255,5.432,8.432c0.217,0.482,1.052,0.598,1.383,0.178c2.404-3.052,4.964-6.225,9.089-6.701
						c0.85-0.098,1.307-1.204,0.461-1.703c-3.054-1.801-5.14-3.9-5.373-7.554c-0.08-1.259,0.046-1.882-0.851-2.835
						c-0.459-0.488-1.295-0.351-1.623,0.209c-2.21,3.772-3.224,7.035-8.123,7.787c-1.021,0.157-0.753,1.776,0.24,1.773
						c5.563-0.018,7.22-4.417,9.668-8.516c-0.541,0.07-1.082,0.139-1.623,0.209c0.525,0.568,0.257,2.909,0.499,3.779
						c0.268,0.963,0.758,1.841,1.334,2.646c1.271,1.773,3.073,2.988,4.928,4.082c0.154-0.568,0.308-1.136,0.461-1.703
						c-4.711,0.544-7.544,3.675-10.335,7.284c0.491,0.13,0.981,0.259,1.472,0.389c-0.649-3.811-2.511-7.673-5.898-9.71
						c-0.09,0.69-0.18,1.381-0.271,2.071c4.012-1.305,7.556-3.878,7.429-8.466C29.253,222.937,28.697,222.831,28.619,223.206
						L28.619,223.206z"/>
				</g>
			</g>
			<g>
				<g>
					<path style="fill:#D5C3D9;" d="M168.163,41.769c-0.788,3.78-3.984,5.37-7.387,6.368c-0.929,0.273-1.122,1.573-0.271,2.071
						c3.23,1.888,4.004,5.255,5.432,8.432c0.216,0.482,1.052,0.598,1.383,0.178c2.404-3.052,4.964-6.225,9.089-6.701
						c0.85-0.098,1.307-1.205,0.461-1.703c-3.054-1.801-5.14-3.9-5.373-7.554c-0.08-1.259,0.046-1.881-0.85-2.835
						c-0.459-0.488-1.295-0.351-1.623,0.209c-2.21,3.772-3.224,7.035-8.124,7.787c-1.021,0.157-0.753,1.776,0.24,1.773
						c5.563-0.018,7.22-4.417,9.668-8.517c-0.541,0.07-1.082,0.139-1.623,0.209c0.525,0.568,0.257,2.91,0.499,3.779
						c0.268,0.963,0.758,1.841,1.334,2.646c1.271,1.773,3.073,2.988,4.928,4.082c0.154-0.568,0.308-1.136,0.461-1.703
						c-4.711,0.544-7.544,3.675-10.335,7.284c0.491,0.13,0.981,0.259,1.472,0.389c-0.649-3.811-2.511-7.673-5.898-9.71
						c-0.09,0.69-0.18,1.381-0.271,2.071c4.012-1.305,7.556-3.878,7.429-8.466C168.798,41.5,168.241,41.393,168.163,41.769
						L168.163,41.769z"/>
				</g>
			</g>
		</g>
	</g>
</g>
</svg>
