<?xml version="1.0" encoding="utf-8"?>
<!-- Generator: Adobe Illustrator 27.5.0, SVG Export Plug-In . SVG Version: 6.00 Build 0)  -->
<svg version="1.1" xmlns="http://www.w3.org/2000/svg" xmlns:xlink="http://www.w3.org/1999/xlink" x="0px" y="0px"
	 viewBox="0 0 675 1200" style="enable-background:new 0 0 675 1200;" xml:space="preserve">
<g id="Background_4_">
	<g id="Background_11_">
		<defs>
			<rect id="SVGID_1_" width="675" height="1200"/>
		</defs>
		<clipPath id="SVGID_00000143584968924975637810000016331681583219428482_">
			<use xlink:href="#SVGID_1_"  style="overflow:visible;"/>
		</clipPath>
		
			<rect style="clip-path:url(#SVGID_00000143584968924975637810000016331681583219428482_);fill:#FAE2B7;" width="675" height="1200"/>
		<path style="clip-path:url(#SVGID_00000143584968924975637810000016331681583219428482_);fill:#F7D496;" d="M327.042,987.483
			c73.407,31.961,146.068,69.335,217.735,111.992c68.168,40.575,135.444,85.936,201.434,136.632
			c-106.075,65.052-220.13,73.026-332.262,80.386c-148.888,9.773-299.768,19.24-445.092-39.162
			c-6.417-2.579-13.326-5.847-17.368-15.076c-3.634-8.297-4.1-19.521-4.421-30.021c-1.989-65.109-3.858-131.972,7.49-193.978
			c23.256-127.075,75.906-128.835,139.623-121.146C172.885,926.609,250.544,954.176,327.042,987.483z"/>
	</g>
</g>
<g id="Graphic_Elements">
	<g>
		<g>
			<g>
				<path style="fill:#D0DADD;" d="M299.787,1161.457c0,0-46.617,0-46.644,0c-37.414,0-74.227-18.562-97.172-48.452
					c-27.163-35.385-29.625-80.443-28.238-123.324c0.341-10.548,0.851-21.089,1.139-31.639c1.222-44.809-0.335-90.102-0.335-135.008
					c0,0,295.857,0,295.854,0c-2.129,0-0.014,158.813-0.022,173.251c-0.015,27.695,1.215,56.62-8.374,83.043
					C398.599,1127.263,351.301,1161.457,299.787,1161.457z"/>
				<path style="fill:#D0DADD;" d="M422.263,823.832c0,11.577-54.257,14.177-64.554,15.042
					c-48.838,4.105-98.345,4.253-147.335,1.245c-19.943-1.224-40.343-2.814-59.585-6.672c-6.001-1.203-22.251-3.871-22.251-9.615
					c0-7.737,27.173-10.617,34.721-11.727c50.123-7.374,102.068-8.268,153.125-5.921c23.202,1.066,47.417,2.615,70.626,5.84
					C396.049,813.279,422.263,815.26,422.263,823.832z"/>
			</g>
		</g>
		<g>
			<path style="fill:#BACEC0;" d="M128.023,364.987c3.407-8.238,9.068-15.836,9.765-24.724c1.434-18.293-17.41-30.478-31.373-42.382
				c-19.712-16.805-33.55-42.615-29.657-68.224c5.908-38.868,49.427-66.899,47.075-106.143c-0.932-15.539-9.153-31.869-2.307-45.85
				c4.046-8.264,12.455-13.347,20.521-17.775c17.769-9.755,36.519-18.727,56.673-20.901c20.154-2.174,42.143,3.525,55.24,18.997
				c14.573,17.215,16.26,43.555,33.365,58.258c13.331,11.458,32.728,12.836,47.423,22.483c22.576,14.82,28.088,50.06,11.117,71.067
				c-4.253,5.264-9.604,9.637-13.305,15.303c-8.66,13.254-6.634,30.86-1.374,45.793c5.26,14.933,13.414,28.939,16.415,44.485
				c6.037,31.275-12.415,65.539-41.849,77.711c-24.439,10.107-44.128,13.165-66.227,28.462
				c-15.998,11.075-24.076,14.533-43.63,14.621C158.106,436.338,108.722,411.663,128.023,364.987z"/>
			<g>
				<path style="fill:#97AF9D;" d="M195.619,142.468c10.235,68.153,20.414,136.344,27.58,204.901
					c7.094,67.874,11.25,136.169,9.386,204.43c-1.053,38.552-4.025,77.07-9.45,115.26c-0.267,1.882,0.463,3.729,2.44,4.297
					c1.634,0.469,4.032-0.575,4.297-2.44c4.837-34.049,7.842-68.329,9.215-102.69c1.374-34.374,1.164-68.801-0.234-103.17
					c-1.411-34.671-4.031-69.284-7.457-103.812c-3.417-34.43-7.643-68.773-12.28-103.058c-4.639-34.3-9.707-68.54-14.838-102.77
					c-0.64-4.269-1.281-8.537-1.922-12.806c-0.282-1.88-2.631-2.879-4.297-2.44C196.057,138.699,195.341,140.612,195.619,142.468
					L195.619,142.468z"/>
			</g>
			<path style="fill:#BACEC0;" d="M393.326,729.422c24.397,1.191,51.006,0.277,69.97-15.117
				c22.703-18.43,26.869-51.933,21.578-80.693c-2.228-12.109-5.775-24.781-1.811-36.437c8.322-24.472,41.272-27.458,62.57-42.104
				c19.39-13.334,29.249-39.156,23.68-62.02c-4.048-16.619-15.423-32.657-11.368-49.274c5.956-24.406,42.26-35.679,40.919-60.766
				c-1.373-25.685-40.026-32.163-49.724-55.987c-10.119-24.859,14.144-60.775-7.454-76.709c-5.889-4.344-13.594-5.248-20.91-5.419
				c-39.773-0.933-79.157,16.043-107.656,43.801c-28.499,27.759-46.287,65.686-52.058,105.049
				c-1.499,10.228-2.273,20.753-6.357,30.249c-14.8,34.419-62.897,38.831-88.43,66.249c-21.63,23.227-21.989,63.126-0.782,86.739
				c4.297,4.784,9.387,9.027,12.337,14.74c15.655,30.314-67.619,95.176-12.572,100.179c18.335,1.666,34.081-9.715,53.022-1.877
				C348.491,702.522,355.944,727.598,393.326,729.422z"/>
			<path style="fill:#CADBCE;" d="M202.05,713.971c-2.52-12.121-11.958-22.551-23.768-26.266c-7.93-2.495-16.829-2.21-23.954-6.492
				c-13.258-7.968-13.714-27.213-9.137-41.989c4.576-14.776,12.622-29.33,10.77-44.687c-2.916-24.179-29.175-40.54-32.034-64.726
				c-1.699-14.376,5.655-28.718,16.329-38.497c18.091-16.574,50.916-19.294,64.984,0.808c15.008,21.444,2.317,56.588,22.338,73.448
				c14.046,11.829,38.271,8.117,49.022,23.004c9.66,13.376,1.548,32.047-7.774,45.662c-9.321,13.614-20.356,29.303-15.602,45.106
				c8.918,29.63,68.896,58.174,19.259,89.223c-13.99,8.751-35.838,10.146-50.598,2.264
				C196.771,757.42,206.898,737.289,202.05,713.971z"/>
			<g>
				<path style="fill:#97AF9D;" d="M486.314,407.778c-23.304,21.212-44.971,44.199-64.809,68.683
					c-19.882,24.539-37.977,50.518-54.075,77.691c-16.05,27.091-30.087,55.343-42.09,84.451
					c-11.97,29.026-21.839,58.921-29.451,89.382c-7.659,30.648-13.026,61.872-16.016,93.321c-0.365,3.838-0.691,7.679-0.985,11.523
					c-0.343,4.484,6.645,4.462,6.987,0c2.381-31.114,7.158-62.012,14.204-92.411c7.013-30.254,16.251-59.99,27.562-88.912
					c11.37-29.071,24.897-57.299,40.354-84.418c15.396-27.011,32.716-52.961,51.886-77.442
					c19.214-24.538,40.234-47.666,62.892-69.066c2.803-2.647,5.632-5.266,8.483-7.861
					C494.587,409.685,489.635,404.756,486.314,407.778L486.314,407.778z"/>
			</g>
			<g>
				<path style="fill:#97AF9D;" d="M181.879,559.524c13.122,35.483,25.68,71.174,37.659,107.06
					c11.878,35.586,23.508,71.327,33.901,107.379c5.861,20.33,10.112,40.913,11.474,62.059c0.288,4.464,7.276,4.497,6.987,0
					c-1.225-19.02-4.556-37.753-9.544-56.137c-4.93-18.175-10.682-36.147-16.318-54.113c-11.362-36.215-23.307-72.247-35.83-108.076
					c-7.016-20.074-14.216-40.084-21.591-60.029c-0.654-1.769-2.367-2.97-4.297-2.44
					C182.617,555.694,181.222,557.745,181.879,559.524L181.879,559.524z"/>
			</g>
		</g>
	</g>
</g>
</svg>
