<?xml version="1.0" encoding="utf-8"?>
<!-- Generator: Adobe Illustrator 27.5.0, SVG Export Plug-In . SVG Version: 6.00 Build 0)  -->
<svg version="1.1" xmlns="http://www.w3.org/2000/svg" xmlns:xlink="http://www.w3.org/1999/xlink" x="0px" y="0px"
	 viewBox="0 0 500 500" style="enable-background:new 0 0 500 500;" xml:space="preserve">
<g id="BACKGROUND">
	<rect style="fill:#FFE0E3;" width="500" height="500"/>
	<g style="opacity:0.25;">
		<path style="fill:#FFFFFF;" d="M0,0v203.628c6.696,21.609,20.676,40.737,44.534,50.172c25.305,10.008,59.934,8.659,74.86,28.308
			c2.473,3.255,4.106,6.766,5.206,10.433c10,33.336,36.295,59.417,70.301,66.828c9.234,2.013,19.693,3.659,31.532,4.769
			c50.059,4.693,79.377-18.264,86.86-25.053c6.923-6.947,15.473-12.289,26.092-14.332c13.782-2.652,30.548,0.273,40.363-8.16
			c8.08-6.943,6.881-17.911,6.697-27.549c-0.5-26.189,17.581-56.74,49.186-58.171c9.722-0.44,19.26,2.004,28.923,2.992
			c11.996,1.227,24.134-0.121,35.448-3.495V0H0z"/>
	</g>
</g>
<g id="OBJECTS">
	<path style="fill-rule:evenodd;clip-rule:evenodd;fill:#FDFDFD;" d="M465.312,31.231c0,0.995-0.806,1.801-1.801,1.801
		c-0.995,0-1.801-0.806-1.801-1.801c0-0.995,0.806-1.801,1.801-1.801C464.505,29.43,465.312,30.236,465.312,31.231z"/>
	<circle style="fill-rule:evenodd;clip-rule:evenodd;fill:#FDFDFD;" cx="459.909" cy="171.512" r="1.801"/>
	<g>
		<path style="fill:none;stroke:#FFFFFF;stroke-miterlimit:10;" d="M242.311,106.687"/>
		<g>
			<g>
				<path style="fill:#EED035;" d="M381.226,21.946c0.342,2.246,0.574,4.499,0.79,6.753c0.227,2.253,0.376,4.511,0.524,6.769
					c0.125,2.259,0.247,4.519,0.292,6.783l0.064,3.396c-0.015,1.134,0.004,2.267-0.041,3.403c-0.181-1.122-0.298-2.249-0.448-3.373
					l-0.343-3.38c-0.226-2.253-0.375-4.511-0.522-6.769c-0.123-2.259-0.246-4.519-0.291-6.783
					C381.195,26.481,381.156,24.217,381.226,21.946z"/>
			</g>
			<g>
				<path style="fill:#EED035;" d="M395.594,36.278c-2.271,0.076-4.535,0.042-6.799-0.008c-2.264-0.039-4.524-0.156-6.784-0.274
					c-2.258-0.141-4.517-0.285-6.77-0.505l-3.38-0.334c-1.125-0.148-2.251-0.262-3.374-0.44c1.136-0.048,2.268-0.032,3.403-0.05
					l3.396,0.056c2.264,0.04,4.524,0.156,6.784,0.275c2.258,0.143,4.517,0.285,6.77,0.507
					C391.094,35.715,393.347,35.942,395.594,36.278z"/>
			</g>
			<g>
				<path style="fill:#EED035;" d="M390.221,29.103c-2.485,2.441-5.156,4.644-7.873,6.788c-2.736,2.12-5.518,4.181-8.489,6
					c2.483-2.443,5.155-4.645,7.873-6.788C384.47,32.985,387.252,30.925,390.221,29.103z"/>
			</g>
			<g>
				<path style="fill:#EED035;" d="M375.404,27.779c2.51,2.316,4.791,4.83,7.016,7.392c2.202,2.582,4.346,5.213,6.258,8.044
					c-2.512-2.315-4.793-4.829-7.016-7.392C379.462,33.24,377.318,30.609,375.404,27.779z"/>
			</g>
		</g>
		<g>
			<g>
				<path style="fill:#FFFFFF;" d="M37.384,208.163c0.435,2.006,0.721,4.02,0.954,6.038c0.243,2.017,0.397,4.04,0.533,6.064
					c0.108,2.025,0.198,4.052,0.199,6.084c0.011,2.031-0.032,4.066-0.226,6.109c-0.437-2.006-0.724-4.02-0.957-6.038
					c-0.242-2.017-0.396-4.04-0.531-6.064c-0.107-2.026-0.196-4.052-0.197-6.084C37.15,212.241,37.192,210.207,37.384,208.163z"/>
			</g>
			<g>
				<path style="fill:#FFFFFF;" d="M50.264,221.01c-2.043,0.197-4.077,0.245-6.109,0.24c-2.032,0.004-4.059-0.08-6.084-0.181
					c-2.024-0.13-4.047-0.279-6.065-0.516c-2.018-0.228-4.034-0.509-6.041-0.941c2.043-0.199,4.077-0.247,6.109-0.242
					c2.032-0.004,4.059,0.08,6.084,0.184c2.024,0.132,4.047,0.281,6.065,0.518C46.242,220.299,48.257,220.58,50.264,221.01z"/>
			</g>
			<g>
				<path style="fill:#FFFFFF;" d="M45.447,214.579c-1.029,1.203-2.15,2.288-3.303,3.331c-1.148,1.051-2.35,2.031-3.563,2.999
					c-1.23,0.945-2.472,1.875-3.769,2.735c-1.291,0.868-2.615,1.693-4.031,2.399c1.028-1.204,2.148-2.29,3.302-3.333
					c1.148-1.05,2.35-2.031,3.564-2.997c1.232-0.943,2.474-1.873,3.77-2.733C42.708,216.113,44.032,215.287,45.447,214.579z"/>
			</g>
			<g>
				<path style="fill:#FFFFFF;" d="M32.166,213.393c1.23,0.948,2.346,1.994,3.422,3.074c1.083,1.074,2.099,2.206,3.102,3.349
					c0.981,1.162,1.948,2.336,2.848,3.568c0.907,1.226,1.773,2.486,2.525,3.846c-1.231-0.947-2.348-1.992-3.424-3.073
					c-1.083-1.074-2.099-2.206-3.101-3.351c-0.98-1.163-1.947-2.337-2.847-3.569C33.786,216.011,32.919,214.751,32.166,213.393z"/>
			</g>
		</g>
		<g>
			
				<line style="fill-rule:evenodd;clip-rule:evenodd;fill:none;stroke:#EED035;stroke-miterlimit:10;" x1="263.958" y1="301.373" x2="265.923" y2="334.068"/>
			
				<line style="fill-rule:evenodd;clip-rule:evenodd;fill:none;stroke:#EED035;stroke-miterlimit:10;" x1="281.29" y1="318.661" x2="248.59" y2="316.779"/>
			
				<line style="fill-rule:evenodd;clip-rule:evenodd;fill:none;stroke:#EED035;stroke-miterlimit:10;" x1="274.809" y1="310.007" x2="255.072" y2="325.433"/>
			
				<line style="fill-rule:evenodd;clip-rule:evenodd;fill:none;stroke:#EED035;stroke-miterlimit:10;" x1="256.935" y1="308.41" x2="272.947" y2="327.03"/>
		</g>
		<g>
			<g>
				<path style="fill:#FFFFFF;" d="M450.375,236.144c0.618,2.953,0.898,5.927,1.095,8.906c0.163,2.981,0.242,5.967-0.02,8.973
					c-0.62-2.953-0.9-5.927-1.095-8.906C450.193,242.136,450.115,239.15,450.375,236.144z"/>
			</g>
			<g>
				<path style="fill:#FFFFFF;" d="M459.853,245.598c-3.005,0.267-5.992,0.196-8.973,0.043c-2.979-0.187-5.954-0.459-8.909-1.072
					c3.006-0.27,5.992-0.199,8.973-0.043C453.923,244.715,456.898,244.988,459.853,245.598z"/>
			</g>
			<g>
				<path style="fill:#FFFFFF;" d="M456.308,240.865c-1.527,1.753-3.265,3.237-5.053,4.658c-1.809,1.393-3.669,2.721-5.74,3.778
					c1.526-1.755,3.264-3.239,5.052-4.658C452.378,243.252,454.238,241.924,456.308,240.865z"/>
			</g>
			<g>
				<path style="fill:#FFFFFF;" d="M446.534,239.992c1.793,1.41,3.328,3.042,4.801,4.727c1.447,1.708,2.831,3.469,3.955,5.455
					c-1.795-1.408-3.33-3.041-4.801-4.727C449.044,243.738,447.659,241.977,446.534,239.992z"/>
			</g>
		</g>
		<path style="fill-rule:evenodd;clip-rule:evenodd;fill:#FDFDFD;" d="M265.045,45.712c0,1.989-1.613,3.602-3.602,3.602
			c-1.989,0-3.602-1.612-3.602-3.602c0-1.989,1.613-3.602,3.602-3.602C263.433,42.111,265.045,43.723,265.045,45.712z"/>
		<path style="fill-rule:evenodd;clip-rule:evenodd;fill:#FDFDFD;" d="M266.011,283.931c0,0.995-0.806,1.801-1.801,1.801
			c-0.995,0-1.801-0.806-1.801-1.801c0-0.995,0.806-1.801,1.801-1.801C265.205,282.13,266.011,282.936,266.011,283.931z"/>
		<circle style="fill-rule:evenodd;clip-rule:evenodd;fill:#FDFDFD;" cx="54.033" cy="74.435" r="1.801"/>
		<circle style="fill-rule:evenodd;clip-rule:evenodd;fill:#FDFDFD;" cx="30.781" cy="27.68" r="1.801"/>
		<g>
			<polygon style="fill:none;stroke:#343B9C;stroke-miterlimit:10;" points="94.706,253.004 107.207,250.861 103.635,263.362 			"/>
			<path style="fill:none;stroke:#343B9C;stroke-miterlimit:10;" d="M123.819,214.861c0,0-4.718-3.487,0-8.205
				c4.718-4.718,0-9.435,0-9.435s-3.213-4.946,2.097-10.256"/>
		</g>
		<g>
			<g>
				<g>
					<path style="fill:#EED035;" d="M104.797,63.18c0.572,2.956,0.841,5.931,1.036,8.91c0.165,2.981,0.254,5.966,0.039,8.969
						c-0.574-2.956-0.843-5.931-1.036-8.91C104.672,69.168,104.583,66.183,104.797,63.18z"/>
				</g>
				<g>
					<path style="fill:#EED035;" d="M114.275,72.634c-3.003,0.221-5.988,0.14-8.97-0.016c-2.979-0.186-5.955-0.447-8.912-1.013
						c3.003-0.223,5.988-0.142,8.97,0.016C108.342,71.808,111.317,72.07,114.275,72.634z"/>
				</g>
				<g>
					<path style="fill:#EED035;" d="M110.731,67.901c-1.556,1.717-3.3,3.192-5.089,4.612c-1.808,1.394-3.661,2.73-5.704,3.824
						c1.555-1.718,3.299-3.194,5.089-4.612C106.836,70.333,108.689,68.997,110.731,67.901z"/>
				</g>
				<g>
					<path style="fill:#EED035;" d="M100.956,67.028c1.758,1.44,3.285,3.079,4.757,4.765c1.448,1.707,2.84,3.461,3.999,5.417
						c-1.76-1.439-3.286-3.078-4.757-4.765C103.509,70.737,102.116,68.982,100.956,67.028z"/>
				</g>
			</g>
			<path style="fill:none;stroke:#E40C4A;stroke-width:0.7071;stroke-miterlimit:10;" d="M199.884,94.77
				c0,2.724-2.209,4.933-4.933,4.933c-2.725,0-4.933-2.209-4.933-4.933c0-2.724,2.209-4.933,4.933-4.933
				C197.675,89.837,199.884,92.046,199.884,94.77z"/>
			<line style="fill:none;stroke:#304179;stroke-miterlimit:10;" x1="133.616" y1="86.273" x2="138.974" y2="90.917"/>
		</g>
		<g>
			<path style="fill:none;stroke:#343B9C;stroke-width:1.0788;stroke-miterlimit:10;" d="M352.536,106.686c0,0,8.618,6.593,14.889,0
				c4.255-4.473,9.069-2.202,11.724-0.28c2.761,1.999,6.07,3.089,9.413,2.832c2.013-0.155,4.053-0.791,5.569-2.384
				c4.329-4.55,8.657,0,8.657,0"/>
			<line style="fill:none;stroke:#F4CFD2;stroke-miterlimit:10;" x1="378.394" y1="143.234" x2="385.688" y2="153.895"/>
		</g>
		<g>
			<line style="fill:none;stroke:#304179;stroke-miterlimit:10;" x1="243.342" y1="226.042" x2="248.204" y2="237.016"/>
			<polygon style="fill:none;stroke:#F4CFD2;stroke-miterlimit:10;" points="182.356,215.066 171.416,229.652 187.219,239.377 
				198.462,224.79 			"/>
			<polygon style="fill:none;stroke:#343B9C;stroke-miterlimit:10;" points="278.369,163.766 287.311,154.771 291.65,167.027 			"/>
			<path style="fill:none;stroke:#343B9C;stroke-miterlimit:10;" d="M183.621,173.33c0,0,3.487-4.718,8.205,0s9.435,0,9.435,0
				s4.946-3.214,10.256,2.097"/>
			
				<ellipse transform="matrix(0.2283 -0.9736 0.9736 0.2283 11.309 399.403)" style="fill:none;stroke:#E40C4A;stroke-miterlimit:10;" cx="257.607" cy="192.568" rx="14.627" ry="14.627"/>
		</g>
		<g>
			<path style="fill-rule:evenodd;clip-rule:evenodd;fill:#EED035;" d="M429.515,205.168c6.518-4.08,18.414-10.392,27.053-11.274
				c8.639-0.882,14.021,3.666,14.35,7.089c0.329,3.423-4.396,5.722-11.478,6.604c-7.082,0.882-16.52,0.347-23.367,1.005
				c-6.846,0.657-11.101,2.507-12.658,2.506C421.858,211.098,422.998,209.249,429.515,205.168z"/>
			<path style="fill-rule:evenodd;clip-rule:evenodd;fill:#EED035;" d="M409.723,243.453c5.404,0.513,13.484,1.653,18.939,5.318
				c5.456,3.664,8.287,9.853,7.492,12.879c-0.795,3.026-5.216,2.889-9.224,0.16c-4.008-2.729-7.603-8.05-12.212-11.588
				c-4.609-3.539-10.232-5.296-11.68-6.232C401.592,243.054,404.32,242.94,409.723,243.453z"/>
		</g>
		<g>
			<g>
				<g>
					<path style="fill:none;stroke:#FFFFFF;stroke-miterlimit:10;" d="M242.311,120.08V41.089c0-4.21-3.413-7.623-7.622-7.623
						H74.682c-4.21,0-7.622,3.413-7.622,7.623v244.53c0,4.21,3.413,7.622,7.622,7.622h160.006c4.21,0,7.622-3.413,7.622-7.622
						v-18.358"/>
					<g>
						<path style="fill:none;stroke:#FFFFFF;stroke-miterlimit:10;" d="M234.688,51.406H74.682c-4.21,0-7.622-3.413-7.622-7.622
							v-2.694c0-4.21,3.413-7.623,7.622-7.623h160.006c4.21,0,7.622,3.413,7.622,7.623v2.694
							C242.311,47.993,238.898,51.406,234.688,51.406z"/>
						<g>
							<path style="fill:none;stroke:#FFFFFF;stroke-miterlimit:10;" d="M78.103,42.436c0,1.378-1.117,2.496-2.496,2.496
								c-1.378,0-2.496-1.117-2.496-2.496s1.117-2.496,2.496-2.496C76.986,39.941,78.103,41.058,78.103,42.436z"/>
							<path style="fill:none;stroke:#FFFFFF;stroke-miterlimit:10;" d="M88.128,42.436c0,1.378-1.117,2.496-2.496,2.496
								c-1.378,0-2.496-1.117-2.496-2.496s1.117-2.496,2.496-2.496C87.01,39.941,88.128,41.058,88.128,42.436z"/>
							<path style="fill:none;stroke:#FFFFFF;stroke-miterlimit:10;" d="M98.152,42.436c0,1.378-1.117,2.496-2.496,2.496
								c-1.378,0-2.496-1.117-2.496-2.496s1.117-2.496,2.496-2.496C97.035,39.941,98.152,41.058,98.152,42.436z"/>
						</g>
					</g>
					<g>
						<path style="fill:none;stroke:#FFFFFF;stroke-miterlimit:10;" d="M279.866,110.029"/>
						<path style="fill:none;stroke:#FFFFFF;stroke-miterlimit:10;" d="M279.866,121.03V78.405c0-4.21,3.413-7.623,7.622-7.623
							h133.687c4.21,0,7.622,3.413,7.622,7.623v205.517c0,4.21-3.413,7.622-7.622,7.622H287.488c-4.21,0-7.622-3.413-7.622-7.622
							v-16.66"/>
						<g>
							<path style="fill:none;stroke:#FFFFFF;stroke-miterlimit:10;" d="M421.175,86.027H287.488c-4.21,0-7.622-3.413-7.622-7.622
								l0,0c0-4.21,3.413-7.623,7.622-7.623h133.687c4.21,0,7.622,3.413,7.622,7.623l0,0
								C428.798,82.614,425.385,86.027,421.175,86.027z"/>
							<g>
								<path style="fill:none;stroke:#FFFFFF;stroke-miterlimit:10;" d="M289.251,78.405c0,1.171-0.95,2.121-2.121,2.121
									c-1.171,0-2.121-0.95-2.121-2.121c0-1.171,0.95-2.121,2.121-2.121C288.301,76.284,289.251,77.233,289.251,78.405z"/>
								<path style="fill:none;stroke:#FFFFFF;stroke-miterlimit:10;" d="M297.77,78.405c0,1.171-0.949,2.121-2.121,2.121
									c-1.171,0-2.121-0.95-2.121-2.121c0-1.171,0.949-2.121,2.121-2.121C296.821,76.284,297.77,77.233,297.77,78.405z"/>
								<path style="fill:none;stroke:#FFFFFF;stroke-miterlimit:10;" d="M306.289,78.405c0,1.171-0.949,2.121-2.121,2.121
									c-1.171,0-2.121-0.95-2.121-2.121c0-1.171,0.95-2.121,2.121-2.121C305.34,76.284,306.289,77.233,306.289,78.405z"/>
							</g>
						</g>
					</g>
					<g>
						<g>
							<path style="fill:none;stroke:#FFFFFF;stroke-miterlimit:10;" d="M279.866,267.262H149.927c-4.21,0-7.622-3.413-7.622-7.622
								V128.326c0-4.21,3.413-7.622,7.622-7.622h160.006c4.21,0,7.622,3.413,7.622,7.622V259.64c0,4.21-3.413,7.622-7.622,7.622
								H279.866"/>
							<path style="fill:none;stroke:#FFFFFF;stroke-miterlimit:10;" d="M279.866,138.642H149.927c-4.21,0-7.622-3.413-7.622-7.622
								v-2.694c0-4.21,3.413-7.622,7.622-7.622h129.938"/>
							<path style="fill:none;stroke:#FFFFFF;stroke-miterlimit:10;" d="M279.866,120.703h30.068c4.21,0,7.622,3.413,7.622,7.622
								v2.694c0,4.21-3.413,7.622-7.622,7.622h-30.068"/>
						</g>
						<g>
							<circle style="fill:none;stroke:#FFFFFF;stroke-miterlimit:10;" cx="150.853" cy="129.673" r="2.496"/>
							<circle style="fill:none;stroke:#FFFFFF;stroke-miterlimit:10;" cx="160.878" cy="129.673" r="2.496"/>
							<path style="fill:none;stroke:#FFFFFF;stroke-miterlimit:10;" d="M173.398,129.673c0,1.378-1.117,2.496-2.496,2.496
								s-2.496-1.117-2.496-2.496s1.117-2.496,2.496-2.496S173.398,128.294,173.398,129.673z"/>
						</g>
					</g>
				</g>
				<g>
					<g>
						<path style="fill:#FFE0E3;" d="M97.513,88.952H53.128c-2.173,0-3.935,1.762-3.935,3.935v6.161v109.128h52.255V99.049v-6.161
							C101.448,90.714,99.686,88.952,97.513,88.952z"/>
						<path style="opacity:0.25;fill:#FFFFFF;" d="M97.513,88.952H53.128c-2.173,0-3.935,1.762-3.935,3.935v6.161v109.128h52.255
							V99.049v-6.161C101.448,90.714,99.686,88.952,97.513,88.952z"/>
					</g>
					<g>
						<g>
							<g>
								<path style="fill:#F3FFF9;" d="M61.201,129.286v-13.841l10.218,9.518l-6.156-0.132L61.201,129.286z M62.201,117.744v8.96
									l2.628-2.883l3.988,0.085L62.201,117.744z"/>
								<path style="fill:#F3FFF9;" d="M73.617,130.226H56.534c-1.18,0-2.139-0.959-2.139-2.138v-12.401
									c0-1.18,0.959-2.139,2.139-2.139h17.083c1.179,0,2.138,0.959,2.138,2.139v12.401
									C75.755,129.267,74.796,130.226,73.617,130.226z M56.534,114.267c-0.783,0-1.42,0.637-1.42,1.42v12.401
									c0,0.782,0.637,1.419,1.42,1.419h17.083c0.782,0,1.419-0.637,1.419-1.419v-12.401c0-0.783-0.637-1.42-1.419-1.42H56.534z"/>
							</g>
							<g>
								<g>
									<g>
										<g>
											<polygon style="fill:#F4CFD2;" points="82.852,116.595 83.284,127.995 86.629,124.542 91.809,124.434 											"/>
											<path style="fill:#F4CFD2;" d="M82.828,129.183l-0.52-13.729l10.801,9.454l-6.264,0.13L82.828,129.183z M83.396,117.735
												l0.343,9.071l2.675-2.761l4.096-0.085L83.396,117.735z"/>
										</g>
									</g>
									<g>
										<path style="fill:#F4CFD2;" d="M66.665,135.009c0,0,2.212-2.968,3.453-1.727c1.241,1.241,0.755,1.942-1.187,3.885
											c2.014,0.624,0.008,3.09-0.969,2.298c-0.889-0.721-3.347-3.312-3.347-3.312S64.723,133.441,66.665,135.009z"/>
										<path style="fill:#F4CFD2;" d="M60.146,145.027c-0.282,0-0.544-0.088-0.762-0.306c-1.061-1.061,0.487-2.937,0.667-3.146
											l4.878-5.072l0.52,0.498l-4.864,5.057c-0.329,0.388-1.196,1.65-0.691,2.154c0.382,0.389,1.724-0.523,2.537-1.334
											l5.04-4.421l0.475,0.541l-5.023,4.405C62.611,143.714,61.231,145.027,60.146,145.027z"/>
										<path style="fill:#F4CFD2;" d="M74.799,146.487h-3.646l3.646-3.644V146.487z M72.892,145.768h1.188v-1.188L72.892,145.768
											z"/>
									</g>
									<g>
										<polygon style="fill:#F4CFD2;" points="86.371,135.958 83.098,137.418 80.984,143.711 85.112,140.137 85.716,140.708 
											81.84,144.665 88.183,142.604 89.693,139.382 										"/>
										<polygon style="fill:#F4CFD2;" points="87.331,135.153 90.599,138.576 92.311,136.865 88.787,133.492 										"/>
									</g>
									<g>
										<rect x="59.371" y="150.659" style="fill:#F4CFD2;" width="1.439" height="5.487"/>
										<g>
											<g>
												<polygon style="fill:#F4CFD2;" points="66.082,153.125 62.81,154.585 60.696,160.878 64.824,157.304 65.428,157.875 
													61.552,161.832 67.895,159.771 69.405,156.549 												"/>
												<polygon style="fill:#F4CFD2;" points="67.042,152.32 70.311,155.743 72.023,154.031 68.499,150.659 												"/>
											</g>
											<rect x="57.348" y="152.682" style="fill:#F4CFD2;" width="5.487" height="1.439"/>
										</g>
									</g>
									<g>
										<g>
											<polygon style="fill:#F4CFD2;" points="87.796,153.125 84.523,154.585 82.409,160.878 86.537,157.304 87.141,157.875 
												83.265,161.832 89.608,159.771 91.118,156.549 											"/>
											<polygon style="fill:#F4CFD2;" points="88.756,152.32 92.024,155.743 93.736,154.031 90.212,150.659 											"/>
										</g>
										<rect x="78.694" y="152.682" style="fill:#F4CFD2;" width="5.487" height="1.439"/>
									</g>
									<g>
										<path style="fill:#F4CFD2;" d="M59.296,178.789c0,0,1.129-0.514,1.4-1.748c0.271-1.234,1.299-3.238,3.509-2.005
											C66.415,176.27,64.358,179.56,59.296,178.789z"/>
										<path style="fill:#F4CFD2;" d="M64.051,173.803c0,0,1.182,1.182,1.645,1.645c0,0,5.706-5.449,5.089-7.505
											C70.784,167.943,67.906,168.201,64.051,173.803z"/>
									</g>
									<g>
										<polygon style="fill:#F4CFD2;" points="84.706,179.702 80.464,175.46 82.751,172.944 83.284,173.428 81.458,175.436 
											84.722,178.7 87.036,176.516 87.531,177.04 										"/>
										<polygon style="fill:#F4CFD2;" points="82.409,172.621 87.849,177.864 93.195,172.621 87.952,167.378 										"/>
									</g>
									<g>
										<path style="fill:#F4CFD2;" d="M91.858,195.905h-8.84v-7.966h6.732l2.108,2.166V195.905z M83.737,195.186h7.402v-4.788
											l-1.694-1.74h-5.708V195.186z"/>
										<g>
											<polygon style="fill:#F4CFD2;" points="89.597,188.298 88.415,188.298 88.415,191.125 91.499,191.125 91.499,190.251 
																							"/>
											<path style="fill:#F4CFD2;" d="M91.858,191.485h-3.803v-3.546h1.693l2.109,2.166V191.485z M88.774,190.766h2.365v-0.368
												l-1.694-1.74h-0.671V190.766z"/>
										</g>
										<rect x="79.522" y="187.939" style="fill:#F4CFD2;" width="2.887" height="0.719"/>
										<rect x="83.018" y="184.34" style="fill:#F4CFD2;" width="0.719" height="2.878"/>
									</g>
									<g>
										<path style="fill:#F4CFD2;" d="M69.242,189.583c-1.304,0-2.364-1.061-2.364-2.364c0-1.304,1.061-2.363,2.364-2.363
											c1.304,0,2.363,1.06,2.363,2.363C71.606,188.522,70.546,189.583,69.242,189.583z M69.242,185.574
											c-0.907,0-1.645,0.738-1.645,1.645c0,0.907,0.738,1.645,1.645,1.645c0.906,0,1.645-0.738,1.645-1.645
											C70.887,186.312,70.149,185.574,69.242,185.574z"/>
										<path style="fill:#F4CFD2;" d="M69.527,196.737c-1.304,0-2.364-1.061-2.364-2.364c0-1.304,1.061-2.363,2.364-2.363
											s2.363,1.06,2.363,2.363C71.89,195.676,70.83,196.737,69.527,196.737z M69.527,192.728c-0.907,0-1.646,0.738-1.646,1.645
											c0,0.907,0.738,1.645,1.646,1.645c0.906,0,1.645-0.738,1.645-1.645C71.171,193.466,70.433,192.728,69.527,192.728z"/>
										<path style="fill:#F4CFD2;" d="M59.296,188.298l8.827,4.645l0.657-0.574l-8.07-4.79
											C60.71,187.579,59.732,187.167,59.296,188.298z"/>
										<path style="fill:#F4CFD2;" d="M58.905,193.324l8.827-4.645l0.657,0.574l-8.07,4.79
											C60.319,194.044,59.342,194.455,58.905,193.324z"/>
									</g>
								</g>
								<g>
									<g>
										<rect x="68.627" y="101.642" style="fill:#F4CFD2;" width="0.719" height="2.81"/>
										<rect x="70.072" y="101.642" style="fill:#F4CFD2;" width="0.719" height="2.81"/>
										<rect x="71.516" y="101.642" style="fill:#F4CFD2;" width="0.719" height="2.81"/>
										<rect x="72.959" y="101.642" style="fill:#F4CFD2;" width="0.719" height="2.81"/>
										<rect x="74.404" y="101.642" style="fill:#F4CFD2;" width="0.719" height="2.81"/>
										<rect x="75.848" y="101.642" style="fill:#F4CFD2;" width="0.719" height="2.81"/>
										<rect x="77.292" y="101.642" style="fill:#F4CFD2;" width="0.719" height="2.81"/>
										<rect x="78.737" y="101.642" style="fill:#F4CFD2;" width="0.719" height="2.81"/>
										<rect x="80.18" y="101.642" style="fill:#F4CFD2;" width="0.719" height="2.81"/>
										<rect x="81.624" y="101.642" style="fill:#F4CFD2;" width="0.719" height="2.81"/>
									</g>
									<g>
										<g>
											<polygon style="fill:#F4CFD2;" points="92.807,96.723 90.92,94.836 92.807,92.948 93.316,93.457 91.938,94.836 
												93.316,96.214 											"/>
											<polygon style="fill:#F4CFD2;" points="95.924,96.723 94.037,94.836 95.924,92.948 96.433,93.457 95.055,94.836 
												96.433,96.214 											"/>
										</g>
										<g>
											<path style="fill:#F4CFD2;" d="M54.393,97.347c-0.096,0-0.19-0.037-0.262-0.112c-0.137-0.145-0.13-0.372,0.015-0.509
												l4.008-3.785c0.145-0.136,0.372-0.13,0.509,0.015c0.137,0.145,0.13,0.372-0.015,0.509L54.64,97.25
												C54.571,97.315,54.482,97.347,54.393,97.347z"/>
											<path style="fill:#F4CFD2;" d="M58.289,97.459c-0.096,0-0.19-0.037-0.262-0.112l-3.785-4.008
												c-0.137-0.145-0.13-0.372,0.015-0.509c0.145-0.135,0.372-0.13,0.509,0.015l3.785,4.008
												c0.137,0.145,0.13,0.372-0.015,0.509C58.467,97.426,58.378,97.459,58.289,97.459z"/>
										</g>
									</g>
								</g>
							</g>
						</g>
						<g>
							<path style="fill:#F3FFF9;" d="M102.295,99.896H49.193v-6.585c0-2.404,1.955-4.359,4.359-4.359h44.384
								c2.404,0,4.359,1.955,4.359,4.359V99.896z M50.04,99.048h51.407v-5.737c0-1.936-1.575-3.512-3.512-3.512H53.552
								c-1.936,0-3.512,1.575-3.512,3.512V99.048z"/>
							<path style="fill:#F3FFF9;" d="M102.295,208.091H49.193V99.048h53.103V208.091z M50.04,207.244h51.407V99.896H50.04V207.244z
								"/>
						</g>
					</g>
				</g>
			</g>
			<g>
				<g>
					<g>
						<g>
							<rect x="418.334" y="117.849" style="fill:#FFE0E3;" width="20.351" height="62.655"/>
							<rect x="418.334" y="117.849" style="opacity:0.12;fill:#FFFFFF;" width="20.351" height="62.655"/>
						</g>
						<g style="opacity:0.25;">
							<rect x="418.334" y="117.849" style="fill:#FFFFFF;" width="20.351" height="62.655"/>
							<rect x="418.334" y="117.849" style="opacity:0.12;fill:#FFFFFF;" width="20.351" height="62.655"/>
						</g>
					</g>
					<path style="fill:none;stroke:#F3FFF9;stroke-miterlimit:10;" d="M430.3,181.004h-2.581c-4.907,0-8.885-3.978-8.885-8.885
						v-44.885c0-4.907,3.978-8.885,8.885-8.885h2.581c4.907,0,8.885,3.978,8.885,8.885v44.885
						C439.185,177.026,435.207,181.004,430.3,181.004z"/>
				</g>
				<g>
					<path id="XMLID_638_" style="fill:#F4CFD2;" d="M424.032,152.255c0.904,0.58,1.978,0.918,3.131,0.918
						c3.793,0,5.935-3.203,5.806-6.076c0.399-0.288,0.745-0.647,1.019-1.057c-0.367,0.162-0.76,0.272-1.173,0.322
						c0.421-0.252,0.745-0.653,0.898-1.13c-0.395,0.234-0.832,0.404-1.297,0.496c-0.373-0.397-0.904-0.645-1.491-0.645
						c-1.318,0-2.287,1.23-1.99,2.508c-1.698-0.085-3.203-0.898-4.21-2.134c-0.535,0.918-0.278,2.12,0.632,2.727
						c-0.335-0.011-0.65-0.103-0.926-0.256c-0.022,0.947,0.656,1.832,1.638,2.029c-0.288,0.078-0.603,0.096-0.922,0.035
						c0.259,0.812,1.014,1.402,1.908,1.419C426.197,152.082,425.115,152.383,424.032,152.255z"/>
					<g>
						<path id="XMLID_619_" style="fill:#F4CFD2;" d="M427.586,172.233h2.274v-5.695h1.587l0.169-1.907h-1.756c0,0,0-0.712,0-1.086
							c0-0.45,0.09-0.627,0.525-0.627c0.35,0,1.231,0,1.231,0v-1.979c0,0-1.298,0-1.575,0c-1.692,0-2.456,0.745-2.456,2.172
							c0,1.243,0,1.52,0,1.52h-1.183v1.931h1.183V172.233z"/>
					</g>
					<path id="XMLID_454_" style="fill:#F4CFD2;" d="M426.02,132.537c0.146,0.06,0.277,0.003,0.319-0.159
						c0.029-0.112,0.099-0.394,0.13-0.512c0.043-0.16,0.026-0.216-0.092-0.355c-0.257-0.303-0.421-0.695-0.421-1.25
						c0-1.611,1.205-3.053,3.138-3.053c1.712,0,2.652,1.046,2.652,2.443c0,1.838-0.813,3.389-2.021,3.389
						c-0.667,0-1.166-0.551-1.006-1.227c0.192-0.808,0.563-1.679,0.563-2.262c0-0.522-0.28-0.957-0.86-0.957
						c-0.682,0-1.229,0.705-1.229,1.65c0,0.602,0.204,1.009,0.204,1.009s-0.698,2.956-0.82,3.473
						c-0.244,1.031-0.037,2.294-0.019,2.422c0.01,0.076,0.108,0.094,0.152,0.037c0.063-0.082,0.875-1.085,1.15-2.086
						c0.078-0.283,0.449-1.752,0.449-1.752c0.221,0.422,0.869,0.794,1.557,0.794c2.049,0,3.439-1.868,3.439-4.368
						c0-1.891-1.601-3.651-4.035-3.651c-3.029,0-4.556,2.171-4.556,3.982C424.714,131.198,425.13,132.174,426.02,132.537z"/>
				</g>
			</g>
		</g>
		<g>
			<g style="opacity:0.09;">
				<g>
					<path style="fill:#A9BCC6;" d="M374.708,432.603c-25.449,5.574-51.453,5.142-77.339,6.317c1.178,2.845,2.357,5.69,3.535,8.535
						c3.994-4.803,11.154-3.866,16.793-3.904c6.507-0.044,13.013-0.169,19.518-0.34c12.941-0.34,25.875-0.743,38.822-0.788
						c6.436-0.022,6.443-9.934,0-10c-13.559-0.14-27.107,0.484-40.666,0.344c-6.437-0.066-6.442,9.934,0,10
						c13.559,0.14,27.107-0.484,40.666-0.344c0-3.333,0-6.667,0-10c-14.537,0.05-29.058,0.576-43.589,0.905
						c-7.367,0.167-14.797-0.086-22.151,0.332c-6.163,0.35-12.353,1.779-16.464,6.723c-2.565,3.085-1.145,8.748,3.535,8.536
						c26.796-1.217,53.653-0.904,79.998-6.674C383.65,440.869,380.991,431.227,374.708,432.603L374.708,432.603z"/>
				</g>
			</g>
			<g>
				<g>
					<g>
						
							<line style="fill:none;stroke:#F4CFD2;stroke-width:0.8482;stroke-miterlimit:10;" x1="286.413" y1="104.567" x2="328.561" y2="145.42"/>
						
							<line style="fill:none;stroke:#F4CFD2;stroke-width:0.8482;stroke-miterlimit:10;" x1="265.011" y1="83.823" x2="286.413" y2="104.567"/>
					</g>
					<g>
						<g>
							<path style="fill:#F4CFD2;" d="M266.682,74.295c-0.106,1.618-0.304,3.22-0.516,4.82c-0.202,1.601-0.47,3.191-0.738,4.781
								c-0.288,1.586-0.577,3.172-0.932,4.747c-0.346,1.576-0.705,3.15-1.157,4.707c0.105-1.618,0.303-3.22,0.514-4.82
								c0.203-1.601,0.47-3.191,0.739-4.781c0.289-1.586,0.578-3.172,0.933-4.747C265.872,77.426,266.231,75.853,266.682,74.295z"/>
						</g>
						<g>
							<path style="fill:#F4CFD2;" d="M255.353,83.28c1.619-0.084,3.234-0.076,4.847-0.053c1.614,0.013,3.224,0.092,4.834,0.172
								c1.609,0.1,3.218,0.201,4.823,0.368c1.606,0.159,3.211,0.33,4.811,0.597c-1.62,0.086-3.234,0.077-4.847,0.055
								c-1.614-0.014-3.224-0.093-4.834-0.174c-1.609-0.101-3.218-0.202-4.823-0.37C258.558,83.717,256.953,83.545,255.353,83.28z"
								/>
						</g>
						<g>
							<path style="fill:#F4CFD2;" d="M259.736,78.636c1.993,1.491,3.804,3.166,5.572,4.885c1.75,1.738,3.455,3.52,4.978,5.489
								c-1.994-1.489-3.805-3.164-5.572-4.885C262.966,82.385,261.26,80.603,259.736,78.636z"/>
						</g>
						<g>
							<path style="fill:#F4CFD2;" d="M270.332,78.895c-1.546,1.888-3.269,3.586-5.033,5.239c-1.782,1.633-3.607,3.221-5.609,4.617
								c1.545-1.889,3.268-3.587,5.033-5.239C266.507,81.879,268.331,80.292,270.332,78.895z"/>
						</g>
					</g>
				</g>
				<g>
					<g>
						<g>
							<path style="fill:#F3FFF9;" d="M329.826,444.627l1.054-25.158l-13.991-1.178c0,0-1.499,11.094-4.029,12.204
								c-2.53,1.11-16.533,2.685-17.295,12.443L329.826,444.627z"/>
							<g>
								<g>
									<path style="fill:#3A3231;" d="M329.985,440.857c-2.791-0.018-5.582-0.055-8.371-0.114l-8.368-0.209l-8.365-0.292
										c-2.788-0.108-5.575-0.238-8.362-0.388c-0.234-0.013-0.414-0.212-0.401-0.447c0.012-0.229,0.205-0.406,0.432-0.402
										c2.79,0.054,5.579,0.128,8.367,0.224l8.364,0.32l8.361,0.402c2.787,0.144,5.572,0.312,8.358,0.497
										c0.112,0.008,0.197,0.105,0.19,0.217C330.183,440.775,330.092,440.858,329.985,440.857z"/>
								</g>
								<g>
									<path style="fill:#3A3231;" d="M320.521,440.253c0.198-1.119,0.614-2.149,1.169-3.129c0.559-0.974,1.314-1.847,2.206-2.56
										c0.904-0.697,1.976-1.202,3.096-1.393c0.555-0.135,1.121-0.131,1.68-0.147c0.558,0.01,1.109,0.119,1.651,0.196
										c0.118,0.017,0.201,0.127,0.184,0.245c-0.015,0.107-0.106,0.184-0.21,0.186l-0.029,0.001
										c-1.059,0.02-2.107,0.026-3.084,0.336c-0.499,0.111-0.955,0.333-1.423,0.52c-0.433,0.26-0.877,0.498-1.258,0.834
										c-0.804,0.61-1.468,1.4-2.033,2.26c-0.558,0.859-1.027,1.817-1.373,2.782l-0.008,0.021
										c-0.055,0.153-0.223,0.233-0.377,0.178C320.575,440.532,320.497,440.392,320.521,440.253z"/>
								</g>
								<g>
									<path style="fill:#3A3231;" d="M305.815,439.816c-0.348-1.129-0.532-2.282-0.73-3.433c-0.148-1.158-0.31-2.314-0.306-3.494
										c0.001-0.165,0.135-0.298,0.299-0.297c0.134,0,0.248,0.09,0.285,0.213c0.339,1.131,0.511,2.285,0.697,3.438
										c0.137,1.16,0.287,2.318,0.273,3.499c-0.002,0.146-0.122,0.264-0.268,0.262
										C305.947,440.002,305.848,439.923,305.815,439.816z"/>
								</g>
								<g>
									<path style="fill:#3A3231;" d="M316.359,432.392c-0.555-0.37-1.007-0.832-1.469-1.286c-0.43-0.482-0.87-0.956-1.205-1.522
										c-0.107-0.18-0.047-0.413,0.133-0.52c0.136-0.081,0.302-0.066,0.421,0.023c0.527,0.395,0.952,0.882,1.384,1.361
										c0.402,0.507,0.812,1.007,1.121,1.598c0.068,0.131,0.018,0.292-0.113,0.36
										C316.541,432.453,316.437,432.444,316.359,432.392z"/>
								</g>
								<g>
									<path style="fill:#3A3231;" d="M312.977,434.462c-0.388-0.512-0.708-1.069-1.064-1.602
										c-0.311-0.563-0.659-1.102-0.938-1.688c-0.075-0.158-0.008-0.348,0.15-0.423c0.129-0.062,0.279-0.028,0.37,0.072
										c0.438,0.478,0.807,1.002,1.212,1.502c0.36,0.53,0.757,1.036,1.086,1.587c0.14,0.234,0.063,0.537-0.171,0.677
										C313.405,434.718,313.127,434.66,312.977,434.462z"/>
								</g>
								<g>
									<path style="fill:#3A3231;" d="M309.414,435.686c-0.32-0.604-0.514-1.25-0.718-1.892c-0.166-0.655-0.343-1.306-0.391-1.999
										c-0.01-0.136,0.093-0.255,0.23-0.264c0.094-0.007,0.179,0.04,0.227,0.114c0.372,0.587,0.617,1.216,0.872,1.841
										c0.217,0.638,0.444,1.272,0.545,1.949c0.033,0.223-0.12,0.43-0.343,0.463C309.659,435.925,309.493,435.834,309.414,435.686
										z"/>
								</g>
								<g>
									<g>
										<path style="fill:#3A3231;" d="M325.54,428.052c-0.385,0.023-0.754,0.209-0.993,0.504
											c-0.238,0.297-0.333,0.682-0.286,1.036c0.103,0.726,0.814,1.2,1.422,1.086c0.616,0.046,1.271-0.501,1.294-1.234
											c0.009-0.357-0.128-0.729-0.396-0.998C326.312,428.177,325.925,428.033,325.54,428.052z M325.52,427.68
											c0.967-0.073,1.945,0.691,2.047,1.732c0.066,0.506-0.079,1.056-0.415,1.479c-0.333,0.422-0.853,0.715-1.414,0.772
											c-0.563,0.002-1.111-0.23-1.489-0.614c-0.38-0.383-0.584-0.914-0.574-1.424C323.662,428.579,324.55,427.712,325.52,427.68
											z"/>
									</g>
								</g>
							</g>
							<path style="fill:#B9CCD9;" d="M325.456,244.142l35.382,5.301c0,0-3.493,119.015-24.708,171.633l-23.563-0.99
								L325.456,244.142z"/>
						</g>
						<g>
							<path style="fill:#F3FFF9;" d="M450.152,280.219l-19.946,15.368l8.093,11.473c0,0,9.46-5.985,11.937-4.76
								c2.477,1.224,12.686,10.936,20.65,5.246L450.152,280.219z"/>
							<g>
								<g>
									<path style="fill:#3A3231;" d="M447.158,282.525c1.779,2.151,3.544,4.313,5.291,6.489l5.218,6.545l5.154,6.595
										c1.71,2.204,3.403,4.423,5.081,6.652c0.137,0.182,0.101,0.441-0.082,0.578c-0.178,0.134-0.431,0.101-0.57-0.071
										c-1.751-2.173-3.488-4.356-5.207-6.554l-5.133-6.612l-5.069-6.661c-1.682-2.226-3.346-4.467-4.996-6.718
										c-0.065-0.088-0.046-0.212,0.043-0.277C446.973,282.429,447.091,282.445,447.158,282.525z"/>
								</g>
								<g>
									<path style="fill:#3A3231;" d="M452.78,290.151c-0.984,0.565-2.041,0.907-3.147,1.112
										c-1.104,0.197-2.256,0.181-3.374-0.045c-0.563-0.107-1.091-0.337-1.621-0.547c-0.491-0.29-1.018-0.528-1.432-0.924
										c-0.46-0.337-0.821-0.772-1.193-1.189c-0.352-0.433-0.622-0.924-0.913-1.387c-0.062-0.099-0.032-0.229,0.067-0.29
										c0.089-0.056,0.204-0.037,0.271,0.04l0.019,0.022c0.694,0.8,1.372,1.6,2.238,2.152c0.406,0.312,0.87,0.52,1.315,0.758
										c0.479,0.165,0.947,0.353,1.45,0.428c0.986,0.223,2.02,0.225,3.043,0.104c1.018-0.126,2.054-0.384,3.015-0.742l0.02-0.008
										c0.148-0.055,0.313,0.02,0.368,0.168C452.956,289.936,452.9,290.083,452.78,290.151z"/>
								</g>
								<g>
									<path style="fill:#3A3231;" d="M461.9,301.698c-0.645,0.989-1.41,1.871-2.164,2.762c-0.791,0.859-1.573,1.726-2.475,2.485
										c-0.122,0.103-0.305,0.087-0.408-0.035c-0.085-0.101-0.089-0.242-0.02-0.347c0.652-0.983,1.425-1.857,2.189-2.741
										c0.8-0.851,1.59-1.711,2.5-2.463c0.11-0.091,0.272-0.075,0.363,0.034C461.956,301.483,461.96,301.606,461.9,301.698z"/>
								</g>
								<g>
									<path style="fill:#3A3231;" d="M449.433,298.4c0.069,0.662,0.006,1.306-0.046,1.951c-0.092,0.639-0.173,1.28-0.388,1.902
										c-0.066,0.193-0.276,0.295-0.469,0.228c-0.146-0.051-0.241-0.184-0.248-0.33c-0.033-0.657,0.067-1.295,0.156-1.935
										c0.129-0.634,0.247-1.27,0.497-1.887c0.054-0.133,0.205-0.197,0.338-0.143C449.364,298.224,449.423,298.308,449.433,298.4z
										"/>
								</g>
								<g>
									<path style="fill:#3A3231;" d="M453.2,299.66c-0.143,0.626-0.364,1.23-0.543,1.845c-0.231,0.601-0.421,1.213-0.69,1.803
										c-0.073,0.159-0.261,0.23-0.42,0.157c-0.13-0.059-0.201-0.196-0.183-0.33c0.085-0.643,0.249-1.262,0.371-1.894
										c0.174-0.617,0.306-1.246,0.518-1.852c0.09-0.257,0.371-0.394,0.628-0.304C453.121,299.168,453.255,299.418,453.2,299.66z"
										/>
								</g>
								<g>
									<path style="fill:#3A3231;" d="M456.419,301.596c-0.26,0.632-0.629,1.196-0.989,1.765
										c-0.394,0.549-0.778,1.103-1.274,1.589c-0.095,0.093-0.247,0.091-0.34-0.004c-0.065-0.066-0.083-0.16-0.057-0.243
										c0.214-0.66,0.539-1.251,0.856-1.848c0.35-0.576,0.69-1.158,1.14-1.671c0.144-0.165,0.394-0.181,0.559-0.037
										C456.444,301.262,456.481,301.444,456.419,301.596z"/>
								</g>
								<g>
									<path style="fill:#3A3231;" d="M440.209,294.163c0.271,0.277,0.648,0.435,1.028,0.437c0.382-0.006,0.74-0.182,0.983-0.446
										c0.494-0.547,0.404-1.404-0.078-1.802c-0.367-0.505-1.215-0.653-1.793-0.195c-0.28,0.225-0.478,0.571-0.509,0.951
										C439.817,293.488,439.951,293.875,440.209,294.163z M439.944,294.411c-0.691-0.687-0.71-1.932,0.012-2.672
										c0.345-0.374,0.857-0.615,1.394-0.627c0.535-0.015,1.09,0.194,1.491,0.585c0.362,0.427,0.536,0.993,0.486,1.525
										c-0.048,0.534-0.321,1.03-0.716,1.35C441.827,295.244,440.585,295.145,439.944,294.411z"/>
								</g>
							</g>
							<path style="fill:#D4DEE7;" d="M332.002,250.432c0,0-1.911,112.015,39.532,108.575c22.075-1.832,74.532-47.91,74.532-47.91
								l-15.041-17.993l-53.825,28.018l-14.915-70.136L332.002,250.432z"/>
							<path style="fill:none;stroke:#B9CCD9;stroke-miterlimit:10;" d="M353.962,253.758c0,0,4.225,75.7,21.954,78.625
								c17.729,2.925,61.774-32.526,61.774-32.526"/>
							<path style="fill:none;stroke:#B9CCD9;stroke-miterlimit:10;" d="M341.764,251.66c0,0,1.97,92.725,31.191,92.725
								c29.222,0,68.662-39.259,68.662-39.259"/>
						</g>
					</g>
					<g>
						<g>
							<path style="fill:#F3FFF9;" d="M365.992,258.184l-10.887-62.024l-19.414-6.347c0,0-11.373,32.526-12.039,68.37H365.992z"/>
							<g>
								<path style="fill:#FFA49C;" d="M368.499,236.43c2.242,3.206,5.194,7.27,8.3,11.098c0.864,5.361,3.487,13.778,9.752,27.018
									l1.368,3.651c0,0,1.723,11.495,2.208,12.227c0.485,0.731,0.496-3.699,0.496-3.699s0.796,4.195,1.605,5.283
									c0.644,0.866,0.59-4.863,0.59-4.863c2.005,6.042,1.706,5.874,2.005,6.042c0.775,0.435-0.397-6.764-0.397-6.764
									s1.275,4.623,2.126,4.796c0.852,0.173-0.61-8.863-0.61-8.863s1.614,1.397,3.552,1.132c0.493-0.068,0.816-0.646,0.824-1.015
									c-2.489-0.505-5.48-5.913-5.481-5.914c0-0.001-1.11-11.619-3.84-22.144c-0.13-0.536-0.285-1.108-0.462-1.711
									c-0.838-2.985-1.81-5.819-2.935-8.203c-1.974-4.919-4.469-10.463-6.917-15.666
									C376.62,231.364,372.566,233.909,368.499,236.43z"/>
								<polygon style="fill:#F3FFF9;" points="355.344,196.219 384.166,227.992 365.141,241.965 345.385,201.115 								"/>
							</g>
							<g>
								<path style="fill:#FFA49C;" d="M309.734,120.696c0,0,0.017-3.651-0.483-4.697c-0.399-0.832-1.29,3.985-1.29,3.985
									c-0.695-5.399-0.471-5.209-0.695-5.399c-0.579-0.492-0.773,5.742-0.773,5.742s-0.314-4.088-1-4.372
									c-0.687-0.284-0.937,7.539-0.937,7.539s-1.126-1.437-2.796-1.531c-0.425-0.024-0.79,0.409-0.857,0.717
									c2.007,0.83,3.633,5.859,3.634,5.86c0,0.001-0.968,9.934-0.397,19.213c0.022,0.473,0.058,0.979,0.108,1.517
									c0.215,2.64,0.568,5.175,1.122,7.359c2.551,13.321,8.105,32.112,8.105,32.112l9.02-16.554c0,0-3.428-8.564-7.564-16.331
									c0.151-4.641-0.674-12.134-3.768-24.27l0,0v0l-0.551-3.288c0,0,0.433-9.93,0.145-10.623
									C310.468,116.979,309.734,120.696,309.734,120.696z"/>
								<polygon style="fill:#F3FFF9;" points="323.39,169.063 310.585,187.71 332.814,220.053 338.823,191.177 								"/>
							</g>
						</g>
						<g>
							<g>
								<path style="fill:#001041;" d="M348.836,161.025c0,0,8.239-6.816,15.631,5.088c7.392,11.905,3.826,10.712,16.971,6.414
									c13.145-4.298,27.428-5.369,33.808,9.821l-13.249,17.643c0,0-8.282-10.441-20.081-3.864
									c-11.799,6.577-28.747,2.693-29.72-10.468C351.224,172.498,348.836,161.025,348.836,161.025z"/>
								<ellipse style="fill:#001041;" cx="351.969" cy="175.145" rx="12.401" ry="11.887"/>
							</g>
							<path style="fill:#001041;" d="M346.185,159.543c0,0,6.542-4.716,14.432,1.957L346.185,159.543z"/>
							<g>
								<g>
									<path style="fill:#FFA49C;" d="M342.884,163.668c1.641-3.161,4.6-5.151,8.296-4.956c5.182,0.273,8.207,3.248,9.528,8.755
										c0.416,1.734,0.471,3.683,0.264,5.618c0.675,0.094,1.18,0.465,1.471,0.96c0.746,1.267-0.315,2.865-1.786,2.89
										c-0.141,0.003-0.293,0.005-0.449,0.008c-0.738,2.533-1.871,4.739-3.161,5.986l0.37,14.315
										c0.073,2.814-1.579,5.434-4.197,6.47c-0.776,0.307-1.503,0.543-2.184,0.716c-4.983,1.269-9.606-3.104-8.829-8.187
										l2.145-14.035c0,0-1.649-2.082-2.423-6.307c-0.128-0.017-0.256-0.034-0.374-0.049c-1.458-0.192-2.333-1.899-1.448-3.074
										c0.322-0.428,0.822-0.721,1.44-0.774c-0.029-1.411,0.039-2.958,0.269-4.669
										C341.988,166.069,342.296,164.802,342.884,163.668z"/>
									<g>
										<path style="fill:#EE7C78;" d="M341.44,174.779c-0.343-0.134-0.584-0.41-0.723-0.775
											c-0.044-0.185-0.052-0.431,0.089-0.608c0.137-0.177,0.337-0.225,0.514-0.227c-0.118,0.141-0.237,0.248-0.267,0.371
											c-0.032,0.115-0.031,0.229,0.021,0.359C341.137,174.172,341.321,174.439,341.44,174.779z"/>
									</g>
									<g>
										<path style="fill:#EE7C78;" d="M360.616,175.877c0.164-0.321,0.382-0.56,0.481-0.822c0.07-0.122,0.086-0.236,0.07-0.353
											c-0.013-0.126-0.116-0.248-0.214-0.404c0.175,0.025,0.367,0.1,0.479,0.294c0.115,0.195,0.074,0.437,0.006,0.615
											C361.25,175.548,360.974,175.79,360.616,175.877z"/>
									</g>
									<path style="fill:#EE7C78;" d="M357.048,182.928c-3.601,2.631-7.269,3.856-12.695-0.72c0,0,5.234,7.218,12.8,4.798
										L357.048,182.928z"/>
								</g>
								<path style="fill:#FF938F;" d="M344.197,175.333c-0.079,0.722,0.747,1.404,1.845,1.525c1.098,0.12,2.052-0.367,2.131-1.089
									c0.079-0.722-0.747-1.404-1.845-1.525C345.23,174.124,344.276,174.612,344.197,175.333z"/>
								<path style="fill:#FF938F;" d="M354.541,176.263c0.046,0.724,0.976,1.256,2.078,1.187c1.102-0.069,1.959-0.712,1.914-1.437
									c-0.045-0.725-0.976-1.256-2.078-1.187C355.353,174.895,354.496,175.539,354.541,176.263z"/>
								<path style="fill:none;stroke:#222947;stroke-width:0.3725;stroke-miterlimit:10;" d="M352.163,172.501
									c-0.106,1.866,1.321,3.464,3.187,3.57s3.464-1.321,3.57-3.187c0.106-1.866-1.321-3.464-3.187-3.57
									C353.867,169.208,352.269,170.635,352.163,172.501z"/>
								<path style="fill:none;stroke:#222947;stroke-width:0.3725;stroke-miterlimit:10;" d="M343.965,172.036
									c-0.106,1.866,1.321,3.464,3.187,3.57c1.866,0.106,3.464-1.321,3.57-3.187c0.106-1.866-1.321-3.464-3.187-3.57
									C345.669,168.744,344.07,170.171,343.965,172.036z"/>
								<path style="fill:none;stroke:#222947;stroke-width:0.3725;stroke-miterlimit:10;" d="M352.616,170.711
									c0,0-0.779-0.502-2.206-0.125"/>
								<path style="fill:#222947;" d="M354.949,173.073c-0.024,0.424,0.211,0.783,0.526,0.801c0.314,0.018,0.589-0.312,0.613-0.736
									c0.024-0.424-0.211-0.783-0.526-0.801C355.247,172.319,354.973,172.649,354.949,173.073z"/>
								<path style="fill:#222947;" d="M346.75,172.608c-0.024,0.424,0.211,0.783,0.526,0.801c0.314,0.018,0.589-0.312,0.613-0.736
									c0.024-0.424-0.211-0.783-0.525-0.801C347.048,171.854,346.774,172.184,346.75,172.608z"/>
								<g>
									<g>
										<path style="fill:#EE7C78;" d="M353.166,177.322c-0.168,0.446-0.484,0.831-0.889,1.123
											c-0.404,0.296-0.944,0.439-1.467,0.384c-0.521-0.076-0.98-0.322-1.351-0.637c-0.173-0.171-0.339-0.345-0.494-0.523
											c-0.126-0.206-0.263-0.396-0.369-0.606c0.395,0.268,0.746,0.545,1.123,0.768c0.387,0.198,0.763,0.376,1.159,0.424
											c0.394,0.051,0.788-0.031,1.178-0.193C352.441,177.887,352.807,177.626,353.166,177.322z"/>
									</g>
									<g>
										<path style="fill:#EE7C78;" d="M351.431,175.388l-1.4-0.746l-0.01-0.012l-0.392-0.475l0.429-0.138
											c0.26-0.084,0.542-0.331,0.77-0.611c0.234-0.283,0.438-0.605,0.613-0.944c-0.058,0.379-0.151,0.756-0.293,1.129
											c-0.148,0.369-0.331,0.75-0.72,1.065l0.037-0.613l0.015,0.007l1.103,1.14c0.049,0.05,0.048,0.131-0.003,0.18
											C351.539,175.406,351.479,175.413,351.431,175.388z"/>
									</g>
								</g>
								<g>
									<path style="fill:#001041;" d="M353.883,159.153c0,0-5.354,11.244-12.743,10.434
										C341.14,169.587,342.438,155.053,353.883,159.153z"/>
									<path style="fill:#001041;" d="M353.883,159.153c0,0,0.6,8.318,8.518,13.168
										C362.401,172.321,364.593,160.16,353.883,159.153z"/>
								</g>
							</g>
						</g>
					</g>
				</g>
			</g>
		</g>
	</g>
</g>
<g id="DESIGNED_BY_FREEPIK">
	<g>
		<g id="XMLID_319_">
			<g id="XMLID_338_">
				<path id="XMLID_346_" style="fill:#002338;" d="M260.104,465.465c-0.432,0.443-0.803,0.931-1.108,1.453l-0.465-0.241
					c-0.067-0.298-0.349-0.503-0.659-0.466c-0.331,0.039-0.568,0.339-0.529,0.67c0.039,0.331,0.339,0.568,0.67,0.529
					c0.065-0.008,0.127-0.026,0.183-0.052l0.452,0.234c-0.251,0.554-0.433,1.139-0.539,1.744l0.747,0.132
					c0.23-1.306,0.85-2.507,1.792-3.473L260.104,465.465z"/>
				<path id="XMLID_345_" style="fill:#002338;" d="M265.592,463.163c-0.171,0-0.341,0.006-0.51,0.017l-0.074-0.626
					c0.188-0.149,0.296-0.389,0.266-0.645c-0.046-0.393-0.402-0.674-0.795-0.628c-0.393,0.046-0.674,0.402-0.628,0.795
					c0.03,0.254,0.189,0.461,0.405,0.564l0.073,0.624c-0.714,0.116-1.403,0.332-2.06,0.646l0.327,0.684
					c0.934-0.447,1.942-0.673,2.995-0.673c0.496,0,0.993,0.053,1.475,0.158l0.161-0.741
					C266.692,463.222,266.142,463.163,265.592,463.163z"/>
				<path id="XMLID_344_" style="fill:#002338;" d="M272.194,465.711c0.331-0.04,0.566-0.341,0.526-0.672
					c-0.04-0.331-0.341-0.566-0.672-0.526c-0.309,0.038-0.535,0.304-0.53,0.609l-0.416,0.363c-0.418-0.43-0.89-0.813-1.408-1.139
					l-0.404,0.641c1.134,0.715,2.021,1.726,2.563,2.925l0.691-0.313c-0.251-0.554-0.568-1.072-0.942-1.545l0.402-0.351
					C272.065,465.716,272.129,465.719,272.194,465.711z"/>
				<path id="XMLID_343_" style="fill:#002338;" d="M265.044,473.372c-0.386,0.023-0.775,0.035-1.157,0.035
					c-0.88,0-1.733-0.061-2.478-0.179c-0.39-0.062-0.846-0.155-1.27-0.292c1.046,1.861,3.069,3.125,5.388,3.125
					c2.855,0,5.262-1.916,5.95-4.504c-0.682,0.449-1.505,0.825-2.459,1.123C267.839,473.047,266.464,473.286,265.044,473.372z"/>
				<path id="XMLID_339_" style="fill:#002338;" d="M265.592,464.68c-3.352,0-6.08,2.666-6.08,5.943
					c0,0.426,0.046,0.849,0.137,1.261c0.673,0.483,2.706,0.89,5.348,0.731c2.879-0.173,5.297-0.957,6.672-2.159
					c-0.005-0.195-0.021-0.39-0.045-0.582C271.244,466.913,268.65,464.68,265.592,464.68z M263.432,471.194
					c-1.02,0-1.85-0.83-1.85-1.85c0-1.02,0.83-1.85,1.85-1.85c1.02,0,1.85,0.83,1.85,1.85
					C265.282,470.365,264.452,471.194,263.432,471.194z M268.17,470.286c-0.75,0-1.36-0.61-1.36-1.36s0.61-1.361,1.36-1.361
					c0.75,0,1.361,0.61,1.361,1.361S268.92,470.286,268.17,470.286z"/>
			</g>
			<path id="XMLID_336_" style="fill:#002338;" d="M281.595,466.547c-0.295-0.116-0.805-0.309-1.382-0.237
				c-0.551,0.069-0.844,0.341-0.844,1.007v0.866h2.228v1.717h-2.228v5.455h-1.932v-5.455h-1.34v-1.717h1.34v-0.888
				c0-1.68,0.896-2.783,2.568-2.783c0.643,0,1.157,0.122,1.59,0.308L281.595,466.547z"/>
			<path id="XMLID_334_" style="fill:#002338;" d="M286.298,469.879c-0.177-0.03-0.358-0.046-0.526-0.046
				c-0.896,0-1.51,0.548-1.51,1.614v3.908h-1.932v-7.172h1.873v0.785c0.451-0.673,1.14-0.977,2.021-0.977
				c0.414,0,0.848,0.128,1.094,0.337L286.298,469.879z"/>
			<path id="XMLID_331_" style="fill:#002338;" d="M293.965,471.757c0,0.222-0.015,0.489-0.037,0.651h-5.085
				c0.207,1.036,0.933,1.488,1.843,1.488c0.622,0,1.295-0.252,1.813-0.688l1.132,1.243c-0.814,0.748-1.85,1.088-3.057,1.088
				c-2.198,0-3.723-1.495-3.723-3.753c0-2.258,1.48-3.797,3.627-3.797C292.544,467.99,293.958,469.522,293.965,471.757z
				 M288.851,471.091h3.175c-0.177-0.918-0.733-1.436-1.562-1.436C289.554,469.655,289.021,470.203,288.851,471.091z"/>
			<path id="XMLID_328_" style="fill:#002338;" d="M301.618,471.757c0,0.222-0.015,0.489-0.037,0.651h-5.085
				c0.207,1.036,0.933,1.488,1.843,1.488c0.622,0,1.295-0.252,1.813-0.688l1.132,1.243c-0.814,0.748-1.85,1.088-3.057,1.088
				c-2.198,0-3.723-1.495-3.723-3.753c0-2.258,1.48-3.797,3.627-3.797C300.197,467.99,301.611,469.522,301.618,471.757z
				 M296.504,471.091h3.175c-0.178-0.918-0.733-1.436-1.562-1.436C297.207,469.655,296.674,470.203,296.504,471.091z"/>
			<path id="XMLID_325_" style="fill:#002338;" d="M309.964,471.764c0,2.154-1.495,3.775-3.471,3.775
				c-0.962,0-1.643-0.378-2.109-0.933v3.708h-1.924v-10.133h1.887v0.792c0.466-0.585,1.155-0.984,2.139-0.984
				C308.469,467.99,309.964,469.61,309.964,471.764z M304.287,471.764c0,1.132,0.747,1.976,1.843,1.976
				c1.14,0,1.85-0.881,1.85-1.976c0-1.095-0.71-1.976-1.85-1.976C305.035,469.788,304.287,470.632,304.287,471.764z"/>
			<path id="XMLID_322_" style="fill:#002338;" d="M313.068,465.836c0,0.696-0.54,1.229-1.236,1.229
				c-0.696,0-1.229-0.533-1.229-1.229c0-0.696,0.533-1.243,1.229-1.243C312.527,464.592,313.068,465.14,313.068,465.836z
				 M312.809,475.354h-1.932v-7.172h1.932V475.354z"/>
			<path id="XMLID_320_" style="fill:#002338;" d="M316.032,470.736l2.701-2.554h2.368l-3.479,3.375l3.501,3.797h-2.376
				l-2.716-2.901v2.901H314.1v-10.658h1.932V470.736z"/>
		</g>
		<g>
			<path style="fill:#002338;" d="M184.412,475.289v-1.055c-0.527,0.718-1.391,1.23-2.387,1.23c-1.846,0-3.149-1.406-3.149-3.706
				c0-2.256,1.289-3.721,3.149-3.721c0.952,0,1.816,0.469,2.387,1.245v-3.765h1.099v9.77H184.412z M184.412,473.37v-3.208
				c-0.395-0.615-1.245-1.143-2.124-1.143c-1.421,0-2.27,1.172-2.27,2.739c0,1.567,0.85,2.724,2.27,2.724
				C183.168,474.483,184.017,473.986,184.412,473.37z"/>
			<path style="fill:#002338;" d="M186.932,471.744c0-2.051,1.465-3.706,3.486-3.706c2.139,0,3.398,1.67,3.398,3.794v0.279h-5.727
				c0.088,1.333,1.025,2.446,2.549,2.446c0.805,0,1.626-0.322,2.182-0.894l0.527,0.718c-0.703,0.703-1.655,1.084-2.812,1.084
				C188.44,475.465,186.932,473.956,186.932,471.744z M190.403,468.947c-1.509,0-2.256,1.274-2.314,2.358h4.643
				C192.718,470.25,192.015,468.947,190.403,468.947z"/>
			<path style="fill:#002338;" d="M194.607,474.351l0.571-0.791c0.469,0.542,1.362,1.011,2.329,1.011c1.084,0,1.67-0.513,1.67-1.216
				c0-1.714-4.38-0.659-4.38-3.281c0-1.098,0.952-2.036,2.636-2.036c1.201,0,2.051,0.454,2.622,1.026l-0.513,0.762
				c-0.424-0.513-1.201-0.894-2.109-0.894c-0.967,0-1.567,0.483-1.567,1.113c0,1.552,4.38,0.527,4.38,3.281
				c0,1.187-0.952,2.138-2.783,2.138C196.306,475.465,195.325,475.113,194.607,474.351z"/>
			<path style="fill:#002338;" d="M201.477,466.471c0-0.41,0.337-0.747,0.732-0.747c0.41,0,0.747,0.337,0.747,0.747
				c0,0.41-0.337,0.732-0.747,0.732C201.814,467.203,201.477,466.881,201.477,466.471z M201.667,475.289v-7.075h1.099v7.075H201.667
				z"/>
			<path style="fill:#002338;" d="M204.582,477.105l0.556-0.82c0.586,0.703,1.289,0.967,2.3,0.967c1.172,0,2.27-0.571,2.27-2.124
				v-1.011c-0.513,0.718-1.377,1.26-2.373,1.26c-1.845,0-3.149-1.377-3.149-3.662c0-2.27,1.289-3.677,3.149-3.677
				c0.952,0,1.802,0.469,2.373,1.245v-1.069h1.098v6.87c0,2.344-1.641,3.076-3.369,3.076
				C206.237,478.16,205.417,477.926,204.582,477.105z M209.709,473.253v-3.091c-0.381-0.615-1.23-1.143-2.109-1.143
				c-1.421,0-2.27,1.128-2.27,2.695c0,1.553,0.849,2.695,2.27,2.695C208.478,474.41,209.328,473.868,209.709,473.253z"/>
			<path style="fill:#002338;" d="M217.413,475.289v-4.629c0-1.245-0.63-1.641-1.582-1.641c-0.865,0-1.685,0.527-2.095,1.099v5.17
				h-1.099v-7.075h1.099v1.025c0.498-0.586,1.465-1.201,2.519-1.201c1.48,0,2.256,0.747,2.256,2.285v4.966H217.413z"/>
			<path style="fill:#002338;" d="M219.932,471.744c0-2.051,1.465-3.706,3.486-3.706c2.139,0,3.398,1.67,3.398,3.794v0.279h-5.727
				c0.088,1.333,1.025,2.446,2.549,2.446c0.806,0,1.626-0.322,2.183-0.894l0.527,0.718c-0.703,0.703-1.655,1.084-2.812,1.084
				C221.441,475.465,219.932,473.956,219.932,471.744z M223.404,468.947c-1.509,0-2.256,1.274-2.314,2.358h4.643
				C225.718,470.25,225.015,468.947,223.404,468.947z"/>
			<path style="fill:#002338;" d="M233.35,475.289v-1.055c-0.527,0.718-1.392,1.23-2.388,1.23c-1.846,0-3.149-1.406-3.149-3.706
				c0-2.256,1.289-3.721,3.149-3.721c0.952,0,1.817,0.469,2.388,1.245v-3.765h1.098v9.77H233.35z M233.35,473.37v-3.208
				c-0.396-0.615-1.245-1.143-2.124-1.143c-1.421,0-2.27,1.172-2.27,2.739c0,1.567,0.849,2.724,2.27,2.724
				C232.105,474.483,232.954,473.986,233.35,473.37z"/>
			<path style="fill:#002338;" d="M239.692,475.289v-9.77h1.098v3.765c0.572-0.776,1.421-1.245,2.388-1.245
				c1.845,0,3.149,1.465,3.149,3.721c0,2.299-1.304,3.706-3.149,3.706c-0.996,0-1.86-0.513-2.388-1.23v1.055H239.692z
				 M242.9,474.483c1.436,0,2.285-1.157,2.285-2.724c0-1.568-0.85-2.739-2.285-2.739c-0.864,0-1.728,0.527-2.109,1.143v3.208
				C241.171,473.986,242.036,474.483,242.9,474.483z"/>
			<path style="fill:#002338;" d="M247.528,477.061c0.161,0.073,0.425,0.117,0.601,0.117c0.483,0,0.805-0.161,1.055-0.747
				l0.469-1.069l-2.959-7.148h1.187l2.358,5.8l2.344-5.8h1.201l-3.545,8.51c-0.425,1.025-1.143,1.421-2.08,1.435
				c-0.234,0-0.601-0.044-0.806-0.103L247.528,477.061z"/>
		</g>
	</g>
</g>
</svg>
